<svg width="75" height="74" viewBox="0 0 75 74" fill="none" xmlns="http://www.w3.org/2000/svg">
<rect x="1" y="0.5" width="73" height="73" rx="36.5" fill="#141414"/>
<rect x="1" y="0.5" width="73" height="73" rx="36.5" stroke="#703BF7"/>
<path fill-rule="evenodd" clip-rule="evenodd" d="M35.7835 24.5485C36.4187 23.0214 38.582 23.0214 39.2171 24.5485L42.1666 31.6399L49.8224 32.2537C51.471 32.3858 52.1395 34.4432 50.8835 35.5192L45.0506 40.5157L46.8326 47.9865C47.2164 49.5952 45.4662 50.8668 44.0548 50.0047L37.5003 46.0013L30.9459 50.0047C29.5345 50.8668 27.7843 49.5952 28.1681 47.9865L29.9501 40.5157L24.1172 35.5192C22.8611 34.4432 23.5296 32.3858 25.1783 32.2537L32.8341 31.6399L35.7835 24.5485Z" fill="#A685FA"/>
</svg>
