<svg width="1441" height="259" viewBox="0 0 1441 259" fill="none" xmlns="http://www.w3.org/2000/svg">
<g clip-path="url(#clip0_181_358)">
<mask id="path-1-inside-1_181_358" fill="white">
<path d="M0 0H1441V259H0V0Z"/>
</mask>
<g clip-path="url(#clip1_181_358)">
<path fill-rule="evenodd" clip-rule="evenodd" d="M1405.05 234.44C1408.31 229.027 1410.96 223.074 1413.56 217.764C1414.95 219.903 1418.92 243.306 1424.4 280H1412.54C1408.95 253.064 1406.27 236.361 1405.05 234.44Z" fill="#1A1A1A"/>
<path fill-rule="evenodd" clip-rule="evenodd" d="M1415.21 218.914C1417.84 213.89 1420.28 209.104 1422.75 205.469C1424.1 207.419 1428.9 236.104 1435.5 280H1424.78C1419.99 243.969 1416.5 220.977 1415.21 218.914Z" fill="#1A1A1A"/>
<path fill-rule="evenodd" clip-rule="evenodd" d="M1423.94 204.01C1426.15 200.849 1428.27 197.848 1430.36 194.995C1432.83 209.316 1435.34 223.447 1437.74 237.491C1440.19 251.753 1442.6 265.943 1444.95 279.969L1444.79 279.998H1435.15C1431.56 255.039 1427.75 229.624 1423.94 204.008V204.01Z" fill="#1A1A1A"/>
<path fill-rule="evenodd" clip-rule="evenodd" d="M1431.23 193.509C1433.08 190.554 1434.84 187.925 1436.52 185.448C1439.71 201.17 1442.89 216.719 1445.95 231.97C1449.04 247.375 1452.08 262.604 1455 277.537V278.149C1452.22 278.673 1449.37 279.194 1446.44 279.669C1444.05 265.531 1441.52 251.171 1438.97 236.687C1436.46 222.447 1433.79 208.07 1431.23 193.509Z" fill="#1A1A1A"/>
<path fill-rule="evenodd" clip-rule="evenodd" d="M1437.36 184.351C1438.94 181.983 1440.19 179.594 1441.29 177.057C1445.17 193.961 1449.09 210.716 1452.72 227.208L1455 237.578V270.992C1452.41 257.947 1449.72 244.713 1447 231.342C1443.87 215.909 1440.63 200.181 1437.36 184.353L1437.36 184.351Z" fill="#1A1A1A"/>
<path fill-rule="evenodd" clip-rule="evenodd" d="M1334.99 259.394C1341.5 252.546 1347.54 246.87 1353.22 241.627C1359.64 250.483 1365.59 259.08 1371.87 268.609C1369.06 272.05 1366.2 275.914 1363.2 280.002H1347.86C1343.54 272.93 1339.25 266.093 1334.99 259.394Z" fill="#1A1A1A"/>
<path fill-rule="evenodd" clip-rule="evenodd" d="M1355.88 238.82C1361.52 233.788 1366.47 229.005 1371.29 224.403C1376.92 231.954 1382.69 240.009 1388.32 247.954C1384.02 253.454 1379.28 259.078 1374.4 265.292C1368.2 256.312 1362.25 247.606 1355.88 238.82Z" fill="#1A1A1A"/>
<path fill-rule="evenodd" clip-rule="evenodd" d="M1373.62 222.286C1378.06 218.394 1382.32 214.443 1386.3 210.773C1391.29 217.388 1396.47 223.813 1401.71 230.667C1398.06 235.178 1394.34 239.939 1390.37 245.295C1384.78 237.583 1379.13 229.626 1373.62 222.286H1373.62Z" fill="#1A1A1A"/>
<path fill-rule="evenodd" clip-rule="evenodd" d="M1400.14 197.271C1403.19 194.241 1406.2 191.538 1409.1 188.925C1413.22 193.806 1417.72 199.175 1421.83 204.365C1419.5 207.497 1416.8 210.843 1414.11 214.654C1409.43 208.525 1404.86 203.18 1400.14 197.271Z" fill="#1A1A1A"/>
<path fill-rule="evenodd" clip-rule="evenodd" d="M1410.79 188.027C1413.39 185.483 1416.02 183.175 1418.3 180.596C1421.98 184.946 1425.85 189.428 1429.44 193.778C1427.48 196.716 1425.3 199.66 1423.02 202.799C1419.03 197.911 1414.79 192.813 1410.79 188.027Z" fill="#1A1A1A"/>
<path fill-rule="evenodd" clip-rule="evenodd" d="M1419.95 179.11C1422.07 176.773 1424.09 174.645 1426.03 172.531C1429.39 176.366 1432.87 180.419 1436.06 184.198C1434.51 186.623 1432.68 189.079 1430.77 191.785C1427.18 187.481 1423.39 183.17 1419.95 179.11H1419.95Z" fill="#1A1A1A"/>
<path fill-rule="evenodd" clip-rule="evenodd" d="M1427.25 171.352C1429.09 169.54 1430.73 167.654 1432.48 165.905C1435.4 169.191 1438.47 172.559 1441.39 175.845C1440.17 178.213 1438.73 180.539 1437.41 183.042C1434.02 179.234 1430.49 175.199 1427.25 171.352Z" fill="#1A1A1A"/>
<path fill-rule="evenodd" clip-rule="evenodd" d="M1433.16 164.99C1434.7 163.326 1436.11 161.394 1437.32 159.674C1440.03 162.605 1442.59 165.493 1445.49 168.614C1444.29 170.718 1443.09 172.707 1441.81 174.868C1438.96 171.683 1436.02 168.379 1433.16 164.99H1433.16Z" fill="#1A1A1A"/>
<path fill-rule="evenodd" clip-rule="evenodd" d="M1438.1 158.319C1439.41 156.788 1440.54 155.335 1441.71 153.836C1444.23 156.57 1446.72 159.382 1448.89 161.778C1448.17 163.67 1447.18 165.448 1446.38 167.482C1443.68 164.428 1440.87 161.285 1438.1 158.319H1438.1Z" fill="#1A1A1A"/>
<path fill-rule="evenodd" clip-rule="evenodd" d="M1428.41 103.096C1426.62 102.136 1424.95 101.232 1423.11 100.496C1423.11 100.759 1423.06 100.918 1422.89 100.901C1424.84 101.816 1426.91 103.027 1428.53 103.896C1428.53 103.541 1428.53 103.438 1428.41 103.096Z" fill="#1A1A1A"/>
<path fill-rule="evenodd" clip-rule="evenodd" d="M1440.44 112.336C1439.4 111.249 1438.31 110.249 1437.16 109.352C1437.45 109.757 1437.75 110.182 1437.98 110.524C1439.25 111.65 1440.45 112.695 1441.61 113.771C1441.2 113.32 1440.97 112.983 1440.44 112.336Z" fill="#1A1A1A"/>
<path fill-rule="evenodd" clip-rule="evenodd" d="M1248.92 269.854C1259.94 262.43 1269.48 255.397 1279.44 248.932C1285.37 259.017 1291.55 268.985 1297.78 280.002H1254.35C1252.56 276.583 1250.75 273.2 1248.92 269.854Z" fill="#1A1A1A"/>
<path fill-rule="evenodd" clip-rule="evenodd" d="M1283.9 246.068C1292.66 239.889 1300.85 233.971 1308.43 228.548C1314.78 238.02 1321.08 247.458 1327.35 257.479C1319.99 264.298 1312.46 271.891 1303.85 279.264C1297.25 267.653 1290.39 256.815 1283.9 246.068Z" fill="#1A1A1A"/>
<path fill-rule="evenodd" clip-rule="evenodd" d="M1312.05 226.019C1319.31 221.811 1325.74 217.17 1331.99 212.848C1337.76 220.576 1343.71 228.678 1349.47 237.131C1343.61 242.631 1337.6 248.244 1330.86 254.682C1324.43 244.598 1318.43 235.097 1312.05 226.019Z" fill="#1A1A1A"/>
<path fill-rule="evenodd" clip-rule="evenodd" d="M1334.84 210.551C1340.86 206.669 1346.35 202.736 1351.63 199.432C1356.92 206.046 1362.55 213.545 1367.93 221.195C1363.01 225.523 1357.76 229.746 1352.1 234.594C1346.56 226.518 1340.64 218.492 1334.84 210.551Z" fill="#1A1A1A"/>
<path fill-rule="evenodd" clip-rule="evenodd" d="M1354.15 197.82C1359.19 194.829 1363.74 191.645 1368.25 189.044C1373.27 194.949 1378.08 201.089 1383.2 207.686C1379.17 211.202 1374.74 214.787 1370.29 218.771C1364.97 211.785 1359.46 204.387 1354.15 197.82Z" fill="#1A1A1A"/>
<path fill-rule="evenodd" clip-rule="evenodd" d="M1414.17 97.1285C1415.34 97.0087 1416.4 96.8824 1417.34 96.6995C1419.28 98.6096 1421.06 100.391 1422.96 102.203C1422.01 102.334 1421.12 102.643 1420.11 102.879C1418.15 101.032 1416.27 99.1106 1414.17 97.1285Z" fill="#1A1A1A"/>
<path fill-rule="evenodd" clip-rule="evenodd" d="M1384.03 178.39C1387.59 176.257 1390.82 173.999 1394.14 171.925C1398.24 176.813 1402.48 181.724 1406.63 186.718C1403.67 189.103 1400.6 191.743 1397.3 194.396C1392.92 189.012 1388.54 183.745 1384.03 178.39Z" fill="#1A1A1A"/>
<path fill-rule="evenodd" clip-rule="evenodd" d="M1395.99 171.261C1398.94 169.185 1401.92 167.316 1404.76 165.406C1408.29 169.477 1411.98 173.735 1415.52 178.035C1413.11 180.441 1410.55 182.722 1407.88 185.203C1403.97 180.674 1399.98 175.959 1395.99 171.261Z" fill="#1A1A1A"/>
<path fill-rule="evenodd" clip-rule="evenodd" d="M1406.52 164.276C1409.19 162.657 1411.33 160.765 1413.7 159.223C1417.06 162.978 1420.45 166.693 1423.63 170.398C1421.69 172.428 1419.54 174.41 1417.24 176.634C1413.57 172.165 1410 168.144 1406.53 164.276H1406.52Z" fill="#1A1A1A"/>
<path fill-rule="evenodd" clip-rule="evenodd" d="M1415.04 158.192C1417.25 156.637 1419.27 155.06 1421.39 153.843C1424.32 157.027 1427.41 160.342 1430.53 164.069C1428.84 165.824 1427.07 167.538 1425.1 169.533C1421.85 165.857 1418.4 161.862 1415.04 158.192Z" fill="#1A1A1A"/>
<path fill-rule="evenodd" clip-rule="evenodd" d="M1422.13 153.174C1423.99 151.7 1425.77 150.458 1427.3 149.029C1429.99 151.946 1432.76 154.969 1435.44 157.809C1434.04 159.46 1432.64 161.285 1430.96 163.073C1428.04 159.643 1425.07 156.409 1422.13 153.172V153.174Z" fill="#1A1A1A"/>
<path fill-rule="evenodd" clip-rule="evenodd" d="M1428.39 148.051C1430.02 146.988 1431.33 145.571 1432.64 144.353C1435.21 147.028 1437.8 149.842 1440.35 152.706C1438.98 153.947 1437.92 155.605 1436.66 157.114C1433.98 154.137 1431.08 150.992 1428.39 148.054V148.051Z" fill="#1A1A1A"/>
<path fill-rule="evenodd" clip-rule="evenodd" d="M1433.36 143.97C1434.78 142.935 1435.7 141.556 1436.87 140.374C1439.06 142.661 1441.34 145.096 1443.44 147.418C1442.4 148.716 1441.49 150.166 1440.44 151.665C1438.08 149.093 1435.74 146.514 1433.36 143.97Z" fill="#1A1A1A"/>
<path fill-rule="evenodd" clip-rule="evenodd" d="M1437.42 108.705C1436.61 107.814 1435.76 107.024 1434.97 106.316C1435.48 106.984 1435.94 107.618 1436.46 108.167C1437.43 109.071 1438.41 110.049 1439.27 110.831C1438.57 110.053 1438.06 109.465 1437.42 108.705H1437.42Z" fill="#1A1A1A"/>
<path fill-rule="evenodd" clip-rule="evenodd" d="M1439.52 113.216C1439.39 112.536 1439.08 111.804 1438.95 111.118C1439.76 112.079 1440.63 113.044 1441.45 113.913C1441.76 114.708 1442.18 115.577 1442.5 116.435C1441.56 115.435 1440.51 114.366 1439.52 113.216Z" fill="#1A1A1A"/>
<path fill-rule="evenodd" clip-rule="evenodd" d="M1066.79 165.476C1084.75 161.69 1101.26 157.959 1116.81 154.409C1122.8 164.082 1128.91 173.319 1134.64 183.231C1119.56 187.433 1102.92 192.847 1084.5 198.362C1078.51 186.947 1072.7 176.148 1066.79 165.476H1066.79Z" fill="#1A1A1A"/>
<path fill-rule="evenodd" clip-rule="evenodd" d="M1170.39 154.553C1182.93 151.769 1193.96 149.025 1204.94 146.949C1210.33 154.25 1216.19 161.812 1222.04 169.74C1211.32 172.999 1200.08 176.497 1187.99 180.367C1182.36 171.672 1176.23 162.742 1170.39 154.551V154.553Z" fill="#1A1A1A"/>
<path fill-rule="evenodd" clip-rule="evenodd" d="M1185.14 97.7296C1195.13 97.3288 1204.47 96.7233 1213.49 96.2441C1218.56 101.789 1223.53 107.198 1228.3 112.817C1219.56 113.612 1210.27 114.623 1200.39 116.069C1195.46 109.735 1190.53 103.602 1185.14 97.7296Z" fill="#1A1A1A"/>
<path fill-rule="evenodd" clip-rule="evenodd" d="M1175.8 256.597C1190.5 248.771 1203.46 241.226 1216.13 234.474C1222.78 245.988 1229.59 258.37 1236.36 270.728C1232.21 273.799 1227.99 276.879 1223.66 280H1187.21C1183.35 272.002 1179.56 264.229 1175.8 256.597Z" fill="#1A1A1A"/>
<path fill-rule="evenodd" clip-rule="evenodd" d="M1221.99 231.445C1233.46 225.808 1244.06 220.572 1253.79 215.382C1260.05 224.911 1266.73 235.139 1272.76 245.691C1263.29 252.265 1253.09 259.01 1241.88 266.276C1235.4 254.105 1228.64 242.799 1221.99 231.445Z" fill="#1A1A1A"/>
<path fill-rule="evenodd" clip-rule="evenodd" d="M1259.11 213.935C1268.59 209.083 1277.23 204.84 1285.42 200.786C1291.06 208.819 1297.02 217.13 1303.01 225.583C1295.14 230.946 1286.53 236.857 1277.47 243.075C1271.25 232.586 1265.24 223.307 1259.11 213.933V213.935Z" fill="#1A1A1A"/>
<path fill-rule="evenodd" clip-rule="evenodd" d="M1290.47 197.831C1298.04 194.337 1305.18 190.931 1311.95 187.542C1317.35 194.47 1322.78 201.782 1328.21 209.294C1321.8 213.735 1315.1 217.978 1307.78 222.214C1302.11 214.182 1296.24 205.962 1290.47 197.833V197.831Z" fill="#1A1A1A"/>
<path fill-rule="evenodd" clip-rule="evenodd" d="M1315.86 185.558C1322.02 182.077 1327.9 179.509 1333.75 176.965C1338.83 183.443 1344.05 190.062 1349.41 196.751C1343.88 199.854 1338.11 203.457 1332.28 207.458C1326.89 200.055 1321.25 192.634 1315.86 185.558Z" fill="#1A1A1A"/>
<path fill-rule="evenodd" clip-rule="evenodd" d="M1336.3 176.253C1341.5 173.737 1346.62 171.372 1351.61 169.279C1356.03 174.859 1360.7 180.42 1365.32 185.982C1360.79 188.79 1355.99 191.813 1351.12 195.054C1346.12 188.685 1341.07 182.312 1336.31 176.253H1336.3Z" fill="#1A1A1A"/>
<path fill-rule="evenodd" clip-rule="evenodd" d="M1369.28 160.948C1373.4 159.449 1377 157.77 1380.58 156.117C1384.43 160.455 1388.43 165.012 1392.12 169.305C1388.87 171.402 1385.71 173.661 1381.83 175.649C1377.77 170.755 1373.57 165.811 1369.28 160.945V160.948Z" fill="#1A1A1A"/>
<path fill-rule="evenodd" clip-rule="evenodd" d="M1382.48 155.341C1385.95 153.695 1389.09 152.055 1392.18 150.842C1395.76 154.734 1399.08 158.524 1402.79 162.732C1399.96 164.572 1397.05 166.349 1394.04 168.386C1390.1 163.967 1386.4 159.617 1382.48 155.341Z" fill="#1A1A1A"/>
<path fill-rule="evenodd" clip-rule="evenodd" d="M1393.72 150.236C1396.53 148.91 1399.09 147.533 1401.74 146.383C1405.1 149.99 1408.45 153.529 1411.44 157.101C1409.26 158.713 1406.69 160.257 1404.15 161.915C1400.56 157.931 1397.12 154.072 1393.72 150.236H1393.72Z" fill="#1A1A1A"/>
<path fill-rule="evenodd" clip-rule="evenodd" d="M1403.67 145.88C1406.24 144.726 1408.54 143.639 1410.77 142.393C1413.44 145.279 1416.61 148.67 1419.32 151.774C1417.38 153.174 1415.19 154.568 1412.97 156.147C1409.97 152.66 1406.74 149.225 1403.67 145.88Z" fill="#1A1A1A"/>
<path fill-rule="evenodd" clip-rule="evenodd" d="M1412.01 141.763C1414.15 140.809 1416.29 139.866 1418.17 138.906C1420.78 141.685 1423.3 144.434 1425.9 147.15C1424.25 148.396 1422.35 149.546 1420.56 151.083C1417.73 147.882 1414.98 144.824 1412.01 141.766V141.763Z" fill="#1A1A1A"/>
<path fill-rule="evenodd" clip-rule="evenodd" d="M1418.72 138.374C1420.59 137.483 1422.21 136.488 1423.99 135.682C1426.26 138.004 1428.65 140.559 1431.07 143.068C1429.58 144.187 1428.14 145.451 1426.51 146.738C1423.97 143.943 1421.33 141.21 1418.72 138.374Z" fill="#1A1A1A"/>
<path fill-rule="evenodd" clip-rule="evenodd" d="M1424.77 134.898C1426.19 133.846 1427.6 132.857 1429 132.115C1431.32 134.55 1433.42 136.762 1435.53 139.019C1434.43 140.208 1433.2 141.312 1431.9 142.489C1429.48 139.892 1427.09 137.418 1424.77 134.896V134.898Z" fill="#1A1A1A"/>
<path fill-rule="evenodd" clip-rule="evenodd" d="M1429.82 131.583C1431.1 130.886 1432.32 130.154 1433.35 129.24C1435.32 131.32 1437.11 133.201 1439.22 135.453C1438.31 136.466 1437.39 137.455 1436.35 138.477C1434.24 136.281 1432.15 134.121 1429.82 131.583Z" fill="#1A1A1A"/>
<path fill-rule="evenodd" clip-rule="evenodd" d="M1233.93 123.934C1242.29 122.784 1250.25 121.802 1257.99 120.591C1262.81 126.382 1267.67 131.967 1272.78 137.78C1265.41 139.335 1257.57 140.803 1249.21 142.868C1244.08 136.39 1238.93 130.154 1233.92 123.934H1233.93Z" fill="#1A1A1A"/>
<path fill-rule="evenodd" clip-rule="evenodd" d="M1389.07 94.1164C1391.35 94.1338 1393.5 94.1382 1395.54 94.1731C1397.93 96.5689 1400.39 98.906 1402.7 101.232C1400.71 101.197 1398.98 101.531 1396.8 101.609C1394.29 99.0933 1391.73 96.5842 1389.07 94.1143L1389.07 94.1164Z" fill="#1A1A1A"/>
<path fill-rule="evenodd" clip-rule="evenodd" d="M1389.43 86.6738C1391.49 86.9243 1393.45 87.1138 1395.34 87.2684C1397.66 89.4465 1399.88 91.5396 1402.05 93.5957C1400.31 93.6066 1398.51 93.5848 1396.65 93.5107C1394.32 91.2935 1391.85 88.9542 1389.43 86.6738Z" fill="#1A1A1A"/>
<path fill-rule="evenodd" clip-rule="evenodd" d="M1238.41 69.2778C1245.62 69.6546 1252.47 69.9857 1258.99 70.295C1263.01 74.2852 1266.99 78.332 1271.09 82.1959C1264.57 82.2351 1258.04 82.1436 1251.02 82.0478C1246.95 77.7265 1242.64 73.5011 1238.41 69.2778H1238.41Z" fill="#1A1A1A"/>
<path fill-rule="evenodd" clip-rule="evenodd" d="M1098.41 235.639C1116.76 228.134 1133.59 221.497 1149.6 215.362C1155.84 226.897 1162.52 239.292 1168.61 252.572C1152.89 260.792 1136.42 269.138 1118.01 278.068C1111.79 263.638 1105.07 249.342 1098.41 235.639H1098.41Z" fill="#1A1A1A"/>
<path fill-rule="evenodd" clip-rule="evenodd" d="M1202.3 194.745C1213.91 190.428 1224.96 186.588 1235.2 182.809C1241.17 191.349 1247.25 200.403 1253.17 209.557C1243.37 214.571 1232.59 219.664 1221.56 224.815C1215.14 214.73 1208.73 204.35 1202.3 194.747L1202.3 194.745Z" fill="#1A1A1A"/>
<path fill-rule="evenodd" clip-rule="evenodd" d="M1272.75 170.529C1280.77 167.813 1288.09 165.332 1295.06 162.777C1300.11 169.002 1305.4 175.765 1310.47 182.717C1303.83 185.924 1296.57 189.326 1289.23 192.841C1283.93 185.118 1278.22 177.549 1272.74 170.529H1272.75Z" fill="#1A1A1A"/>
<path fill-rule="evenodd" clip-rule="evenodd" d="M1299.04 161.542C1305.68 159.312 1311.9 157.341 1317.87 155.54C1322.87 161.44 1327.71 167.43 1332.71 173.387C1327.04 175.811 1321.26 178.246 1315 181.275C1309.58 174.319 1304.39 167.619 1299.04 161.542Z" fill="#1A1A1A"/>
<path fill-rule="evenodd" clip-rule="evenodd" d="M1320.44 154.884C1325.97 153.1 1331.34 151.345 1336.6 149.561C1340.99 154.762 1345.37 159.874 1349.86 165.177C1345.01 167.349 1339.89 169.786 1334.68 172.134C1329.8 166.251 1324.98 160.438 1320.44 154.882L1320.44 154.884Z" fill="#1A1A1A"/>
<path fill-rule="evenodd" clip-rule="evenodd" d="M1340.08 148.504C1344.8 147.082 1349.42 145.714 1353.64 144.353C1358.05 149.269 1362.24 153.843 1366.37 158.759C1362.41 160.32 1358.15 162.091 1353.48 164.321C1349.08 158.726 1344.44 153.483 1340.08 148.504Z" fill="#1A1A1A"/>
<path fill-rule="evenodd" clip-rule="evenodd" d="M1355.71 143.913C1360 142.73 1363.84 141.376 1367.71 140.265C1371.49 144.353 1375.35 148.748 1378.94 153.006C1375.46 154.533 1371.87 156.23 1367.7 157.644C1363.84 153.224 1359.73 148.439 1355.71 143.913H1355.71Z" fill="#1A1A1A"/>
<path fill-rule="evenodd" clip-rule="evenodd" d="M1369.76 139.603C1373.46 138.607 1376.94 137.745 1380.22 136.784C1383.69 140.568 1387.26 144.29 1390.55 147.995C1387.54 149.138 1384.25 150.487 1380.97 152.105C1377.31 147.816 1373.55 143.737 1369.76 139.603Z" fill="#1A1A1A"/>
<path fill-rule="evenodd" clip-rule="evenodd" d="M1381.74 136.309C1384.87 135.447 1387.87 134.532 1390.73 133.53C1393.94 136.982 1397.17 140.424 1400.2 143.78C1397.67 144.991 1394.88 146.193 1392.02 147.32C1388.6 143.695 1385.22 139.969 1381.74 136.309H1381.74Z" fill="#1A1A1A"/>
<path fill-rule="evenodd" clip-rule="evenodd" d="M1392.7 133.184C1395.48 132.343 1397.94 131.396 1400.32 130.646C1403.26 133.602 1406.17 136.632 1409.03 139.57C1406.92 140.879 1404.5 142.062 1401.88 143.12C1398.8 139.736 1395.8 136.473 1392.7 133.184H1392.7Z" fill="#1A1A1A"/>
<path fill-rule="evenodd" clip-rule="evenodd" d="M1402.07 130.503C1404.37 129.708 1406.67 129.039 1408.89 128.427C1411.32 130.971 1414 133.75 1416.47 136.453C1414.47 137.277 1412.52 138.213 1410.38 139.128C1407.69 136.303 1404.9 133.463 1402.07 130.501V130.503Z" fill="#1A1A1A"/>
<path fill-rule="evenodd" clip-rule="evenodd" d="M1409.49 127.963C1411.41 127.179 1413.32 126.454 1415.27 125.809C1417.6 128.216 1420.1 130.908 1422.4 133.339C1420.67 134.208 1418.99 135.133 1417.19 136.026C1414.66 133.352 1412.04 130.721 1409.49 127.965L1409.49 127.963Z" fill="#1A1A1A"/>
<path fill-rule="evenodd" clip-rule="evenodd" d="M1416.16 125.267C1417.93 124.609 1419.51 124.028 1421.15 123.529C1423.42 125.774 1425.64 127.97 1427.82 130.309C1426.36 131.013 1424.94 131.864 1423.47 132.796C1421.05 130.322 1418.66 127.761 1416.16 125.267H1416.16Z" fill="#1A1A1A"/>
<path fill-rule="evenodd" clip-rule="evenodd" d="M1287.65 117.544C1293.92 116.903 1299.95 116.418 1305.73 115.784C1310.01 120.39 1314.37 125.108 1318.72 129.76C1313.14 130.697 1307.57 131.819 1301.31 133.086C1296.75 127.804 1292.24 122.551 1287.65 117.544Z" fill="#1A1A1A"/>
<path fill-rule="evenodd" clip-rule="evenodd" d="M1308.36 115.365C1313.81 114.679 1319.14 114.215 1323.93 113.577C1328.12 117.881 1332.26 122.283 1336.16 126.593C1331.42 127.512 1326.53 128.44 1321.25 129.285C1317.06 124.77 1312.64 119.957 1308.36 115.365Z" fill="#1A1A1A"/>
<path fill-rule="evenodd" clip-rule="evenodd" d="M1326.3 113.314C1331.28 112.834 1335.74 112.41 1340.06 111.994C1343.81 115.801 1347.74 119.883 1351.48 123.792C1347.32 124.576 1343.02 125.369 1338.49 126.33C1334.55 121.882 1330.39 117.491 1326.3 113.314Z" fill="#1A1A1A"/>
<path fill-rule="evenodd" clip-rule="evenodd" d="M1342.11 111.758C1346.34 111.353 1350.36 111.107 1354.2 110.752C1357.72 114.302 1361.45 118.229 1364.85 121.723C1361.19 122.339 1357.36 122.797 1353.43 123.415C1349.85 119.671 1345.85 115.59 1342.1 111.758H1342.11Z" fill="#1A1A1A"/>
<path fill-rule="evenodd" clip-rule="evenodd" d="M1356.08 110.615C1359.78 110.203 1363.25 109.7 1366.72 109.563C1369.99 112.815 1373.33 116.2 1376.63 119.697C1373.52 120.235 1370.2 120.852 1366.63 121.516C1363.19 117.84 1359.54 114.159 1356.08 110.615Z" fill="#1A1A1A"/>
<path fill-rule="evenodd" clip-rule="evenodd" d="M1368.33 109.506C1371.57 109.197 1374.56 108.912 1377.59 108.711C1380.77 111.793 1383.98 114.965 1386.75 117.909C1384.09 118.441 1381.25 118.99 1378.1 119.384C1374.91 115.971 1371.73 112.747 1368.34 109.506H1368.33Z" fill="#1A1A1A"/>
<path fill-rule="evenodd" clip-rule="evenodd" d="M1378.95 108.609C1381.85 108.313 1384.68 108.123 1387.21 107.849C1390.14 110.702 1393.02 113.645 1395.88 116.487C1393.49 117.047 1390.75 117.332 1388.18 117.711C1385.18 114.734 1382.2 111.691 1378.95 108.611V108.609Z" fill="#1A1A1A"/>
<path fill-rule="evenodd" clip-rule="evenodd" d="M1388.67 107.895C1391.25 107.666 1393.64 107.437 1395.92 107.226C1398.41 109.805 1401.03 112.399 1403.67 114.925C1401.5 115.291 1399.2 115.847 1397 116.337C1394.27 113.49 1391.54 110.787 1388.67 107.895Z" fill="#1A1A1A"/>
<path fill-rule="evenodd" clip-rule="evenodd" d="M1397.31 107.076C1399.51 106.921 1401.48 106.664 1403.49 106.566C1405.89 108.846 1408.3 111.218 1410.72 113.625C1408.86 113.969 1407.11 114.385 1405.13 114.712C1402.55 112.179 1399.86 109.589 1397.31 107.073V107.076Z" fill="#1A1A1A"/>
<path fill-rule="evenodd" clip-rule="evenodd" d="M1404.65 106.361C1406.54 106.133 1408.2 105.928 1409.97 105.773C1412.27 108.014 1414.57 110.186 1416.84 112.519C1415.28 112.895 1413.61 113.17 1411.88 113.61C1409.51 111.186 1407.04 108.744 1404.65 106.361H1404.65Z" fill="#1A1A1A"/>
<path fill-rule="evenodd" clip-rule="evenodd" d="M1410.71 105.732C1412.31 105.468 1413.68 105.131 1415.09 104.863C1417.17 106.938 1419.31 109.042 1421.23 110.992C1419.98 111.364 1418.56 111.724 1417.24 112.164C1415.09 110.014 1412.84 107.831 1410.71 105.732Z" fill="#1A1A1A"/>
<path fill-rule="evenodd" clip-rule="evenodd" d="M1416 104.68C1417.24 104.434 1418.59 104.36 1419.72 104.057C1421.68 105.995 1423.66 107.916 1425.47 109.768C1424.46 110.11 1423.44 110.482 1422.25 110.802C1420.27 108.859 1418.13 106.847 1416 104.68H1416Z" fill="#1A1A1A"/>
<path fill-rule="evenodd" clip-rule="evenodd" d="M1430.12 105.847C1430.51 105.521 1430.83 105.013 1431.1 104.652C1432.41 106.035 1433.71 107.252 1434.8 108.476C1434.82 109.077 1434.61 109.609 1434.35 110.123C1432.92 108.705 1431.6 107.35 1430.13 105.847H1430.12Z" fill="#1A1A1A"/>
<path fill-rule="evenodd" clip-rule="evenodd" d="M1404.66 94.5562C1401.53 93.8941 1398.46 93.2298 1394.94 92.5328C1394.11 92.1102 1393.33 91.9164 1392.33 91.5439C1396.07 92.4587 1399.48 93.184 1402.77 93.9616C1403.54 94.4821 1404.05 94.2426 1404.66 94.5562Z" fill="#1A1A1A"/>
<path fill-rule="evenodd" clip-rule="evenodd" d="M1383.39 91.0649C1378.97 90.6816 1374.49 90.6925 1369.62 90.4703C1368.71 90.3854 1367.67 90.3091 1366.61 89.9846C1371.69 90.4703 1376.35 90.3614 1380.85 90.6315C1381.91 91.0257 1382.72 90.8841 1383.39 91.0671V91.0649Z" fill="#1A1A1A"/>
<path fill-rule="evenodd" clip-rule="evenodd" d="M1294.73 100.267C1300.37 99.9077 1305.97 99.7073 1311.02 99.3806C1315.08 103.438 1319.08 107.566 1322.99 111.767C1317.99 112.27 1312.66 112.756 1307.36 113.372C1303.17 108.851 1298.85 104.364 1294.73 100.265L1294.73 100.267Z" fill="#1A1A1A"/>
<path fill-rule="evenodd" clip-rule="evenodd" d="M1313.48 99.2391C1318.53 99.1585 1323.32 99.0562 1327.82 98.8623C1331.48 102.613 1335.49 106.54 1339.03 110.284C1334.77 110.702 1330.15 111.027 1325.37 111.417C1321.5 107.328 1317.43 103.197 1313.48 99.2413V99.2391Z" fill="#1A1A1A"/>
<path fill-rule="evenodd" clip-rule="evenodd" d="M1329.99 98.8449C1334.45 98.736 1338.64 98.7425 1342.77 98.6445C1346.28 101.988 1349.78 105.545 1353.18 109.208C1349.3 109.419 1345.28 109.7 1341.1 110.19C1337.62 106.464 1333.66 102.519 1329.99 98.8427L1329.99 98.8449Z" fill="#1A1A1A"/>
<path fill-rule="evenodd" clip-rule="evenodd" d="M1344.7 98.5248C1348.63 98.4442 1352.3 98.5139 1355.86 98.3984C1359.23 101.628 1362.5 104.848 1365.68 108.043C1362.33 108.191 1358.82 108.614 1355.06 109.021C1351.64 105.523 1348.14 101.909 1344.7 98.5248Z" fill="#1A1A1A"/>
<path fill-rule="evenodd" clip-rule="evenodd" d="M1357.58 98.3179C1361.11 98.3854 1364.18 98.2199 1367.39 98.2504C1370.57 101.315 1373.65 104.264 1376.64 107.265C1373.67 107.533 1370.57 107.786 1367.29 107.991C1364.11 104.739 1360.88 101.663 1357.58 98.3179Z" fill="#1A1A1A"/>
<path fill-rule="evenodd" clip-rule="evenodd" d="M1368.87 98.1413C1372.02 98.1064 1374.87 98.0955 1377.72 97.9932C1380.64 100.816 1383.47 103.606 1386.31 106.453C1383.76 106.945 1381 107.069 1378.11 107.269C1375.01 104.188 1372.1 101.21 1368.86 98.1413H1368.87Z" fill="#1A1A1A"/>
<path fill-rule="evenodd" clip-rule="evenodd" d="M1379.05 98.0259C1381.71 98.0259 1384.42 98.1457 1386.72 98.0825C1389.39 100.581 1392.12 103.255 1394.83 105.817C1392.5 105.954 1390.12 106.148 1387.59 106.446C1384.87 103.617 1381.92 100.844 1379.05 98.0259Z" fill="#1A1A1A"/>
<path fill-rule="evenodd" clip-rule="evenodd" d="M1280.59 85.2168C1286.53 85.28 1292.26 85.3649 1297.61 85.4978C1301.51 89.4139 1305.4 93.1798 1309.25 97.0632C1303.99 97.2396 1298.45 97.5032 1292.89 97.7428C1288.73 93.5304 1284.54 89.2593 1280.59 85.219V85.2168Z" fill="#1A1A1A"/>
<path fill-rule="evenodd" clip-rule="evenodd" d="M1300.1 85.6741C1305.33 85.6915 1310.38 85.9202 1315.09 86.0748C1318.78 89.6708 1322.51 93.2668 1326.09 96.8388C1321.52 96.793 1316.61 96.8671 1311.68 97.0958C1307.9 93.123 1304.04 89.4007 1300.1 85.6741Z" fill="#1A1A1A"/>
<path fill-rule="evenodd" clip-rule="evenodd" d="M1317.46 86.1143C1322.09 86.2057 1326.58 86.3887 1330.81 86.5782C1334.19 89.8257 1337.63 93.1755 1341.07 96.6974C1337.01 96.7257 1332.75 96.8063 1328.37 96.8738C1324.79 93.2496 1321.07 89.5861 1317.47 86.1143H1317.46Z" fill="#1A1A1A"/>
<path fill-rule="evenodd" clip-rule="evenodd" d="M1332.76 86.5999C1336.97 86.8394 1340.61 86.9135 1344.45 87.1313C1347.86 90.3047 1350.96 93.3518 1354.24 96.5231C1350.58 96.5405 1346.85 96.5013 1342.86 96.5797C1339.64 93.2081 1336.2 89.8582 1332.76 86.5999Z" fill="#1A1A1A"/>
<path fill-rule="evenodd" clip-rule="evenodd" d="M1346.42 87.2969C1349.92 87.3644 1353.35 87.4624 1356.76 87.6628C1359.92 90.7099 1362.94 93.6023 1365.87 96.4491C1362.82 96.6037 1359.53 96.6255 1355.95 96.5471C1352.79 93.3628 1349.62 90.3788 1346.42 87.2969Z" fill="#1A1A1A"/>
<path fill-rule="evenodd" clip-rule="evenodd" d="M1358.44 87.7151C1361.77 87.9438 1364.71 88.0701 1367.52 88.1834C1370.5 90.9321 1373.55 93.7047 1376.28 96.3924C1373.5 96.4382 1370.58 96.5297 1367.39 96.4491C1364.45 93.6132 1361.48 90.7273 1358.44 87.7151Z" fill="#1A1A1A"/>
<path fill-rule="evenodd" clip-rule="evenodd" d="M1369.28 88.5144C1372.24 88.7605 1374.87 88.8977 1377.54 89.0567C1380.27 91.6399 1383.12 94.3037 1385.76 96.9696C1383.24 96.7758 1380.59 96.7409 1377.83 96.6276C1375.09 94.0488 1372.36 91.4722 1369.28 88.5166V88.5144Z" fill="#1A1A1A"/>
<path fill-rule="evenodd" clip-rule="evenodd" d="M1287.53 73.1133C1292.96 73.4226 1298.1 73.6338 1303.07 74.039C1306.75 77.5543 1310.31 80.9564 1313.91 84.6199C1309 84.2889 1304.1 84.254 1298.78 84.0994C1295.17 80.4294 1291.4 76.7659 1287.53 73.1133H1287.53Z" fill="#1A1A1A"/>
<path fill-rule="evenodd" clip-rule="evenodd" d="M1305.56 74.3896C1310.42 74.6118 1314.89 75.03 1319.4 75.5048C1322.83 78.6608 1326.15 81.8778 1329.55 85.1536C1325.17 84.7877 1320.9 84.7768 1316.16 84.6287C1312.59 81.1351 1309.01 77.5805 1305.56 74.3896Z" fill="#1A1A1A"/>
<path fill-rule="evenodd" clip-rule="evenodd" d="M1321.48 75.6812C1325.77 76.0122 1329.74 76.4348 1333.76 76.8704C1337.01 79.8195 1340.16 82.8905 1343.43 85.9703C1339.56 85.576 1335.75 85.4955 1331.49 85.1818C1328.3 82.0955 1324.91 78.9112 1321.48 75.6812Z" fill="#1A1A1A"/>
<path fill-rule="evenodd" clip-rule="evenodd" d="M1335.72 77.012C1339.51 77.3496 1343.07 77.5543 1346.61 77.8919C1349.67 80.7495 1352.64 83.5744 1355.67 86.4712C1352.27 86.2948 1348.9 86.1445 1345.13 85.9746C1341.91 82.9341 1338.92 79.9785 1335.72 77.012Z" fill="#1A1A1A"/>
<path fill-rule="evenodd" clip-rule="evenodd" d="M1348.37 78.1055C1351.57 78.3167 1354.76 78.6195 1358.03 79.0834C1360.91 81.7123 1363.79 84.4523 1366.59 87.0747C1363.61 86.9309 1360.52 86.6347 1357.35 86.5541C1354.25 83.6551 1351.27 80.9064 1348.37 78.1055Z" fill="#1A1A1A"/>
<path fill-rule="evenodd" clip-rule="evenodd" d="M1367.82 81.1287C1370.64 81.4772 1373.33 81.7973 1375.81 82.0151C1378.35 84.3522 1381.06 86.8286 1383.68 89.2876C1381.19 89.0655 1378.63 89.0067 1376.07 88.8477C1373.48 86.2972 1370.67 83.7205 1367.82 81.1308V81.1287Z" fill="#1A1A1A"/>
<path fill-rule="evenodd" clip-rule="evenodd" d="M1377.32 82.1458C1379.73 82.357 1382.03 82.5117 1384.26 82.7926C1386.6 85.0447 1388.96 87.1487 1391.2 89.3486C1389.23 89.3203 1386.98 89.1591 1384.83 89.0916C1382.42 86.8503 1379.82 84.4087 1377.32 82.1458Z" fill="#1A1A1A"/>
<path fill-rule="evenodd" clip-rule="evenodd" d="M1293.4 63.1443C1298.29 63.7215 1303 64.2769 1307.75 64.8432C1311.11 67.9752 1314.4 71.0114 1317.85 74.1957C1313.19 73.5902 1308.82 73.3267 1303.84 72.7887C1300.43 69.4911 1296.89 66.3852 1293.4 63.1443Z" fill="#1A1A1A"/>
<path fill-rule="evenodd" clip-rule="evenodd" d="M1309.93 65.072C1314.28 65.5468 1318.65 66.1632 1322.81 66.6838C1325.89 69.5936 1329.1 72.5318 1332.32 75.5441C1328.25 75.0932 1324.32 74.7774 1319.93 74.4115C1316.48 71.1771 1313.19 68.1692 1309.93 65.0698V65.072Z" fill="#1A1A1A"/>
<path fill-rule="evenodd" clip-rule="evenodd" d="M1324.8 66.9167C1328.66 67.3567 1332.45 67.8773 1336.33 68.461C1339.29 71.2402 1342.12 73.7841 1345.21 76.6309C1341.67 76.2933 1338.06 76.0079 1334.26 75.7553C1331.11 72.7256 1327.84 69.7177 1324.8 66.9167Z" fill="#1A1A1A"/>
<path fill-rule="evenodd" clip-rule="evenodd" d="M1338.02 68.7246C1341.45 69.2495 1344.88 69.7026 1348.14 70.1425C1350.97 72.7388 1353.92 75.3437 1356.73 77.9007C1353.5 77.5697 1350.33 77.2212 1346.98 76.8422C1343.88 74.0347 1340.94 71.3775 1338.02 68.7246Z" fill="#1A1A1A"/>
<path fill-rule="evenodd" clip-rule="evenodd" d="M1358.63 72.3772C1361.58 72.852 1364.31 73.1787 1366.88 73.5098C1369.53 75.9383 1372.2 78.3298 1374.72 80.7758C1372.19 80.5122 1369.61 80.2509 1366.74 79.8849C1364.08 77.4041 1361.42 74.9691 1358.63 72.3794V72.3772Z" fill="#1A1A1A"/>
<path fill-rule="evenodd" clip-rule="evenodd" d="M1368.78 74.2395C1371.39 74.588 1373.72 74.9539 1376.09 75.3939C1378.56 77.5937 1380.98 79.7717 1383.57 82.1153C1381.35 81.8235 1378.94 81.6405 1376.53 81.4401C1374.01 79.0268 1371.44 76.6375 1368.78 74.2373L1368.78 74.2395Z" fill="#1A1A1A"/>
<path fill-rule="evenodd" clip-rule="evenodd" d="M1282.92 51.5725C1288.07 52.3805 1292.93 53.1015 1297.61 53.9095C1300.97 56.7062 1304.16 59.5812 1307.61 62.7306C1302.89 62.0097 1298.13 61.4957 1293.27 60.8662C1289.8 57.6601 1286.38 54.6174 1282.92 51.5703L1282.92 51.5725Z" fill="#1A1A1A"/>
<path fill-rule="evenodd" clip-rule="evenodd" d="M1299.83 54.1426C1304.44 54.9354 1308.83 55.554 1313.15 56.301C1316.13 59.0737 1319.26 61.7483 1322.44 64.6539C1318.25 64.0484 1313.93 63.5169 1309.56 62.8526C1306.36 59.9427 1303.16 57.1069 1299.83 54.1426Z" fill="#1A1A1A"/>
<path fill-rule="evenodd" clip-rule="evenodd" d="M1287.9 43.8381C1292.59 44.6636 1297.08 45.5697 1301.46 46.3886C1304.62 49.1831 1307.71 51.8643 1310.8 54.5541C1306.66 53.8441 1302.16 53.158 1297.45 52.3565C1294.33 49.5838 1291.08 46.7175 1287.9 43.8381H1287.9Z" fill="#1A1A1A"/>
<path fill-rule="evenodd" clip-rule="evenodd" d="M1236.96 46.772C1243.7 47.702 1249.97 48.5667 1255.94 49.1874C1259.91 52.6092 1263.55 56.1202 1267.07 59.4134C1261.27 58.9277 1255.1 58.2307 1248.56 57.5272C1244.84 53.9748 1240.97 50.3745 1236.97 46.7741L1236.96 46.772Z" fill="#1A1A1A"/>
<path fill-rule="evenodd" clip-rule="evenodd" d="M1418.78 113.163C1420.21 112.769 1421.52 112.351 1422.77 112.013C1424.71 113.934 1426.72 115.895 1428.62 118.051C1427.65 118.554 1426.51 119.16 1425.31 119.708C1423.23 117.611 1421 115.318 1418.78 113.163Z" fill="#1A1A1A"/>
<path fill-rule="evenodd" clip-rule="evenodd" d="M1413.42 114.518C1415.09 114.124 1416.65 113.695 1418.14 113.307C1420.43 115.616 1422.6 117.835 1424.68 119.944C1423.47 120.606 1422.14 121.224 1420.69 121.858C1418.33 119.406 1415.86 116.897 1413.42 114.518Z" fill="#1A1A1A"/>
<path fill-rule="evenodd" clip-rule="evenodd" d="M1407.19 115.932C1409.11 115.59 1410.86 115.115 1412.55 114.634C1415.11 117.223 1417.57 119.676 1419.87 122.072C1418.3 122.581 1416.72 123.18 1414.84 123.655C1412.31 121.072 1409.68 118.476 1407.19 115.932H1407.19Z" fill="#1A1A1A"/>
<path fill-rule="evenodd" clip-rule="evenodd" d="M1399.24 117.519C1401.49 117.034 1403.67 116.52 1405.84 116.176C1408.4 118.709 1411.07 121.549 1413.66 124.23C1411.7 124.761 1409.8 125.539 1407.83 126.31C1405.02 123.291 1402.06 120.423 1399.24 117.517V117.519Z" fill="#1A1A1A"/>
<path fill-rule="evenodd" clip-rule="evenodd" d="M1390.6 118.948C1393.23 118.554 1395.85 118.16 1398.05 117.657C1400.93 120.514 1403.89 123.42 1406.75 126.415C1404.53 127.14 1402.18 127.769 1399.76 128.456C1396.86 125.345 1393.8 122.202 1390.6 118.948Z" fill="#1A1A1A"/>
<path fill-rule="evenodd" clip-rule="evenodd" d="M1380.75 120.83C1383.78 120.362 1386.56 119.835 1389.21 119.275C1392.53 122.642 1395.64 125.877 1398.54 128.941C1396.1 129.638 1393.46 130.507 1390.75 131.324C1387.35 127.728 1384.21 124.424 1380.75 120.828V120.83Z" fill="#1A1A1A"/>
<path fill-rule="evenodd" clip-rule="evenodd" d="M1369.62 123.167C1373.07 122.579 1376.27 121.915 1379.39 121.281C1382.73 124.831 1386.05 128.249 1389.39 131.781C1386.53 132.714 1383.47 133.622 1380.34 134.537C1376.8 130.677 1373.12 126.809 1369.62 123.167Z" fill="#1A1A1A"/>
<path fill-rule="evenodd" clip-rule="evenodd" d="M1355.55 125.208C1359.51 124.419 1363.29 123.829 1366.81 123.315C1370.43 126.918 1374.09 130.86 1377.69 134.709C1374.36 135.504 1370.76 136.36 1367.17 137.544C1363.22 133.206 1359.46 129.176 1355.55 125.208H1355.55Z" fill="#1A1A1A"/>
<path fill-rule="evenodd" clip-rule="evenodd" d="M1341.08 127.769C1345.54 126.9 1349.93 125.918 1353.78 125.158C1357.72 129.303 1361.72 133.389 1365.49 137.625C1361.69 138.786 1357.67 140.054 1353.28 141.09C1349.26 136.619 1345.21 132.28 1341.08 127.772V127.769Z" fill="#1A1A1A"/>
<path fill-rule="evenodd" clip-rule="evenodd" d="M1323.88 130.84C1329.04 129.943 1334.16 129.166 1338.58 127.891C1342.74 132.483 1347 137.113 1350.95 141.622C1346.56 142.892 1341.95 144.183 1337.07 145.412C1332.61 140.404 1328.34 135.665 1323.88 130.84H1323.88Z" fill="#1A1A1A"/>
<path fill-rule="evenodd" clip-rule="evenodd" d="M1304.39 134.961C1310.46 133.709 1316.03 132.589 1321.27 131.4C1325.77 136.344 1330.32 141.284 1334.76 146.435C1329.29 147.949 1324.25 149.837 1318.46 151.316C1313.68 145.817 1308.95 140.341 1304.39 134.961Z" fill="#1A1A1A"/>
<path fill-rule="evenodd" clip-rule="evenodd" d="M1281.87 140.117C1288.96 138.727 1295.25 137.414 1301.58 136.035C1306.31 141.465 1311.03 146.993 1315.76 152.397C1309.84 154.353 1303.57 156.267 1297 158.227C1291.79 151.887 1286.85 145.926 1281.87 140.117Z" fill="#1A1A1A"/>
<path fill-rule="evenodd" clip-rule="evenodd" d="M1047.43 108.729C1051.89 105.161 1056.26 101.561 1060.26 98.2742C1066.71 101.927 1073.13 105.329 1079.62 109.186C1076 112.965 1072.42 116.927 1068.08 120.98C1061.09 116.846 1054.1 112.736 1047.43 108.729H1047.43Z" fill="#1A1A1A"/>
<path fill-rule="evenodd" clip-rule="evenodd" d="M1266.43 101.406C1268.2 99.618 1269.94 97.954 1271.74 96.5295C1274.26 98.2894 1276.87 100.165 1279.46 101.949C1277.85 103.641 1276.34 105.46 1274.71 107.505C1271.93 105.425 1269.15 103.36 1266.42 101.406H1266.43Z" fill="#1A1A1A"/>
<path fill-rule="evenodd" clip-rule="evenodd" d="M1336.72 35.3438C1337.41 34.2896 1338.04 33.1918 1338.63 32.0919C1340.89 33.9629 1343.3 35.9885 1345.68 37.9618C1345.31 39.2272 1344.78 40.3838 1344.19 41.6231C1341.71 39.5387 1339.19 37.4194 1336.72 35.3438H1336.72Z" fill="#1A1A1A"/>
<path fill-rule="evenodd" clip-rule="evenodd" d="M969.528 218.222C975.108 213.855 980.371 209.671 985.483 205.988C992.139 208.035 998.671 210.459 1005.52 212.772C1000.55 216.797 995.663 221.147 990.637 225.834C983.488 223.146 976.175 220.724 969.525 218.219L969.528 218.222Z" fill="#1A1A1A"/>
<path fill-rule="evenodd" clip-rule="evenodd" d="M1320.79 49.5099C1321.34 48.9066 1321.77 48.3185 1322.2 47.7522C1323.67 48.8194 1325.15 49.8671 1326.58 50.9125C1326.25 51.5594 1325.91 52.3196 1325.52 52.9556C1323.94 51.8121 1322.42 50.6773 1320.79 49.5077V49.5099Z" fill="#1A1A1A"/>
<path fill-rule="evenodd" clip-rule="evenodd" d="M1270.14 21.9073C1271.46 21.3432 1272.72 20.8445 1273.96 20.3849C1275.83 21.659 1277.71 22.9768 1279.62 24.3664C1278.58 24.9958 1277.43 25.5556 1276.12 26.2787C1274.17 24.7562 1272.15 23.334 1270.14 21.9095V21.9073Z" fill="#1A1A1A"/>
<path fill-rule="evenodd" clip-rule="evenodd" d="M988.204 73.5946C993.459 71.434 998.343 69.5478 1002.99 67.7705C1008.99 70.2578 1014.67 72.6406 1020.11 75.1672C1015.92 77.2603 1011.5 79.4035 1006.56 82.0389C1000.21 79.0833 994.049 76.1517 988.204 73.5946Z" fill="#1A1A1A"/>
<path fill-rule="evenodd" clip-rule="evenodd" d="M1291.62 18.5401C1292.42 18.1633 1293.02 17.6688 1293.66 17.2964C1295.18 18.2939 1296.64 19.42 1298.11 20.5068C1297.57 20.9838 1297.07 21.5479 1296.43 21.9836C1294.96 20.8662 1293.29 19.6835 1291.62 18.5401Z" fill="#1A1A1A"/>
<path fill-rule="evenodd" clip-rule="evenodd" d="M1325.03 10.3114C1325.45 10.0021 1325.91 9.76469 1326.33 9.47937C1327.43 10.331 1328.64 11.2109 1329.69 12.0233C1329.33 12.3544 1329.01 12.6898 1328.69 13.0732C1327.48 12.1649 1326.23 11.2392 1325.03 10.3114Z" fill="#1A1A1A"/>
<path fill-rule="evenodd" clip-rule="evenodd" d="M1405.67 94.1795C1405.85 93.7221 1406.09 93.2647 1406.21 92.8247C1407.09 93.4258 1407.91 94.1119 1408.79 94.7392C1408.72 95.2707 1408.6 95.7738 1408.48 96.2769C1407.49 95.5734 1406.61 94.8764 1405.67 94.1795Z" fill="#1A1A1A"/>
<path fill-rule="evenodd" clip-rule="evenodd" d="M965.492 144.497C969.233 142.709 972.26 141.021 975.454 139.405C980.144 140.731 984.635 141.931 989.11 143.229C986.365 144.887 983.257 146.819 979.967 148.648C975.065 147.315 970.263 145.865 965.492 144.497Z" fill="#1A1A1A"/>
<path fill-rule="evenodd" clip-rule="evenodd" d="M1240.76 13.2561C1242.07 12.8684 1243.41 12.6027 1244.55 12.2063C1246.37 13.3977 1248.3 14.6348 1250.03 15.7827C1248.93 16.2662 1247.9 16.6778 1246.68 17.1309C1244.87 15.8829 1242.74 14.5063 1240.76 13.2561Z" fill="#1A1A1A"/>
<path fill-rule="evenodd" clip-rule="evenodd" d="M1309.87 19.8839C1310.63 19.6443 1311.38 19.4744 1312.07 19.261C1313.25 20.1061 1314.58 21.0339 1315.81 21.8703C1315.11 22.1186 1314.46 22.3495 1313.76 22.6021C1312.43 21.6786 1311.2 20.8096 1309.87 19.8839H1309.87Z" fill="#1A1A1A"/>
<path fill-rule="evenodd" clip-rule="evenodd" d="M1437.53 117.498C1437.75 117.149 1437.91 116.875 1438.12 116.526C1438.82 117.001 1439.51 117.48 1440.14 117.927C1439.99 118.286 1439.89 118.624 1439.67 118.916C1438.98 118.465 1438.22 117.979 1437.53 117.498Z" fill="#1A1A1A"/>
<path fill-rule="evenodd" clip-rule="evenodd" d="M1327.71 39.3164C1328.46 39.0681 1329.17 38.7828 1329.87 38.5999C1330.98 39.3513 1332.19 40.1572 1333.36 40.9064C1332.66 41.1547 1331.96 41.4161 1331.3 41.7123C1330.14 40.9217 1328.92 40.1267 1327.71 39.3164Z" fill="#1A1A1A"/>
<path fill-rule="evenodd" clip-rule="evenodd" d="M1209.96 49.7102C1211.6 49.2811 1213.17 48.8434 1214.69 48.4382C1216.68 49.512 1218.62 50.5335 1220.72 51.6574C1219.17 52.0124 1217.64 52.4981 1216.12 52.949C1214.14 51.8425 1211.97 50.7448 1209.96 49.7102Z" fill="#1A1A1A"/>
<path fill-rule="evenodd" clip-rule="evenodd" d="M1346.03 56.325C1346.74 56.0788 1347.45 55.7543 1348.09 55.4951C1349.18 56.2204 1350.16 56.8847 1351.19 57.5926C1350.6 57.867 1350.01 58.1763 1349.36 58.5074C1348.27 57.7538 1347.17 57.096 1346.03 56.3228V56.325Z" fill="#1A1A1A"/>
<path fill-rule="evenodd" clip-rule="evenodd" d="M1337.12 27.494C1337.74 27.335 1338.34 27.274 1338.95 27.1608C1339.84 27.7706 1340.78 28.4524 1341.68 29.0252C1341.18 29.1341 1340.57 29.2909 1340.06 29.4651C1339.06 28.7791 1338.12 28.1169 1337.12 27.4962V27.494Z" fill="#1A1A1A"/>
<path fill-rule="evenodd" clip-rule="evenodd" d="M886 184.628C890.992 183.125 896.27 181.341 901.605 179.792C906.547 180.851 911.884 181.604 916.902 182.53C912.105 183.998 906.91 185.719 902.111 187.424C896.504 186.481 891.318 185.612 886 184.63V184.628Z" fill="#1A1A1A"/>
<path fill-rule="evenodd" clip-rule="evenodd" d="M1429.14 114.32C1429.48 114.07 1429.82 113.81 1430.04 113.571C1430.66 113.972 1431.35 114.429 1431.92 114.795C1431.7 115.063 1431.43 115.291 1431.15 115.579C1430.46 115.115 1429.83 114.727 1429.14 114.322V114.32Z" fill="#1A1A1A"/>
<path fill-rule="evenodd" clip-rule="evenodd" d="M1132.53 87.6236C1135.02 87.0181 1137.68 86.6565 1140.21 86.1077C1142.71 86.9767 1144.99 87.7368 1147.22 88.6298C1144.92 89.0524 1142.43 89.647 1139.83 90.2416C1137.39 89.3442 1134.9 88.4817 1132.53 87.6236H1132.53Z" fill="#1A1A1A"/>
<path fill-rule="evenodd" clip-rule="evenodd" d="M1141.01 132.748C1143.26 131.348 1145.48 129.954 1147.71 128.741C1150.83 129.941 1154.01 131.352 1157.22 132.713C1155.15 134.097 1153.08 135.445 1151 137.017C1147.52 135.44 1144.23 134.118 1141.01 132.746V132.748Z" fill="#1A1A1A"/>
<path fill-rule="evenodd" clip-rule="evenodd" d="M1436.23 125.739C1436.44 125.123 1436.6 124.494 1436.75 123.956C1437.63 124.585 1438.57 125.282 1439.51 126.007C1439.41 126.637 1439.32 127.351 1439.17 127.996C1438.22 127.253 1437.23 126.497 1436.23 125.737V125.739Z" fill="#1A1A1A"/>
<path fill-rule="evenodd" clip-rule="evenodd" d="M1195.31 77.0251C1197.33 75.8707 1199.19 74.8405 1200.92 73.8364C1203.58 75.311 1206.35 76.877 1209.12 78.4713C1207.38 79.5407 1205.83 80.8258 1203.89 81.9301C1200.94 80.2769 1198.13 78.6325 1195.31 77.0251Z" fill="#1A1A1A"/>
</g>
<g clip-path="url(#clip2_181_358)">
<path fill-rule="evenodd" clip-rule="evenodd" d="M116.016 4.90451C116.364 4.40602 116.867 4.58729 116.554 2.43017C115.382 -1.10278 116.875 3.09362 116.736 2.49362C116.563 3.53592 115.924 3.02836 115.532 2.97217C115.652 3.43985 115.814 4.19393 116.016 4.90451Z" fill="#1A1A1A"/>
<path fill-rule="evenodd" clip-rule="evenodd" d="M41.6072 221.082C38.8975 216.577 36.6872 211.623 34.5187 207.204C33.3652 208.984 30.0597 228.461 25.4932 259H35.3733C38.3654 236.582 40.5904 222.681 41.6072 221.082Z" fill="#1A1A1A"/>
<path fill-rule="evenodd" clip-rule="evenodd" d="M33.1466 208.161C30.9563 203.979 28.9208 199.997 26.8617 196.971C25.741 198.594 21.7412 222.467 16.2417 259H25.1725C29.1686 229.013 32.0733 209.878 33.1466 208.161Z" fill="#1A1A1A"/>
<path fill-rule="evenodd" clip-rule="evenodd" d="M25.8756 195.757C24.0297 193.126 22.2676 190.629 20.5274 188.254C18.4664 200.172 16.38 211.933 14.3773 223.622C12.3401 235.491 10.3301 247.301 8.37305 258.975L8.50425 258.998H16.533C19.5251 238.226 22.7031 217.074 25.8756 195.755V195.757Z" fill="#1A1A1A"/>
<path fill-rule="evenodd" clip-rule="evenodd" d="M19.8041 187.018C18.2624 184.558 16.7919 182.37 15.3924 180.309C12.7393 193.393 10.0897 206.334 7.53859 219.026C4.96377 231.848 2.43633 244.522 0 256.95V257.459C2.31424 257.896 4.69226 258.329 7.13405 258.725C9.12576 246.958 11.2323 235.007 13.357 222.953C15.4453 211.101 17.6684 199.136 19.8041 187.018Z" fill="#1A1A1A"/>
<path fill-rule="evenodd" clip-rule="evenodd" d="M14.6963 179.395C13.377 177.425 12.3384 175.436 11.42 173.324C8.19095 187.393 4.92368 201.338 1.90059 215.064L0 223.694V251.503C2.15753 240.646 4.39706 229.632 6.66027 218.504C9.26971 205.659 11.9684 192.57 14.6982 179.397L14.6963 179.395Z" fill="#1A1A1A"/>
<path fill-rule="evenodd" clip-rule="evenodd" d="M10.7475 172.527C9.62869 170.758 8.62464 169.077 7.73904 167.227C5.13871 177.769 2.54566 188.221 0 198.57V219.447L1.09334 214.6C4.19661 200.83 7.44201 186.753 10.7475 172.529V172.527Z" fill="#1A1A1A"/>
<path fill-rule="evenodd" clip-rule="evenodd" d="M7.24339 166.456C6.35778 164.995 5.7528 163.278 5.15146 161.571C3.41487 168.075 1.69832 174.541 0 180.963V195.57C2.39806 185.97 4.83257 176.259 7.24339 166.458V166.456Z" fill="#1A1A1A"/>
<path fill-rule="evenodd" clip-rule="evenodd" d="M4.50457 161.112C3.90505 159.628 3.36385 158.105 2.97936 156.635L0 167.236V178.03C1.48694 172.422 2.98847 166.779 4.50457 161.112Z" fill="#1A1A1A"/>
<path fill-rule="evenodd" clip-rule="evenodd" d="M2.73518 155.469C2.25411 154.037 1.87326 152.667 1.54161 151.44L0 156.706V165.175L2.73518 155.469Z" fill="#1A1A1A"/>
<path fill-rule="evenodd" clip-rule="evenodd" d="M1.43592 150.675C1.15894 149.377 1.03503 148.072 0.860095 146.812L0 149.667V155.547L1.43592 150.675Z" fill="#1A1A1A"/>
<path fill-rule="evenodd" clip-rule="evenodd" d="M0.789028 146.335C0.666938 145.093 0.748939 143.699 0.876495 142.376L0 145.202V148.942L0.789028 146.335Z" fill="#1A1A1A"/>
<path fill-rule="evenodd" clip-rule="evenodd" d="M0.927518 141.468C0.940274 140.417 1.16076 139.19 1.38125 137.89L0 142.324V144.446L0.927518 141.468Z" fill="#1A1A1A"/>
<path fill-rule="evenodd" clip-rule="evenodd" d="M1.40325 137.558C1.61099 136.45 1.96086 135.385 2.36357 134.176L0.00195312 141.778V142.03L1.40507 137.558H1.40325Z" fill="#1A1A1A"/>
<path fill-rule="evenodd" clip-rule="evenodd" d="M2.59304 133.461C3.0814 132.41 3.62078 131.259 3.99799 130.36C2.66958 134.665 1.33388 138.97 0 143.266V141.802C0.871029 139.023 1.73841 136.246 2.59304 133.461Z" fill="#1A1A1A"/>
<path fill-rule="evenodd" clip-rule="evenodd" d="M4.41332 129.675C4.98551 128.676 5.7472 127.552 6.50525 126.491C4.33315 133.599 2.15557 140.703 -0.00195312 147.787V143.98C1.47406 139.213 2.95189 134.437 4.4115 129.675H4.41332Z" fill="#1A1A1A"/>
<path fill-rule="evenodd" clip-rule="evenodd" d="M117.662 259C112.408 253.895 107.415 249.146 102.677 244.299C99.7618 249.09 96.7132 254.033 93.6719 259H117.662Z" fill="#1A1A1A"/>
<path fill-rule="evenodd" clip-rule="evenodd" d="M99.9734 241.85C94.5504 236.151 89.5192 231.427 84.785 227.064C79.4368 234.434 74.4803 241.589 69.2505 249.519C71.5884 252.384 73.9755 255.599 76.4738 259.002H89.2514C92.8521 253.116 96.4237 247.426 99.9734 241.85Z" fill="#1A1A1A"/>
<path fill-rule="evenodd" clip-rule="evenodd" d="M82.5673 224.727C77.8769 220.54 73.7459 216.559 69.7352 212.729C65.0465 219.014 60.2358 225.717 55.5454 232.33C59.1261 236.907 63.0785 241.587 67.1439 246.759C72.3118 239.285 77.261 232.04 82.5673 224.727Z" fill="#1A1A1A"/>
<path fill-rule="evenodd" clip-rule="evenodd" d="M67.7928 210.967C64.0936 207.728 60.5475 204.439 57.2274 201.385C53.0709 206.89 48.7595 212.238 44.3916 217.942C47.4329 221.696 50.5344 225.659 53.8399 230.116C58.4957 223.698 63.2025 217.076 67.7946 210.967H67.7928Z" fill="#1A1A1A"/>
<path fill-rule="evenodd" clip-rule="evenodd" d="M45.7034 190.148C43.1578 187.627 40.6522 185.377 38.2323 183.202C34.801 187.264 31.0527 191.732 27.6323 196.052C29.5712 198.659 31.8216 201.443 34.0648 204.615C37.9608 199.514 41.7656 195.066 45.7034 190.148Z" fill="#1A1A1A"/>
<path fill-rule="evenodd" clip-rule="evenodd" d="M36.8253 182.455C34.6624 180.338 32.4739 178.416 30.5714 176.27C27.5028 179.89 24.2847 183.621 21.2944 187.24C22.9253 189.686 24.7439 192.137 26.6427 194.749C29.961 190.681 33.4979 186.437 36.8253 182.455Z" fill="#1A1A1A"/>
<path fill-rule="evenodd" clip-rule="evenodd" d="M29.1942 175.034C27.4358 173.089 25.7502 171.318 24.1357 169.558C21.3313 172.75 18.4394 176.123 15.7808 179.268C17.0691 181.286 18.5906 183.331 20.1851 185.582C23.1736 182 26.3352 178.413 29.1961 175.034H29.1942Z" fill="#1A1A1A"/>
<path fill-rule="evenodd" clip-rule="evenodd" d="M23.1207 168.577C21.5845 167.069 20.2179 165.499 18.7583 164.043C16.3292 166.779 13.7672 169.581 11.3345 172.317C12.3586 174.287 13.5558 176.223 14.6564 178.306C17.4772 175.137 20.4201 171.778 23.1207 168.577Z" fill="#1A1A1A"/>
<path fill-rule="evenodd" clip-rule="evenodd" d="M18.1913 163.282C16.9066 161.897 15.7367 160.289 14.729 158.857C12.4676 161.297 10.3411 163.701 7.9248 166.299C8.91792 168.05 9.92197 169.705 10.9843 171.503C13.3587 168.853 15.8133 166.103 18.1931 163.282H18.1913Z" fill="#1A1A1A"/>
<path fill-rule="evenodd" clip-rule="evenodd" d="M14.0803 157.73C12.9869 156.455 12.0485 155.246 11.0681 153.999C8.97072 156.274 6.90066 158.614 5.08936 160.608C5.69252 162.184 6.51252 163.663 7.17764 165.356C9.43174 162.814 11.7697 160.199 14.0821 157.73H14.0803Z" fill="#1A1A1A"/>
<path fill-rule="evenodd" clip-rule="evenodd" d="M10.6767 153.606C9.80745 152.364 9.0986 151.017 8.33872 149.928C6.66956 151.665 4.98399 153.586 3.34033 155.442C3.82869 156.883 4.26603 158.415 4.86372 159.9C6.78071 157.788 8.68859 155.674 10.6767 153.606Z" fill="#1A1A1A"/>
<path fill-rule="evenodd" clip-rule="evenodd" d="M8.01578 149.19C7.2632 148.148 6.81493 146.944 6.37031 145.826C4.92163 147.339 3.41099 148.924 1.99512 150.47C2.2721 151.793 2.70397 153.096 2.9773 154.657C4.61731 152.883 6.40675 150.885 8.01761 149.19H8.01578Z" fill="#1A1A1A"/>
<path fill-rule="evenodd" clip-rule="evenodd" d="M6.04451 145.342C5.70557 144.176 5.31197 143.196 4.97303 142.097C3.68654 143.439 2.54217 144.753 1.19189 146.17C1.37047 147.374 1.54541 148.672 1.82239 149.924C3.29111 148.307 4.6997 146.776 6.04451 145.344V145.342Z" fill="#1A1A1A"/>
<path fill-rule="evenodd" clip-rule="evenodd" d="M4.81421 141.312C4.6247 140.237 4.38416 139.285 4.3459 138.149C3.16873 139.423 2.14099 140.538 1.16245 141.575C1.03489 142.916 1.06587 144.091 1.13694 145.405C2.2813 144.158 3.62793 142.646 4.81421 141.314V141.312Z" fill="#1A1A1A"/>
<path fill-rule="evenodd" clip-rule="evenodd" d="M22.1512 111.771C23.6382 110.971 25.034 110.219 26.5647 109.606C26.5629 109.826 26.6084 109.958 26.7469 109.943C25.1215 110.705 23.3995 111.713 22.0474 112.436C22.0528 112.14 22.0528 112.055 22.1512 111.771Z" fill="#1A1A1A"/>
<path fill-rule="evenodd" clip-rule="evenodd" d="M4.16383 134.29C4.36427 133.267 4.51005 132.287 4.74694 131.426C4.1456 132.02 3.34018 132.89 2.68053 133.637C2.32701 134.794 1.97714 135.925 1.61816 137.096C2.58759 136.068 3.30373 135.245 4.16201 134.29H4.16383Z" fill="#1A1A1A"/>
<path fill-rule="evenodd" clip-rule="evenodd" d="M5.02198 130.65C5.35727 129.704 5.73447 128.743 6.11167 127.818C5.51216 128.509 5.06024 129.107 4.45891 129.774C3.83206 130.884 3.34552 131.939 2.85352 133.101C3.61703 132.201 4.22201 131.502 5.0238 130.65H5.02198Z" fill="#1A1A1A"/>
<path fill-rule="evenodd" clip-rule="evenodd" d="M12.1287 119.46C12.9961 118.555 13.9054 117.723 14.8584 116.977C14.6161 117.314 14.3719 117.667 14.1769 117.952C13.1236 118.889 12.1178 119.759 11.1538 120.655C11.4946 120.279 11.6914 119.998 12.1287 119.46Z" fill="#1A1A1A"/>
<path fill-rule="evenodd" clip-rule="evenodd" d="M171.669 250.556C162.491 244.377 154.544 238.524 146.251 233.144C141.305 241.536 136.165 249.833 130.973 259.002H167.152C168.644 256.156 170.149 253.341 171.669 250.556Z" fill="#1A1A1A"/>
<path fill-rule="evenodd" clip-rule="evenodd" d="M142.534 230.76C135.239 225.617 128.417 220.692 122.103 216.178C116.807 224.062 111.563 231.916 106.34 240.257C112.47 245.932 118.744 252.251 125.915 258.387C131.412 248.724 137.127 239.704 142.534 230.76Z" fill="#1A1A1A"/>
<path fill-rule="evenodd" clip-rule="evenodd" d="M119.081 214.074C113.031 210.572 107.678 206.709 102.472 203.113C97.6682 209.544 92.7063 216.287 87.9102 223.322C92.7937 227.899 97.8031 232.571 103.417 237.929C108.767 229.536 113.768 221.629 119.081 214.074Z" fill="#1A1A1A"/>
<path fill-rule="evenodd" clip-rule="evenodd" d="M100.101 201.2C95.0862 197.97 90.5142 194.696 86.1098 191.946C81.7018 197.451 77.0114 203.693 72.5342 210.059C76.6342 213.661 81.0039 217.175 85.7199 221.211C90.3356 214.489 95.2648 207.809 100.101 201.2Z" fill="#1A1A1A"/>
<path fill-rule="evenodd" clip-rule="evenodd" d="M84.0107 190.605C79.8159 188.116 76.0256 185.466 72.2664 183.302C68.0862 188.216 64.0791 193.326 59.8096 198.816C63.1661 201.742 66.8598 204.726 70.5662 208.041C74.9979 202.228 79.5918 196.07 84.0107 190.605Z" fill="#1A1A1A"/>
<path fill-rule="evenodd" clip-rule="evenodd" d="M34.0156 106.804C33.0407 106.704 32.1587 106.599 31.3715 106.447C29.757 108.037 28.2755 109.519 26.6938 111.027C27.4829 111.136 28.2263 111.394 29.0646 111.589C30.6937 110.052 32.2662 108.453 34.0156 106.804Z" fill="#1A1A1A"/>
<path fill-rule="evenodd" clip-rule="evenodd" d="M59.1206 174.434C56.1522 172.659 53.4644 170.779 50.7018 169.054C47.2797 173.121 43.7555 177.209 40.2969 181.366C42.7624 183.35 45.319 185.547 48.0705 187.755C51.7132 183.274 55.3668 178.891 59.1206 174.434Z" fill="#1A1A1A"/>
<path fill-rule="evenodd" clip-rule="evenodd" d="M49.1604 168.501C46.6986 166.773 44.2148 165.218 41.8532 163.628C38.914 167.016 35.8398 170.56 32.8896 174.138C34.8978 176.142 37.0316 178.039 39.2511 180.104C42.5111 176.335 45.8312 172.411 49.1604 168.501Z" fill="#1A1A1A"/>
<path fill-rule="evenodd" clip-rule="evenodd" d="M40.3826 162.688C38.1649 161.341 36.3791 159.766 34.4075 158.482C31.6067 161.607 28.7804 164.7 26.1309 167.783C27.7454 169.473 29.5366 171.122 31.4573 172.973C34.5095 169.253 37.4889 165.907 40.3807 162.688H40.3826Z" fill="#1A1A1A"/>
<path fill-rule="evenodd" clip-rule="evenodd" d="M33.292 157.625C31.4443 156.33 29.766 155.018 28.0021 154.005C25.5548 156.655 22.9836 159.414 20.3833 162.515C21.7901 163.976 23.2643 165.403 24.9097 167.063C27.6121 164.003 30.4912 160.679 33.292 157.625Z" fill="#1A1A1A"/>
<path fill-rule="evenodd" clip-rule="evenodd" d="M27.379 153.448C25.8337 152.221 24.3504 151.188 23.0785 149.999C20.8371 152.426 18.5247 154.942 16.2925 157.306C17.4569 158.68 18.6304 160.199 20.0226 161.687C22.4626 158.832 24.9299 156.14 27.379 153.446V153.448Z" fill="#1A1A1A"/>
<path fill-rule="evenodd" clip-rule="evenodd" d="M22.1692 149.185C20.8116 148.3 19.7165 147.12 18.6268 146.107C16.4893 148.333 14.3318 150.675 12.207 153.058C13.3459 154.092 14.2315 155.471 15.2793 156.727C17.5134 154.249 19.9297 151.632 22.1692 149.186V149.185Z" fill="#1A1A1A"/>
<path fill-rule="evenodd" clip-rule="evenodd" d="M18.0294 145.788C16.8468 144.927 16.0742 143.779 15.1047 142.795C13.2752 144.698 11.3819 146.725 9.62891 148.657C10.4926 149.738 11.2562 150.945 12.1272 152.192C14.0934 150.051 16.045 147.905 18.0294 145.788Z" fill="#1A1A1A"/>
<path fill-rule="evenodd" clip-rule="evenodd" d="M9.73433 136.273C9.3389 135.33 8.98903 134.493 8.68836 133.628C7.43284 134.955 6.3231 136.13 5.15869 137.373C5.3482 138.381 5.64158 139.309 5.73087 140.489C7.15586 139.019 8.42778 137.634 9.73615 136.275L9.73433 136.273Z" fill="#1A1A1A"/>
<path fill-rule="evenodd" clip-rule="evenodd" d="M8.364 133.324C8.26378 132.316 7.96129 131.625 7.90662 130.782C6.95724 131.772 5.95319 132.841 4.99651 133.884C4.94731 134.844 5.04025 135.849 5.13682 136.806C6.20101 135.64 7.25973 134.455 8.364 133.324Z" fill="#1A1A1A"/>
<path fill-rule="evenodd" clip-rule="evenodd" d="M8.05436 127.472C8.13271 126.845 8.36232 125.921 8.53361 125.226C7.89218 125.935 7.19608 126.734 6.60203 127.387C6.13008 128.368 5.80025 129.299 5.51416 130.242C6.35968 129.381 7.16146 128.435 8.05253 127.474L8.05436 127.472Z" fill="#1A1A1A"/>
<path fill-rule="evenodd" clip-rule="evenodd" d="M9.67246 122.734C10.026 122.125 10.5726 121.211 11.3088 120.303C10.917 120.816 10.4269 121.369 10.2264 121.764C9.34445 122.821 8.69938 123.662 8.00146 124.614C8.49711 124.024 9.1349 123.339 9.67428 122.734H9.67246Z" fill="#1A1A1A"/>
<path fill-rule="evenodd" clip-rule="evenodd" d="M14.6433 116.438C15.3157 115.697 16.0282 115.039 16.6897 114.45C16.2596 115.006 15.8751 115.534 15.4469 115.991C14.636 116.743 13.8215 117.557 13.1035 118.207C13.683 117.56 14.1149 117.071 14.6451 116.438H14.6433Z" fill="#1A1A1A"/>
<path fill-rule="evenodd" clip-rule="evenodd" d="M12.8922 120.192C13.0052 119.627 13.2603 119.018 13.3732 118.447C12.6954 119.246 11.9683 120.049 11.2886 120.772C11.0335 121.434 10.6763 122.157 10.4121 122.872C11.1938 122.04 12.0685 121.15 12.8922 120.192Z" fill="#1A1A1A"/>
<path fill-rule="evenodd" clip-rule="evenodd" d="M323.394 163.686C308.43 160.536 294.679 157.431 281.729 154.476C276.738 162.526 271.643 170.214 266.872 178.464C279.435 181.96 293.294 186.467 308.641 191.056C313.634 181.556 318.474 172.569 323.396 163.686H323.394Z" fill="#1A1A1A"/>
<path fill-rule="evenodd" clip-rule="evenodd" d="M237.095 154.596C226.648 152.279 217.457 149.995 208.309 148.268C203.823 154.344 198.937 160.637 194.066 167.236C202.992 169.947 212.36 172.859 222.428 176.08C227.118 168.844 232.224 161.411 237.095 154.594V154.596Z" fill="#1A1A1A"/>
<path fill-rule="evenodd" clip-rule="evenodd" d="M224.804 107.304C216.483 106.971 208.699 106.467 201.187 106.068C196.962 110.683 192.825 115.184 188.849 119.861C196.134 120.522 203.872 121.363 212.103 122.567C216.21 117.296 220.31 112.191 224.804 107.304Z" fill="#1A1A1A"/>
<path fill-rule="evenodd" clip-rule="evenodd" d="M269.011 259C258.346 253.342 248.365 247.991 238.966 242.834C236.28 248.114 233.589 253.5 230.928 259H269.009H269.011Z" fill="#1A1A1A"/>
<path fill-rule="evenodd" clip-rule="evenodd" d="M232.581 239.522C220.336 233.009 209.546 226.73 198.99 221.111C193.452 230.693 187.78 240.998 182.134 251.283C185.589 253.839 189.106 256.402 192.712 259H223.076C226.293 252.344 229.454 245.874 232.581 239.522Z" fill="#1A1A1A"/>
<path fill-rule="evenodd" clip-rule="evenodd" d="M194.106 218.589C184.549 213.898 175.726 209.54 167.62 205.221C162.398 213.151 156.834 221.664 151.811 230.446C159.706 235.917 168.2 241.531 177.539 247.578C182.934 237.449 188.567 228.039 194.106 218.589Z" fill="#1A1A1A"/>
<path fill-rule="evenodd" clip-rule="evenodd" d="M163.183 204.017C155.287 199.978 148.091 196.447 141.269 193.074C136.566 199.759 131.604 206.676 126.616 213.711C133.167 218.174 140.339 223.094 147.893 228.269C153.075 219.539 158.073 211.817 163.183 204.015V204.017Z" fill="#1A1A1A"/>
<path fill-rule="evenodd" clip-rule="evenodd" d="M137.061 190.614C130.756 187.706 124.803 184.871 119.165 182.051C114.666 187.817 110.147 193.902 105.622 200.154C110.959 203.85 116.545 207.381 122.642 210.907C127.367 204.222 132.252 197.381 137.061 190.616V190.614Z" fill="#1A1A1A"/>
<path fill-rule="evenodd" clip-rule="evenodd" d="M115.905 180.399C110.781 177.503 105.875 175.366 101.008 173.248C96.7733 178.639 92.4272 184.148 87.9609 189.715C92.5639 192.298 97.3764 195.296 102.227 198.626C106.721 192.465 111.415 186.289 115.905 180.399Z" fill="#1A1A1A"/>
<path fill-rule="evenodd" clip-rule="evenodd" d="M98.8783 172.656C94.5541 170.562 90.2846 168.593 86.1281 166.851C82.4472 171.495 78.5531 176.123 74.71 180.753C78.4838 183.089 82.48 185.606 86.5326 188.303C90.7019 183.002 94.9113 177.699 98.8765 172.656H98.8783Z" fill="#1A1A1A"/>
<path fill-rule="evenodd" clip-rule="evenodd" d="M71.4081 159.918C67.9731 158.671 64.9737 157.273 61.9944 155.897C58.7891 159.508 55.4562 163.3 52.3857 166.873C55.0918 168.619 57.7231 170.499 60.9521 172.154C64.3378 168.08 67.8365 163.966 71.4081 159.916V159.918Z" fill="#1A1A1A"/>
<path fill-rule="evenodd" clip-rule="evenodd" d="M60.4106 155.252C57.5169 153.881 54.9038 152.517 52.3326 151.507C49.3478 154.746 46.5853 157.9 43.4966 161.402C45.8509 162.934 48.2745 164.413 50.7801 166.108C54.0619 162.43 57.1451 158.81 60.4106 155.252Z" fill="#1A1A1A"/>
<path fill-rule="evenodd" clip-rule="evenodd" d="M51.0516 151.003C48.7064 149.899 46.578 148.753 44.3694 147.796C41.565 150.798 38.7788 153.744 36.2842 156.716C38.1046 158.058 40.2457 159.343 42.3559 160.723C45.3516 157.407 48.218 154.195 51.0498 151.003H51.0516Z" fill="#1A1A1A"/>
<path fill-rule="evenodd" clip-rule="evenodd" d="M42.7604 147.377C40.6211 146.417 38.7023 145.512 36.8436 144.475C34.6205 146.877 31.9819 149.7 29.7241 152.283C31.335 153.448 33.1645 154.608 35.0141 155.923C37.5142 153.02 40.2002 150.162 42.7604 147.377Z" fill="#1A1A1A"/>
<path fill-rule="evenodd" clip-rule="evenodd" d="M35.8161 143.952C34.0303 143.158 32.2499 142.373 30.6828 141.573C28.5034 143.886 26.4078 146.174 24.2412 148.434C25.6134 149.471 27.1969 150.428 28.6911 151.708C31.0509 149.043 33.3415 146.498 35.8161 143.953V143.952Z" fill="#1A1A1A"/>
<path fill-rule="evenodd" clip-rule="evenodd" d="M30.2252 141.131C28.6672 140.389 27.3188 139.561 25.83 138.89C23.944 140.823 21.9468 142.949 19.9351 145.037C21.1778 145.969 22.3787 147.02 23.7362 148.092C25.85 145.766 28.0458 143.491 30.2252 141.131Z" fill="#1A1A1A"/>
<path fill-rule="evenodd" clip-rule="evenodd" d="M25.1872 138.238C24.0027 137.362 22.8274 136.539 21.6557 135.921C19.7241 137.948 17.9766 139.789 16.2163 141.667C17.1365 142.657 18.1625 143.576 19.2449 144.555C21.2566 142.394 23.252 140.335 25.1872 138.236V138.238Z" fill="#1A1A1A"/>
<path fill-rule="evenodd" clip-rule="evenodd" d="M20.974 135.479C19.908 134.899 18.8966 134.29 18.0347 133.528C16.3983 135.259 14.9041 136.826 13.1475 138.7C13.9055 139.543 14.669 140.366 15.5346 141.216C17.293 139.389 19.0387 137.591 20.974 135.479Z" fill="#1A1A1A"/>
<path fill-rule="evenodd" clip-rule="evenodd" d="M184.164 129.113C177.2 128.155 170.563 127.338 164.121 126.33C160.103 131.15 156.056 135.798 151.796 140.636C157.935 141.93 164.47 143.152 171.43 144.87C175.705 139.479 179.991 134.29 184.166 129.113H184.164Z" fill="#1A1A1A"/>
<path fill-rule="evenodd" clip-rule="evenodd" d="M54.9205 104.297C53.0254 104.311 51.2287 104.315 49.5304 104.344C47.5405 106.338 45.4886 108.283 43.5698 110.219C45.2281 110.19 46.6658 110.467 48.4807 110.532C50.5763 108.439 52.7065 106.351 54.9224 104.295L54.9205 104.297Z" fill="#1A1A1A"/>
<path fill-rule="evenodd" clip-rule="evenodd" d="M54.6215 98.1028C52.9031 98.3112 51.274 98.4689 49.696 98.5976C47.7644 100.41 45.9185 102.152 44.1108 103.864C45.5632 103.873 47.0629 103.854 48.6099 103.793C50.5488 101.948 52.6097 100.001 54.6215 98.1028Z" fill="#1A1A1A"/>
<path fill-rule="evenodd" clip-rule="evenodd" d="M384.671 259C379.592 256.859 374.63 254.751 369.79 252.668C368.977 254.747 368.179 256.859 367.392 259H384.672H384.671Z" fill="#1A1A1A"/>
<path fill-rule="evenodd" clip-rule="evenodd" d="M180.427 83.6248C174.421 83.9384 168.717 84.2139 163.285 84.4713C159.936 87.7922 156.621 91.1602 153.203 94.3759C158.637 94.4085 164.074 94.3324 169.923 94.2526C173.316 90.6562 176.908 87.1396 180.425 83.6248H180.427Z" fill="#1A1A1A"/>
<path fill-rule="evenodd" clip-rule="evenodd" d="M297.052 222.081C281.767 215.834 267.75 210.311 254.412 205.204C249.215 214.804 243.651 225.12 238.578 236.173C251.673 243.014 265.389 249.96 280.723 257.392C285.907 245.383 291.507 233.484 297.05 222.081H297.052Z" fill="#1A1A1A"/>
<path fill-rule="evenodd" clip-rule="evenodd" d="M210.512 188.045C200.841 184.453 191.635 181.257 183.1 178.112C178.129 185.219 173.063 192.755 168.136 200.374C176.294 204.546 185.279 208.785 194.462 213.072C199.812 204.679 205.151 196.039 210.51 188.047L210.512 188.045Z" fill="#1A1A1A"/>
<path fill-rule="evenodd" clip-rule="evenodd" d="M151.825 167.892C145.143 165.631 139.046 163.567 133.24 161.44C129.031 166.621 124.626 172.25 120.4 178.036C125.929 180.704 131.981 183.535 138.091 186.461C142.508 180.033 147.266 173.734 151.827 167.892H151.825Z" fill="#1A1A1A"/>
<path fill-rule="evenodd" clip-rule="evenodd" d="M129.924 160.413C124.389 158.556 119.205 156.916 114.236 155.417C110.074 160.327 106.034 165.312 101.872 170.27C106.599 172.288 111.415 174.314 116.625 176.836C121.139 171.046 125.463 165.47 129.924 160.413Z" fill="#1A1A1A"/>
<path fill-rule="evenodd" clip-rule="evenodd" d="M112.095 154.871C107.488 153.387 103.018 151.926 98.632 150.441C94.9784 154.77 91.323 159.024 87.5874 163.438C91.6273 165.245 95.8932 167.274 100.234 169.228C104.297 164.332 108.31 159.494 112.093 154.869L112.095 154.871Z" fill="#1A1A1A"/>
<path fill-rule="evenodd" clip-rule="evenodd" d="M95.7346 149.562C91.804 148.378 87.9536 147.24 84.4367 146.107C80.7631 150.198 77.2753 154.005 73.835 158.096C77.1332 159.396 80.6829 160.869 84.5698 162.726C88.2361 158.069 92.0992 153.706 95.7346 149.562Z" fill="#1A1A1A"/>
<path fill-rule="evenodd" clip-rule="evenodd" d="M82.7132 145.741C79.1398 144.756 75.9381 143.629 72.7201 142.704C69.5676 146.107 66.3532 149.765 63.3574 153.309C66.2639 154.579 69.2524 155.991 72.7219 157.168C75.9436 153.49 79.3639 149.507 82.7114 145.741H82.7132Z" fill="#1A1A1A"/>
<path fill-rule="evenodd" clip-rule="evenodd" d="M71.007 142.153C67.9274 141.325 65.0282 140.607 62.2913 139.808C59.403 142.956 56.4309 146.054 53.6885 149.138C56.1941 150.089 58.9402 151.211 61.6662 152.558C64.7148 148.989 67.8527 145.594 71.007 142.153Z" fill="#1A1A1A"/>
<path fill-rule="evenodd" clip-rule="evenodd" d="M61.0303 139.412C58.4209 138.695 55.9244 137.933 53.5355 137.099C50.8659 139.972 48.1708 142.837 45.6543 145.63C47.7572 146.638 50.0787 147.638 52.4622 148.576C55.314 145.559 58.133 142.458 61.0321 139.412H61.0303Z" fill="#1A1A1A"/>
<path fill-rule="evenodd" clip-rule="evenodd" d="M51.8973 136.811C49.5867 136.112 47.5349 135.323 45.5523 134.699C43.0977 137.159 40.6814 139.681 38.2925 142.126C40.0509 143.216 42.0663 144.2 44.2475 145.081C46.8187 142.264 49.3188 139.548 51.8991 136.811H51.8973Z" fill="#1A1A1A"/>
<path fill-rule="evenodd" clip-rule="evenodd" d="M44.0945 134.58C42.1739 133.918 40.2642 133.362 38.4128 132.852C36.3883 134.97 34.1542 137.283 32.1006 139.532C33.7643 140.217 35.3879 140.997 37.17 141.758C39.4114 139.407 41.7366 137.043 44.0945 134.578V134.58Z" fill="#1A1A1A"/>
<path fill-rule="evenodd" clip-rule="evenodd" d="M37.9082 132.466C36.3101 131.814 34.7247 131.21 33.0957 130.673C31.1605 132.676 29.0703 134.917 27.1606 136.94C28.6002 137.663 29.996 138.434 31.4994 139.177C33.6022 136.951 35.7908 134.761 37.91 132.468L37.9082 132.466Z" fill="#1A1A1A"/>
<path fill-rule="evenodd" clip-rule="evenodd" d="M32.3539 130.222C30.8833 129.674 29.564 129.19 28.201 128.775C26.3114 130.644 24.46 132.471 22.645 134.418C23.8623 135.004 25.0376 135.713 26.2676 136.488C28.2776 134.429 30.2729 132.297 32.3521 130.222H32.3539Z" fill="#1A1A1A"/>
<path fill-rule="evenodd" clip-rule="evenodd" d="M139.407 123.794C134.188 123.261 129.164 122.857 124.346 122.33C120.783 126.163 117.15 130.09 113.525 133.962C118.174 134.741 122.815 135.675 128.027 136.73C131.828 132.334 135.589 127.962 139.407 123.794Z" fill="#1A1A1A"/>
<path fill-rule="evenodd" clip-rule="evenodd" d="M122.157 121.981C117.614 121.41 113.175 121.024 109.188 120.493C105.697 124.075 102.244 127.739 99.002 131.326C102.949 132.091 107.022 132.863 111.42 133.566C114.912 129.809 118.593 125.803 122.157 121.981Z" fill="#1A1A1A"/>
<path fill-rule="evenodd" clip-rule="evenodd" d="M107.21 120.274C103.066 119.875 99.3503 119.522 95.746 119.176C92.6245 122.344 89.3499 125.741 86.2339 128.995C89.6998 129.648 93.2841 130.307 97.058 131.107C100.342 127.405 103.806 123.751 107.21 120.274Z" fill="#1A1A1A"/>
<path fill-rule="evenodd" clip-rule="evenodd" d="M94.0455 118.98C90.5177 118.642 87.1684 118.438 83.9704 118.142C81.042 121.097 77.9279 124.365 75.1016 127.273C78.1465 127.786 81.3391 128.166 84.61 128.681C87.5966 125.565 90.9259 122.168 94.0473 118.98H94.0455Z" fill="#1A1A1A"/>
<path fill-rule="evenodd" clip-rule="evenodd" d="M82.4053 118.028C79.3184 117.686 76.4338 117.267 73.5383 117.153C70.8177 119.859 68.0315 122.676 65.2817 125.587C67.8766 126.035 70.6391 126.548 73.6185 127.101C76.4848 124.041 79.5243 120.977 82.4053 118.028Z" fill="#1A1A1A"/>
<path fill-rule="evenodd" clip-rule="evenodd" d="M72.1971 117.105C69.5002 116.848 67.0129 116.61 64.4891 116.444C61.8341 119.009 59.1663 121.648 56.8594 124.099C59.0716 124.541 61.4405 124.998 64.0572 125.326C66.7195 122.485 69.369 119.803 72.1953 117.105H72.1971Z" fill="#1A1A1A"/>
<path fill-rule="evenodd" clip-rule="evenodd" d="M63.3539 116.358C60.9358 116.112 58.5796 115.954 56.4695 115.726C54.0295 118.1 51.6278 120.549 49.2534 122.915C51.2415 123.381 53.5211 123.618 55.6622 123.934C58.166 121.456 60.646 118.923 63.3539 116.36V116.358Z" fill="#1A1A1A"/>
<path fill-rule="evenodd" clip-rule="evenodd" d="M55.2539 115.764C53.1091 115.574 51.1119 115.383 49.2186 115.208C47.1449 117.354 44.9601 119.513 42.7588 121.615C44.5683 121.92 46.4871 122.382 48.3148 122.79C50.5944 120.421 52.8631 118.171 55.2539 115.764Z" fill="#1A1A1A"/>
<path fill-rule="evenodd" clip-rule="evenodd" d="M48.0577 115.082C46.2246 114.954 44.5864 114.74 42.9081 114.658C40.9091 116.556 38.901 118.53 36.8838 120.533C38.4327 120.82 39.8905 121.166 41.5414 121.438C43.6953 119.33 45.9312 117.174 48.0577 115.081V115.082Z" fill="#1A1A1A"/>
<path fill-rule="evenodd" clip-rule="evenodd" d="M41.946 114.488C40.3679 114.297 38.983 114.127 37.5107 113.998C35.5991 115.864 33.6767 117.671 31.7925 119.612C33.0863 119.926 34.4785 120.154 35.9235 120.52C37.8951 118.503 39.9506 116.471 41.9478 114.488H41.946Z" fill="#1A1A1A"/>
<path fill-rule="evenodd" clip-rule="evenodd" d="M36.8911 113.964C35.5608 113.745 34.4238 113.464 33.2429 113.241C31.5155 114.968 29.7333 116.719 28.1279 118.342C29.1702 118.652 30.3583 118.951 31.4553 119.317C33.2448 117.528 35.1198 115.711 36.8911 113.964Z" fill="#1A1A1A"/>
<path fill-rule="evenodd" clip-rule="evenodd" d="M32.4902 113.088C31.4552 112.884 30.3291 112.822 29.3924 112.57C27.7561 114.183 26.1088 115.782 24.5981 117.323C25.4418 117.608 26.2892 117.918 27.2805 118.184C28.9314 116.567 30.7172 114.892 32.4921 113.088H32.4902Z" fill="#1A1A1A"/>
<path fill-rule="evenodd" clip-rule="evenodd" d="M20.7226 114.06C20.4037 113.788 20.1358 113.366 19.908 113.065C18.8201 114.216 17.7323 115.229 16.8248 116.248C16.8084 116.748 16.9833 117.191 17.2038 117.618C18.3956 116.438 19.4907 115.311 20.7207 114.06H20.7226Z" fill="#1A1A1A"/>
<path fill-rule="evenodd" clip-rule="evenodd" d="M41.939 104.663C44.5411 104.112 47.0977 103.559 50.0333 102.979C50.724 102.627 51.3745 102.466 52.2054 102.156C49.0894 102.917 46.254 103.521 43.5134 104.168C42.8719 104.601 42.4437 104.402 41.939 104.663Z" fill="#1A1A1A"/>
<path fill-rule="evenodd" clip-rule="evenodd" d="M59.6543 101.757C63.3389 101.438 67.0672 101.447 71.1253 101.262C71.887 101.192 72.7471 101.128 73.6363 100.858C69.3978 101.262 65.5146 101.172 61.7681 101.397C60.8861 101.725 60.2137 101.607 59.6543 101.759V101.757Z" fill="#1A1A1A"/>
<path fill-rule="evenodd" clip-rule="evenodd" d="M133.511 109.416C128.812 109.117 124.149 108.95 119.938 108.678C116.563 112.055 113.228 115.49 109.974 118.987C114.137 119.406 118.575 119.81 122.994 120.323C126.478 116.56 130.082 112.825 133.51 109.414L133.511 109.416Z" fill="#1A1A1A"/>
<path fill-rule="evenodd" clip-rule="evenodd" d="M117.889 108.56C113.684 108.493 109.691 108.408 105.943 108.247C102.902 111.368 99.5559 114.636 96.6094 117.752C100.155 118.1 104.008 118.371 107.986 118.695C111.207 115.293 114.602 111.854 117.889 108.562V108.56Z" fill="#1A1A1A"/>
<path fill-rule="evenodd" clip-rule="evenodd" d="M104.137 108.232C100.423 108.142 96.9337 108.147 93.4915 108.065C90.5686 110.848 87.653 113.808 84.8213 116.857C88.0539 117.033 91.3977 117.267 94.8837 117.675C97.7847 114.573 101.085 111.29 104.139 108.23L104.137 108.232Z" fill="#1A1A1A"/>
<path fill-rule="evenodd" clip-rule="evenodd" d="M91.8882 107.966C88.61 107.899 85.5541 107.957 82.5875 107.861C79.783 110.549 77.0552 113.228 74.4038 115.887C77.1973 116.01 80.1202 116.362 83.2508 116.701C86.1044 113.79 89.0181 110.783 91.8882 107.966Z" fill="#1A1A1A"/>
<path fill-rule="evenodd" clip-rule="evenodd" d="M81.1568 107.793C78.2175 107.85 75.6591 107.712 72.9786 107.737C70.3364 110.288 67.767 112.742 65.2778 115.24C67.7506 115.463 70.3309 115.673 73.0642 115.844C75.7138 113.137 78.4089 110.578 81.1568 107.793Z" fill="#1A1A1A"/>
<path fill-rule="evenodd" clip-rule="evenodd" d="M71.7522 107.647C69.1282 107.618 66.7502 107.609 64.3758 107.523C61.9413 109.873 59.5869 112.195 57.2217 114.564C59.3428 114.974 61.6443 115.077 64.0532 115.244C66.6372 112.679 69.0626 110.201 71.754 107.647H71.7522Z" fill="#1A1A1A"/>
<path fill-rule="evenodd" clip-rule="evenodd" d="M63.2681 107.551C61.0522 107.551 58.8 107.65 56.8793 107.598C54.6562 109.677 52.3784 111.903 50.1279 114.035C52.0613 114.149 54.0512 114.31 56.1522 114.558C58.4246 112.204 60.8791 109.896 63.2681 107.551Z" fill="#1A1A1A"/>
<path fill-rule="evenodd" clip-rule="evenodd" d="M145.287 96.8901C140.343 96.9427 135.572 97.0134 131.115 97.124C127.863 100.383 124.619 103.517 121.416 106.749C125.8 106.896 130.412 107.116 135.042 107.315C138.514 103.809 141.996 100.255 145.287 96.892V96.8901Z" fill="#1A1A1A"/>
<path fill-rule="evenodd" clip-rule="evenodd" d="M129.034 97.2708C124.683 97.2853 120.472 97.4756 116.554 97.6043C113.474 100.597 110.373 103.59 107.386 106.563C111.197 106.525 115.28 106.586 119.395 106.777C122.54 103.47 125.754 100.372 129.034 97.2708Z" fill="#1A1A1A"/>
<path fill-rule="evenodd" clip-rule="evenodd" d="M114.573 97.637C110.715 97.7131 106.98 97.8654 103.452 98.0231C100.64 100.726 97.7775 103.514 94.9111 106.445C98.2914 106.468 101.836 106.536 105.491 106.592C108.47 103.575 111.572 100.526 114.571 97.637H114.573Z" fill="#1A1A1A"/>
<path fill-rule="evenodd" clip-rule="evenodd" d="M101.832 98.0413C98.3226 98.2407 95.2922 98.3023 92.0905 98.4836C89.2479 101.125 86.6676 103.661 83.936 106.3C86.9865 106.314 90.0897 106.282 93.4135 106.347C96.0995 103.541 98.9677 100.753 101.832 98.0413Z" fill="#1A1A1A"/>
<path fill-rule="evenodd" clip-rule="evenodd" d="M90.4484 98.6213C87.5329 98.6775 84.6774 98.7591 81.8366 98.9259C79.2052 101.462 76.6869 103.869 74.2451 106.238C76.7908 106.367 79.5296 106.385 82.5108 106.32C85.1476 103.67 87.7861 101.186 90.4484 98.6213Z" fill="#1A1A1A"/>
<path fill-rule="evenodd" clip-rule="evenodd" d="M80.4409 98.9692C77.662 99.1596 75.2183 99.2647 72.8731 99.359C70.3894 101.647 67.8492 103.954 65.5732 106.191C67.8948 106.229 70.322 106.305 72.9843 106.238C75.4279 103.878 77.9025 101.476 80.4409 98.9692Z" fill="#1A1A1A"/>
<path fill-rule="evenodd" clip-rule="evenodd" d="M71.4117 99.6345C68.9408 99.8394 66.7541 99.9536 64.5255 100.086C62.2531 102.236 59.8769 104.453 57.6812 106.671C59.7785 106.51 61.9853 106.481 64.2886 106.387C66.5718 104.241 68.8424 102.096 71.4117 99.6363V99.6345Z" fill="#1A1A1A"/>
<path fill-rule="evenodd" clip-rule="evenodd" d="M139.512 86.8169C134.988 87.0743 130.706 87.2501 126.565 87.5873C123.497 90.513 120.534 93.3444 117.538 96.3934C121.624 96.1179 125.709 96.0889 130.137 95.9602C133.146 92.9058 136.287 89.8568 139.511 86.8169H139.512Z" fill="#1A1A1A"/>
<path fill-rule="evenodd" clip-rule="evenodd" d="M124.493 87.8792C120.441 88.064 116.716 88.4121 112.959 88.8073C110.103 91.4339 107.337 94.1112 104.505 96.8375C108.155 96.533 111.709 96.5239 115.656 96.4007C118.63 93.4931 121.618 90.5348 124.493 87.8792Z" fill="#1A1A1A"/>
<path fill-rule="evenodd" clip-rule="evenodd" d="M111.224 88.9541C107.656 89.2296 104.349 89.5813 100.999 89.9438C98.2878 92.3982 95.6693 94.9541 92.9414 97.5173C96.1704 97.1892 99.3411 97.1221 102.887 96.8611C105.546 94.2925 108.372 91.6423 111.224 88.9541Z" fill="#1A1A1A"/>
<path fill-rule="evenodd" clip-rule="evenodd" d="M99.3683 90.0618C96.2122 90.3427 93.2401 90.5131 90.2899 90.7941C87.7424 93.1724 85.2696 95.5234 82.7422 97.9343C85.5812 97.7875 88.382 97.6624 91.5254 97.521C94.2113 94.9905 96.7005 92.5307 99.3683 90.0618Z" fill="#1A1A1A"/>
<path fill-rule="evenodd" clip-rule="evenodd" d="M88.8232 90.9717C86.1591 91.1475 83.5059 91.3995 80.7762 91.7856C78.3799 93.9735 75.9801 96.2539 73.6494 98.4364C76.1313 98.3168 78.7043 98.0702 81.3502 98.0032C83.9286 95.5904 86.4087 93.3028 88.8232 90.9717Z" fill="#1A1A1A"/>
<path fill-rule="evenodd" clip-rule="evenodd" d="M72.6218 93.4875C70.2784 93.7776 68.0334 94.044 65.9724 94.2253C63.855 96.1703 61.5954 98.2314 59.416 100.278C61.4879 100.093 63.6217 100.044 65.7501 99.9118C67.9131 97.7891 70.251 95.6447 72.6218 93.4894V93.4875Z" fill="#1A1A1A"/>
<path fill-rule="evenodd" clip-rule="evenodd" d="M64.7076 94.3342C62.6995 94.5101 60.7843 94.6388 58.9256 94.8726C56.9795 96.7469 55.0169 98.498 53.1455 100.329C54.7892 100.305 56.6661 100.171 58.4573 100.115C60.4581 98.2497 62.6284 96.2176 64.7076 94.3342Z" fill="#1A1A1A"/>
<path fill-rule="evenodd" clip-rule="evenodd" d="M134.618 78.5203C130.547 79.0006 126.622 79.4629 122.666 79.9342C119.863 82.5408 117.128 85.0677 114.249 87.7179C118.13 87.214 121.773 86.9946 125.926 86.5469C128.763 83.8025 131.712 81.2176 134.618 78.5203Z" fill="#1A1A1A"/>
<path fill-rule="evenodd" clip-rule="evenodd" d="M120.847 80.1244C117.223 80.5195 113.582 81.0325 110.121 81.4658C107.554 83.8875 104.879 86.3329 102.198 88.8398C105.588 88.4646 108.86 88.2018 112.518 87.8972C115.391 85.2054 118.136 82.702 120.847 80.1226V80.1244Z" fill="#1A1A1A"/>
<path fill-rule="evenodd" clip-rule="evenodd" d="M108.465 81.6597C105.247 82.0258 102.091 82.4591 98.8545 82.9449C96.389 85.2579 94.0328 87.3751 91.458 89.7443C94.4046 89.4633 97.4131 89.2259 100.578 89.0156C103.208 86.4941 105.927 83.9908 108.465 81.6597Z" fill="#1A1A1A"/>
<path fill-rule="evenodd" clip-rule="evenodd" d="M97.4459 83.1643C94.5887 83.6012 91.7332 83.9782 89.0217 84.3444C86.6656 86.5051 84.2019 88.6731 81.8604 90.8012C84.55 90.5257 87.1977 90.2357 89.9893 89.9202C92.5715 87.5837 95.0151 85.3722 97.4459 83.1643Z" fill="#1A1A1A"/>
<path fill-rule="evenodd" clip-rule="evenodd" d="M80.2824 86.2041C77.8242 86.5993 75.5483 86.8712 73.4108 87.1467C71.2022 89.1679 68.9736 91.1582 66.8799 93.1939C68.9827 92.9745 71.1348 92.757 73.5219 92.4525C75.7432 90.3878 77.9554 88.3612 80.2824 86.2059V86.2041Z" fill="#1A1A1A"/>
<path fill-rule="evenodd" clip-rule="evenodd" d="M71.8252 87.754C69.6495 88.044 67.7106 88.3486 65.7335 88.7147C63.678 90.5456 61.6608 92.3583 59.5015 94.3087C61.3565 94.0658 63.3628 93.9136 65.3691 93.7468C67.4701 91.7383 69.6058 89.7498 71.8271 87.7522L71.8252 87.754Z" fill="#1A1A1A"/>
<path fill-rule="evenodd" clip-rule="evenodd" d="M143.352 68.8893C139.061 69.5618 135.008 70.1618 131.112 70.8343C128.313 73.1618 125.658 75.5546 122.786 78.1757C126.713 77.5757 130.678 77.1479 134.729 76.6241C137.617 73.9558 140.469 71.4234 143.35 68.8875L143.352 68.8893Z" fill="#1A1A1A"/>
<path fill-rule="evenodd" clip-rule="evenodd" d="M129.262 71.0283C125.426 71.6881 121.764 72.203 118.17 72.8247C115.681 75.1323 113.073 77.3583 110.431 79.7764C113.917 79.2725 117.516 78.8302 121.155 78.2773C123.821 75.8555 126.485 73.4954 129.262 71.0283Z" fill="#1A1A1A"/>
<path fill-rule="evenodd" clip-rule="evenodd" d="M139.197 62.4524C135.296 63.1394 131.556 63.8935 127.901 64.5751C125.271 66.9008 122.7 69.1322 120.125 71.3709C123.575 70.7799 127.32 70.2089 131.248 69.5419C133.843 67.2343 136.551 64.8488 139.199 62.4524H139.197Z" fill="#1A1A1A"/>
<path fill-rule="evenodd" clip-rule="evenodd" d="M181.633 64.894C176.021 65.6681 170.795 66.3877 165.824 66.9043C162.516 69.7521 159.488 72.6742 156.558 75.415C161.383 75.0107 166.522 74.4307 171.97 73.8452C175.07 70.8886 178.293 67.8922 181.632 64.8959L181.633 64.894Z" fill="#1A1A1A"/>
<path fill-rule="evenodd" clip-rule="evenodd" d="M30.176 120.149C28.9843 119.821 27.8927 119.473 26.8504 119.192C25.2323 120.79 23.5595 122.422 21.9741 124.216C22.7795 124.635 23.7289 125.139 24.7312 125.596C26.4623 123.85 28.3246 121.942 30.176 120.149Z" fill="#1A1A1A"/>
<path fill-rule="evenodd" clip-rule="evenodd" d="M34.6405 121.276C33.2429 120.948 31.9472 120.591 30.7027 120.269C28.8021 122.19 26.9871 124.037 25.2578 125.792C26.2637 126.343 27.3716 126.858 28.5816 127.385C30.5496 125.344 32.6014 123.256 34.6405 121.276Z" fill="#1A1A1A"/>
<path fill-rule="evenodd" clip-rule="evenodd" d="M39.8284 122.453C38.2248 122.168 36.767 121.773 35.3621 121.372C33.2301 123.528 31.1782 125.569 29.2612 127.563C30.5732 127.987 31.8925 128.485 33.4578 128.881C35.5625 126.731 37.751 124.57 39.8302 122.453H39.8284Z" fill="#1A1A1A"/>
<path fill-rule="evenodd" clip-rule="evenodd" d="M46.4523 123.774C44.5772 123.37 42.7568 122.942 40.9491 122.656C38.8226 124.764 36.594 127.128 34.4419 129.359C36.0692 129.801 37.6563 130.449 39.2982 131.09C41.6343 128.578 44.1016 126.191 46.4523 123.772V123.774Z" fill="#1A1A1A"/>
<path fill-rule="evenodd" clip-rule="evenodd" d="M53.6486 124.963C51.4565 124.635 49.2752 124.307 47.4384 123.888C45.0404 126.267 42.5749 128.685 40.1914 131.177C42.0446 131.781 43.9999 132.305 46.0189 132.876C48.4352 130.287 50.979 127.672 53.6486 124.963Z" fill="#1A1A1A"/>
<path fill-rule="evenodd" clip-rule="evenodd" d="M61.8559 126.53C59.3321 126.14 57.0142 125.701 54.802 125.235C52.0395 128.038 49.4519 130.73 47.0356 133.28C49.0656 133.86 51.2632 134.583 53.5192 135.263C56.3527 132.27 58.9731 129.521 61.8559 126.528V126.53Z" fill="#1A1A1A"/>
<path fill-rule="evenodd" clip-rule="evenodd" d="M71.1218 128.475C68.2518 127.985 65.5859 127.432 62.9856 126.905C60.2048 129.859 57.4387 132.704 54.6543 135.644C57.0378 136.42 59.5834 137.176 62.1911 137.937C65.1394 134.725 68.2099 131.505 71.1218 128.475Z" fill="#1A1A1A"/>
<path fill-rule="evenodd" clip-rule="evenodd" d="M82.8445 130.173C79.5499 129.517 76.3956 129.026 73.4618 128.598C70.4515 131.596 67.3974 134.877 64.4053 138.08C67.1805 138.742 70.1763 139.454 73.1648 140.44C76.4557 136.829 79.5881 133.476 82.8463 130.173H82.8445Z" fill="#1A1A1A"/>
<path fill-rule="evenodd" clip-rule="evenodd" d="M94.8986 132.305C91.1867 131.582 87.5313 130.764 84.3241 130.131C81.0368 133.581 77.7094 136.982 74.5679 140.507C77.7331 141.473 81.0824 142.528 84.7378 143.391C88.087 139.67 91.4636 136.059 94.8986 132.307V132.305Z" fill="#1A1A1A"/>
<path fill-rule="evenodd" clip-rule="evenodd" d="M109.227 134.861C104.928 134.114 100.664 133.467 96.9813 132.406C93.5136 136.227 89.9693 140.081 86.6802 143.834C90.3356 144.89 94.175 145.965 98.2404 146.988C101.958 142.82 105.517 138.876 109.229 134.861H109.227Z" fill="#1A1A1A"/>
<path fill-rule="evenodd" clip-rule="evenodd" d="M125.461 138.29C120.41 137.248 115.765 136.316 111.399 135.327C107.65 139.441 103.864 143.553 100.165 147.84C104.72 149.1 108.922 150.671 113.744 151.902C117.727 147.325 121.665 142.768 125.461 138.29Z" fill="#1A1A1A"/>
<path fill-rule="evenodd" clip-rule="evenodd" d="M144.224 142.581C138.317 141.425 133.081 140.332 127.802 139.184C123.863 143.703 119.932 148.304 115.996 152.801C120.925 154.429 126.146 156.022 131.624 157.654C135.957 152.377 140.075 147.416 144.224 142.581Z" fill="#1A1A1A"/>
<path fill-rule="evenodd" clip-rule="evenodd" d="M339.524 116.458C335.805 113.489 332.164 110.493 328.837 107.757C323.461 110.797 318.109 113.629 312.705 116.839C315.72 119.984 318.707 123.281 322.317 126.655C328.144 123.214 333.968 119.794 339.522 116.458H339.524Z" fill="#1A1A1A"/>
<path fill-rule="evenodd" clip-rule="evenodd" d="M157.089 110.364C155.61 108.876 154.165 107.491 152.661 106.305C150.568 107.77 148.386 109.331 146.232 110.815C147.57 112.224 148.833 113.737 150.19 115.439C152.508 113.708 154.821 111.99 157.091 110.364H157.089Z" fill="#1A1A1A"/>
<path fill-rule="evenodd" clip-rule="evenodd" d="M98.5338 55.3829C97.958 54.5055 97.4296 53.5919 96.943 52.6765C95.0588 54.2336 93.0471 55.9194 91.0718 57.5617C91.3797 58.6149 91.8152 59.5775 92.3073 60.6089C94.3737 58.8741 96.4747 57.1104 98.532 55.3829H98.5338Z" fill="#1A1A1A"/>
<path fill-rule="evenodd" clip-rule="evenodd" d="M404.418 207.585C399.769 203.95 395.385 200.468 391.126 197.403C385.581 199.107 380.14 201.124 374.431 203.049C378.571 206.399 382.646 210.019 386.833 213.92C392.788 211.683 398.88 209.667 404.42 207.583L404.418 207.585Z" fill="#1A1A1A"/>
<path fill-rule="evenodd" clip-rule="evenodd" d="M111.803 67.1726C111.346 66.6704 110.985 66.181 110.626 65.7097C109.402 66.5979 108.17 67.4698 106.98 68.3399C107.255 68.8783 107.539 69.5109 107.858 70.0403C109.176 69.0886 110.444 68.1442 111.803 67.1708V67.1726Z" fill="#1A1A1A"/>
<path fill-rule="evenodd" clip-rule="evenodd" d="M153.999 44.2002C152.894 43.7307 151.849 43.3156 150.813 42.9331C149.252 43.9935 147.692 45.0902 146.096 46.2467C146.967 46.7706 147.923 47.2365 149.011 47.8383C150.637 46.5712 152.319 45.3875 153.999 44.202V44.2002Z" fill="#1A1A1A"/>
<path fill-rule="evenodd" clip-rule="evenodd" d="M388.86 87.2175C384.483 85.4193 380.413 83.8495 376.547 82.3704C371.546 84.4405 366.812 86.4236 362.282 88.5263C365.775 90.2683 369.455 92.052 373.571 94.2454C378.855 91.7855 383.991 89.3456 388.86 87.2175Z" fill="#1A1A1A"/>
<path fill-rule="evenodd" clip-rule="evenodd" d="M136.099 41.3978C135.432 41.0842 134.933 40.6728 134.405 40.3628C133.133 41.193 131.921 42.1302 130.696 43.0347C131.145 43.4317 131.558 43.9012 132.099 44.2637C133.318 43.3338 134.707 42.3495 136.099 41.3978Z" fill="#1A1A1A"/>
<path fill-rule="evenodd" clip-rule="evenodd" d="M108.273 34.5494C107.92 34.292 107.534 34.0944 107.186 33.8569C106.269 34.5657 105.265 35.298 104.385 35.9742C104.689 36.2497 104.953 36.5289 105.225 36.8479C106.229 36.092 107.271 35.3216 108.273 34.5494Z" fill="#1A1A1A"/>
<path fill-rule="evenodd" clip-rule="evenodd" d="M41.0894 104.349C40.9399 103.969 40.7431 103.588 40.6411 103.222C39.9086 103.722 39.2252 104.293 38.4927 104.815C38.5492 105.257 38.6512 105.676 38.7533 106.095C39.5787 105.509 40.3131 104.929 41.0894 104.349Z" fill="#1A1A1A"/>
<path fill-rule="evenodd" clip-rule="evenodd" d="M407.78 146.226C404.664 144.738 402.142 143.333 399.482 141.988C395.575 143.092 391.834 144.091 388.105 145.171C390.392 146.551 392.982 148.159 395.722 149.681C399.806 148.572 403.806 147.365 407.78 146.226Z" fill="#1A1A1A"/>
<path fill-rule="evenodd" clip-rule="evenodd" d="M178.472 37.0002C177.378 36.6775 176.261 36.4564 175.315 36.1265C173.794 37.118 172.187 38.1476 170.747 39.1029C171.664 39.5053 172.522 39.8479 173.535 40.225C175.049 39.1863 176.821 38.0407 178.472 37.0002Z" fill="#1A1A1A"/>
<path fill-rule="evenodd" clip-rule="evenodd" d="M138.182 12.4889C137.488 12.3602 136.793 12.2497 136.112 12.2152C134.968 12.9403 133.878 13.7687 132.783 14.5627C133.431 14.675 134.084 14.7983 134.738 14.9415C135.908 14.0859 137.045 13.272 138.182 12.4889Z" fill="#1A1A1A"/>
<path fill-rule="evenodd" clip-rule="evenodd" d="M120.896 42.5162C120.266 42.3168 119.644 42.1754 119.063 41.9978C118.084 42.7011 116.976 43.4733 115.949 44.1694C116.534 44.3761 117.073 44.5682 117.662 44.7785C118.77 44.0099 119.792 43.2866 120.898 42.5162H120.896Z" fill="#1A1A1A"/>
<path fill-rule="evenodd" clip-rule="evenodd" d="M14.5507 123.756C14.3722 123.466 14.2391 123.238 14.0587 122.948C13.4811 123.343 12.9053 123.742 12.375 124.113C12.5044 124.412 12.5882 124.693 12.7686 124.936C13.3481 124.561 13.9749 124.157 14.5507 123.756Z" fill="#1A1A1A"/>
<path fill-rule="evenodd" clip-rule="evenodd" d="M106.04 58.6892C105.409 58.4825 104.819 58.245 104.239 58.0928C103.317 58.7182 102.304 59.3889 101.331 60.0124C101.916 60.2191 102.501 60.4366 103.046 60.6831C104.013 60.0251 105.028 59.3635 106.04 58.6892Z" fill="#1A1A1A"/>
<path fill-rule="evenodd" clip-rule="evenodd" d="M204.131 67.3394C202.762 66.9823 201.45 66.6179 200.189 66.2808C198.529 67.1744 196.913 68.0246 195.162 68.9599C196.457 69.2554 197.729 69.6596 198.999 70.0349C200.65 69.114 202.458 68.2004 204.131 67.3394Z" fill="#1A1A1A"/>
<path fill-rule="evenodd" clip-rule="evenodd" d="M10.1318 117.49C9.96234 117.194 9.74185 116.939 9.57056 116.71C9.00384 117.071 8.48086 117.448 7.95605 117.87C8.12552 118.122 8.29864 118.385 8.4681 118.679C9.04029 118.275 9.61064 117.87 10.1318 117.49Z" fill="#1A1A1A"/>
<path fill-rule="evenodd" clip-rule="evenodd" d="M90.7728 72.8447C90.1878 72.6399 89.5974 72.3698 89.0599 72.1541C88.1542 72.7577 87.3379 73.3106 86.4741 73.8997C86.9661 74.1281 87.4618 74.3855 88.0048 74.661C88.9123 74.0338 89.8234 73.4864 90.7728 72.8429V72.8447Z" fill="#1A1A1A"/>
<path fill-rule="evenodd" clip-rule="evenodd" d="M98.1968 48.8499C97.6848 48.7175 97.1837 48.6668 96.6753 48.5725C95.93 49.0801 95.1482 49.6474 94.3975 50.1242C94.8166 50.2148 95.3268 50.3453 95.7532 50.4903C96.5805 49.9193 97.3659 49.3683 98.1968 48.8517V48.8499Z" fill="#1A1A1A"/>
<path fill-rule="evenodd" clip-rule="evenodd" d="M474 179.626C469.842 178.375 465.445 176.89 461 175.601C456.884 176.482 452.438 177.109 448.257 177.88C452.253 179.102 456.581 180.534 460.579 181.953C465.25 181.168 469.57 180.445 474 179.627V179.626Z" fill="#1A1A1A"/>
<path fill-rule="evenodd" clip-rule="evenodd" d="M154.427 19.9626C153.511 19.9989 152.685 20.008 151.86 20.0152C150.892 20.6297 149.883 21.2714 148.84 21.9584C149.662 21.9204 150.415 21.9892 151.244 21.982C152.286 21.2968 153.33 20.6043 154.425 19.9626H154.427Z" fill="#1A1A1A"/>
<path fill-rule="evenodd" clip-rule="evenodd" d="M21.5405 121.111C21.2599 120.903 20.9793 120.687 20.7952 120.488C20.2723 120.821 19.7001 121.202 19.2227 121.507C19.4067 121.729 19.6381 121.92 19.8696 122.159C20.4417 121.773 20.9684 121.45 21.5405 121.113V121.111Z" fill="#1A1A1A"/>
<path fill-rule="evenodd" clip-rule="evenodd" d="M268.629 98.8932C266.558 98.3893 264.341 98.0884 262.229 97.6316C260.148 98.3549 258.255 98.9875 256.394 99.7307C258.311 100.082 260.387 100.577 262.553 101.072C264.578 100.325 266.657 99.6074 268.627 98.8932H268.629Z" fill="#1A1A1A"/>
<path fill-rule="evenodd" clip-rule="evenodd" d="M261.562 136.449C259.694 135.283 257.846 134.123 255.988 133.113C253.386 134.112 250.732 135.287 248.061 136.42C249.79 137.571 251.509 138.693 253.245 140.002C256.141 138.689 258.883 137.589 261.562 136.447V136.449Z" fill="#1A1A1A"/>
<path fill-rule="evenodd" clip-rule="evenodd" d="M15.6405 130.615C15.4619 130.102 15.3325 129.579 15.2013 129.131C14.4706 129.655 13.6888 130.235 12.9053 130.838C12.9836 131.362 13.0638 131.957 13.1877 132.493C13.9749 131.875 14.8077 131.246 15.6405 130.614V130.615Z" fill="#1A1A1A"/>
<path fill-rule="evenodd" clip-rule="evenodd" d="M216.336 90.0725C214.652 89.1118 213.1 88.2544 211.658 87.4187C209.442 88.6459 207.134 89.9492 204.827 91.2761C206.277 92.1662 207.573 93.2357 209.189 94.1547C211.642 92.7789 213.983 91.4103 216.336 90.0725Z" fill="#1A1A1A"/>
</g>
</g>
<path d="M0 1H1441V-1H0V1ZM1441 258H0V260H1441V258Z" fill="#262626" mask="url(#path-1-inside-1_181_358)"/>
<defs>
<clipPath id="clip0_181_358">
<path d="M0 0H1441V259H0V0Z" fill="white"/>
</clipPath>
<clipPath id="clip1_181_358">
<rect width="569" height="310" fill="white" transform="matrix(-1 0 0 1 1455 -30)"/>
</clipPath>
<clipPath id="clip2_181_358">
<rect width="474" height="258" fill="white" transform="translate(0 1)"/>
</clipPath>
</defs>
</svg>
