<svg width="474" height="258" viewBox="0 0 474 258" fill="none" xmlns="http://www.w3.org/2000/svg">
<path fill-rule="evenodd" clip-rule="evenodd" d="M116.018 3.90536C116.366 3.40687 116.869 3.58814 116.556 1.43103C115.384 -2.10193 116.876 2.09447 116.738 1.49447C116.565 2.53677 115.925 2.02922 115.533 1.97302C115.654 2.4407 115.816 3.19478 116.018 3.90536Z" fill="#1A1A1A"/>
<path fill-rule="evenodd" clip-rule="evenodd" d="M41.6089 220.083C38.8993 215.578 36.6889 210.624 34.5204 206.205C33.367 207.985 30.0614 227.462 25.4949 258.001H35.3751C38.3672 235.583 40.5921 221.681 41.6089 220.083Z" fill="#1A1A1A"/>
<path fill-rule="evenodd" clip-rule="evenodd" d="M33.1483 207.162C30.958 202.98 28.9225 198.997 26.8634 195.972C25.7427 197.594 21.7429 221.468 16.2434 258.001H25.1742C29.1704 228.013 32.075 208.878 33.1483 207.162Z" fill="#1A1A1A"/>
<path fill-rule="evenodd" clip-rule="evenodd" d="M25.8776 194.757C24.0316 192.127 22.2695 189.629 20.5293 187.255C18.4684 199.173 16.3819 210.934 14.3793 222.622C12.342 234.492 10.3321 246.302 8.375 257.975L8.5062 257.999H16.535C19.5271 237.227 22.7051 216.075 25.8776 194.756V194.757Z" fill="#1A1A1A"/>
<path fill-rule="evenodd" clip-rule="evenodd" d="M19.8059 186.018C18.2643 183.559 16.7937 181.371 15.3942 179.31C12.7411 192.394 10.0915 205.335 7.54041 218.027C4.96559 230.848 2.43815 243.523 0.00182224 255.951V256.46C2.31606 256.897 4.69408 257.33 7.13588 257.725C9.12758 245.959 11.2341 234.008 13.3588 221.953C15.4471 210.102 17.6702 198.136 19.8059 186.018Z" fill="#1A1A1A"/>
<path fill-rule="evenodd" clip-rule="evenodd" d="M14.6982 178.396C13.3789 176.426 12.3402 174.437 11.4218 172.325C8.19277 186.394 4.9255 200.339 1.90241 214.065L0.00182224 222.695V250.503C2.15935 239.647 4.39888 228.633 6.66209 217.505C9.27154 204.66 11.9703 191.571 14.7 178.398L14.6982 178.396Z" fill="#1A1A1A"/>
<path fill-rule="evenodd" clip-rule="evenodd" d="M10.7494 171.528C9.63052 169.758 8.62646 168.078 7.74086 166.227C5.14053 176.77 2.54749 187.222 0.00182224 197.571V218.448L1.09516 213.6C4.19843 199.831 7.44383 185.754 10.7494 171.53V171.528Z" fill="#1A1A1A"/>
<path fill-rule="evenodd" clip-rule="evenodd" d="M7.24521 165.457C6.3596 163.996 5.75462 162.279 5.15328 160.572C3.41669 167.076 1.70015 173.542 0.00182224 179.964V194.571C2.39988 184.971 4.83439 175.26 7.24521 165.459V165.457Z" fill="#1A1A1A"/>
<path fill-rule="evenodd" clip-rule="evenodd" d="M4.50639 160.113C3.90687 158.628 3.36567 157.106 2.98118 155.636L0.00182224 166.236V177.031C1.48877 171.423 2.99029 165.78 4.50639 160.113Z" fill="#1A1A1A"/>
<path fill-rule="evenodd" clip-rule="evenodd" d="M2.737 154.47C2.25593 153.038 1.87508 151.668 1.54343 150.441L0.00182224 155.706V164.175L2.737 154.47Z" fill="#1A1A1A"/>
<path fill-rule="evenodd" clip-rule="evenodd" d="M1.43774 149.676C1.16076 148.378 1.03685 147.073 0.861918 145.813L0.00182224 148.668V154.548L1.43774 149.676Z" fill="#1A1A1A"/>
<path fill-rule="evenodd" clip-rule="evenodd" d="M0.79085 145.336C0.668761 144.094 0.750761 142.7 0.878318 141.377L0.00182224 144.203V147.943L0.79085 145.336Z" fill="#1A1A1A"/>
<path fill-rule="evenodd" clip-rule="evenodd" d="M0.92934 140.469C0.942096 139.418 1.16259 138.19 1.38308 136.891L0.00182224 141.324V143.447L0.92934 140.469Z" fill="#1A1A1A"/>
<path fill-rule="evenodd" clip-rule="evenodd" d="M1.40494 136.559C1.61268 135.451 1.96255 134.385 2.36526 133.176L0.00364447 140.779V141.031L1.40677 136.559H1.40494Z" fill="#1A1A1A"/>
<path fill-rule="evenodd" clip-rule="evenodd" d="M2.59486 132.462C3.08322 131.411 3.6226 130.26 3.99981 129.361C2.6714 133.666 1.3357 137.971 0.00182224 142.267V140.802C0.872851 138.024 1.74024 135.246 2.59486 132.462Z" fill="#1A1A1A"/>
<path fill-rule="evenodd" clip-rule="evenodd" d="M4.41528 128.675C4.98746 127.677 5.74915 126.553 6.5072 125.492C4.3351 132.6 2.15753 139.704 0 146.788V142.981C1.47601 138.214 2.95384 133.437 4.41346 128.675H4.41528Z" fill="#1A1A1A"/>
<path fill-rule="evenodd" clip-rule="evenodd" d="M117.664 258.001C112.41 252.896 107.417 248.147 102.679 243.3C99.7638 248.091 96.7152 253.034 93.6739 258.001H117.664Z" fill="#1A1A1A"/>
<path fill-rule="evenodd" clip-rule="evenodd" d="M99.9752 240.851C94.5522 235.152 89.521 230.428 84.7868 226.065C79.4386 233.435 74.4821 240.59 69.2523 248.52C71.5902 251.384 73.9773 254.6 76.4756 258.003H89.2531C92.8539 252.117 96.4254 246.427 99.9752 240.851Z" fill="#1A1A1A"/>
<path fill-rule="evenodd" clip-rule="evenodd" d="M82.5692 223.728C77.8787 219.541 73.7477 215.56 69.737 211.73C65.0484 218.014 60.2377 224.718 55.5472 231.331C59.1279 235.908 63.0803 240.588 67.1458 245.76C72.3136 238.286 77.2628 231.04 82.5692 223.728Z" fill="#1A1A1A"/>
<path fill-rule="evenodd" clip-rule="evenodd" d="M67.7945 209.968C64.0953 206.729 60.5493 203.44 57.2291 200.386C53.0726 205.891 48.7612 211.239 44.3933 216.943C47.4346 220.697 50.5361 224.66 53.8416 229.117C58.4974 222.698 63.2043 216.077 67.7963 209.968H67.7945Z" fill="#1A1A1A"/>
<path fill-rule="evenodd" clip-rule="evenodd" d="M45.7053 189.149C43.1597 186.627 40.6541 184.378 38.2342 182.203C34.8029 186.265 31.0545 190.733 27.6342 195.053C29.5731 197.66 31.8235 200.444 34.0667 203.616C37.9626 198.515 41.7675 194.067 45.7053 189.149Z" fill="#1A1A1A"/>
<path fill-rule="evenodd" clip-rule="evenodd" d="M36.8274 181.456C34.6644 179.339 32.4759 177.417 30.5735 175.271C27.5048 178.891 24.2868 182.621 21.2965 186.241C22.9274 188.687 24.746 191.137 26.6447 193.75C29.963 189.682 33.5 185.438 36.8274 181.456Z" fill="#1A1A1A"/>
<path fill-rule="evenodd" clip-rule="evenodd" d="M29.1959 174.035C27.4374 172.09 25.7518 170.319 24.1373 168.558C21.3329 171.751 18.441 175.124 15.7824 178.269C17.0707 180.287 18.5923 182.331 20.1867 184.583C23.1752 181.001 26.3368 177.414 29.1977 174.035H29.1959Z" fill="#1A1A1A"/>
<path fill-rule="evenodd" clip-rule="evenodd" d="M23.1224 167.578C21.5862 166.07 20.2195 164.5 18.7599 163.044C16.3309 165.78 13.7688 168.582 11.3361 171.317C12.3602 173.288 13.5574 175.224 14.6581 177.307C17.4789 174.138 20.4218 170.779 23.1224 167.578Z" fill="#1A1A1A"/>
<path fill-rule="evenodd" clip-rule="evenodd" d="M18.1932 162.283C16.9085 160.898 15.7387 159.29 14.731 157.858C12.4696 160.298 10.343 162.702 7.92673 165.299C8.91985 167.05 9.9239 168.705 10.9863 170.503C13.3606 167.853 15.8152 165.103 18.195 162.283H18.1932Z" fill="#1A1A1A"/>
<path fill-rule="evenodd" clip-rule="evenodd" d="M14.0822 156.731C12.9889 155.456 12.0504 154.247 11.0701 153C8.97269 155.275 6.90263 157.615 5.09133 159.609C5.69449 161.184 6.51449 162.664 7.17961 164.357C9.43372 161.815 11.7716 159.2 14.0841 156.731H14.0822Z" fill="#1A1A1A"/>
<path fill-rule="evenodd" clip-rule="evenodd" d="M10.6783 152.607C9.8091 151.365 9.10025 150.018 8.34037 148.929C6.67121 150.665 4.98564 152.587 3.34198 154.443C3.83034 155.884 4.26768 157.416 4.86537 158.9C6.78236 156.789 8.69024 154.675 10.6783 152.607Z" fill="#1A1A1A"/>
<path fill-rule="evenodd" clip-rule="evenodd" d="M8.01784 148.191C7.26526 147.149 6.81698 145.945 6.37236 144.827C4.92368 146.34 3.41305 147.924 1.99717 149.471C2.27415 150.794 2.70602 152.097 2.97936 153.658C4.61937 151.883 6.4088 149.886 8.01966 148.191H8.01784Z" fill="#1A1A1A"/>
<path fill-rule="evenodd" clip-rule="evenodd" d="M6.04618 144.343C5.70724 143.177 5.31364 142.196 4.9747 141.098C3.68821 142.439 2.54384 143.753 1.19356 145.171C1.37214 146.375 1.54708 147.673 1.82406 148.925C3.29278 147.308 4.70137 145.776 6.04618 144.344V144.343Z" fill="#1A1A1A"/>
<path fill-rule="evenodd" clip-rule="evenodd" d="M4.81617 140.313C4.62666 139.238 4.38612 138.286 4.34786 137.15C3.17069 138.424 2.14295 139.539 1.16441 140.576C1.03685 141.917 1.06783 143.092 1.1389 144.406C2.28326 143.159 3.62989 141.647 4.81617 140.315V140.313Z" fill="#1A1A1A"/>
<path fill-rule="evenodd" clip-rule="evenodd" d="M22.1529 110.771C23.6399 109.972 25.0357 109.22 26.5664 108.607C26.5646 108.826 26.6101 108.959 26.7486 108.944C25.1232 109.706 23.4012 110.713 22.0491 111.437C22.0545 111.141 22.0545 111.056 22.1529 110.771Z" fill="#1A1A1A"/>
<path fill-rule="evenodd" clip-rule="evenodd" d="M4.16563 133.291C4.36608 132.268 4.51186 131.288 4.74875 130.426C4.14741 131.021 3.34198 131.891 2.68233 132.638C2.32882 133.794 1.97895 134.926 1.61997 136.097C2.5894 135.069 3.30554 134.246 4.16381 133.291H4.16563Z" fill="#1A1A1A"/>
<path fill-rule="evenodd" clip-rule="evenodd" d="M5.0239 129.651C5.3592 128.704 5.7364 127.744 6.1136 126.819C5.51409 127.51 5.06217 128.108 4.46083 128.775C3.83398 129.884 3.34745 130.939 2.85544 132.101C3.61896 131.202 4.22394 130.503 5.02573 129.651H5.0239Z" fill="#1A1A1A"/>
<path fill-rule="evenodd" clip-rule="evenodd" d="M12.1306 118.461C12.998 117.556 13.9073 116.724 14.8603 115.977C14.618 116.315 14.3738 116.668 14.1788 116.953C13.1256 117.89 12.1197 118.76 11.1557 119.655C11.4965 119.28 11.6933 118.999 12.1306 118.461Z" fill="#1A1A1A"/>
<path fill-rule="evenodd" clip-rule="evenodd" d="M171.671 249.557C162.492 243.378 154.546 237.525 146.253 232.144C141.307 240.537 136.167 248.834 130.975 258.003H167.154C168.646 255.157 170.151 252.342 171.671 249.557Z" fill="#1A1A1A"/>
<path fill-rule="evenodd" clip-rule="evenodd" d="M142.535 229.761C135.241 224.618 128.418 219.693 122.104 215.179C116.809 223.063 111.565 230.917 106.342 239.257C112.472 244.933 118.746 251.252 125.917 257.388C131.414 247.725 137.129 238.705 142.535 229.761Z" fill="#1A1A1A"/>
<path fill-rule="evenodd" clip-rule="evenodd" d="M119.083 213.075C113.033 209.573 107.68 205.71 102.473 202.113C97.67 208.545 92.7081 215.288 87.9119 222.323C92.7955 226.9 97.8049 231.572 103.419 236.93C108.769 228.537 113.769 220.63 119.083 213.075Z" fill="#1A1A1A"/>
<path fill-rule="evenodd" clip-rule="evenodd" d="M100.103 200.201C95.0879 196.971 90.5159 193.697 86.1116 190.947C81.7036 196.452 77.0132 202.693 72.5359 209.06C76.636 212.662 81.0057 216.176 85.7216 220.211C90.3374 213.49 95.2665 206.81 100.103 200.201Z" fill="#1A1A1A"/>
<path fill-rule="evenodd" clip-rule="evenodd" d="M84.0124 189.606C79.8176 187.117 76.0273 184.467 72.268 182.302C68.0878 187.217 64.0807 192.327 59.8112 197.817C63.1678 200.743 66.8615 203.727 70.5679 207.042C74.9996 201.229 79.5934 195.071 84.0124 189.606Z" fill="#1A1A1A"/>
<path fill-rule="evenodd" clip-rule="evenodd" d="M34.0175 105.805C33.0426 105.705 32.1606 105.6 31.3734 105.447C29.7589 107.037 28.2775 108.52 26.6958 110.028C27.4848 110.137 28.2283 110.394 29.0665 110.59C30.6956 109.053 32.2682 107.454 34.0175 105.805Z" fill="#1A1A1A"/>
<path fill-rule="evenodd" clip-rule="evenodd" d="M59.1224 173.435C56.154 171.66 53.4662 169.78 50.7037 168.055C47.2816 172.122 43.7574 176.21 40.2988 180.366C42.7642 182.351 45.3208 184.548 48.0724 186.756C51.7151 182.275 55.3686 177.892 59.1224 173.435Z" fill="#1A1A1A"/>
<path fill-rule="evenodd" clip-rule="evenodd" d="M49.1621 167.502C46.7003 165.774 44.2165 164.219 41.8549 162.629C38.9157 166.017 35.8416 169.561 32.8914 173.139C34.8995 175.142 37.0333 177.04 39.2528 179.105C42.5128 175.336 45.8329 171.412 49.1621 167.502Z" fill="#1A1A1A"/>
<path fill-rule="evenodd" clip-rule="evenodd" d="M40.3844 161.688C38.1667 160.342 36.3809 158.766 34.4093 157.483C31.6085 160.608 28.7822 163.7 26.1327 166.784C27.7472 168.473 29.5384 170.123 31.4591 171.974C34.5113 168.254 37.4907 164.908 40.3826 161.688H40.3844Z" fill="#1A1A1A"/>
<path fill-rule="evenodd" clip-rule="evenodd" d="M33.2941 156.625C31.4463 155.331 29.768 154.019 28.0041 153.005C25.5569 155.656 22.9857 158.415 20.3854 161.516C21.7921 162.977 23.2663 164.404 24.9118 166.064C27.6142 163.004 30.4933 159.68 33.2941 156.625Z" fill="#1A1A1A"/>
<path fill-rule="evenodd" clip-rule="evenodd" d="M27.3809 152.449C25.8357 151.222 24.3524 150.189 23.0804 148.999C20.8391 151.427 18.5267 153.943 16.2944 156.306C17.4588 157.68 18.6324 159.2 20.0246 160.688C22.4645 157.833 24.9318 155.141 27.3809 152.447V152.449Z" fill="#1A1A1A"/>
<path fill-rule="evenodd" clip-rule="evenodd" d="M22.1711 148.186C20.8136 147.301 19.7184 146.121 18.6287 145.108C16.4912 147.334 14.3337 149.676 12.209 152.059C13.3479 153.093 14.2335 154.472 15.2813 155.728C17.5153 153.25 19.9316 150.633 22.1711 148.187V148.186Z" fill="#1A1A1A"/>
<path fill-rule="evenodd" clip-rule="evenodd" d="M18.031 144.789C16.8484 143.927 16.0758 142.78 15.1063 141.796C13.2768 143.699 11.3835 145.726 9.63052 147.658C10.4943 148.738 11.2578 149.946 12.1288 151.193C14.095 149.052 16.0466 146.906 18.031 144.789Z" fill="#1A1A1A"/>
<path fill-rule="evenodd" clip-rule="evenodd" d="M9.73621 135.274C9.34078 134.331 8.99091 133.494 8.69024 132.629C7.43472 133.956 6.32498 135.13 5.16057 136.374C5.35008 137.382 5.64346 138.31 5.73275 139.49C7.15774 138.02 8.42966 136.635 9.73803 135.275L9.73621 135.274Z" fill="#1A1A1A"/>
<path fill-rule="evenodd" clip-rule="evenodd" d="M8.36588 132.324C8.26566 131.317 7.96317 130.626 7.9085 129.783C6.95912 130.773 5.95507 131.842 4.99839 132.885C4.94919 133.845 5.04213 134.849 5.1387 135.807C6.20289 134.641 7.26161 133.455 8.36588 132.324Z" fill="#1A1A1A"/>
<path fill-rule="evenodd" clip-rule="evenodd" d="M8.05611 126.473C8.13446 125.846 8.36406 124.921 8.53535 124.227C7.89393 124.936 7.19783 125.735 6.60378 126.388C6.13182 127.368 5.802 128.3 5.51591 129.243C6.36143 128.382 7.16321 127.436 8.05428 126.475L8.05611 126.473Z" fill="#1A1A1A"/>
<path fill-rule="evenodd" clip-rule="evenodd" d="M9.67425 121.735C10.0278 121.126 10.5744 120.212 11.3106 119.304C10.9188 119.817 10.4287 120.37 10.2282 120.765C9.34625 121.822 8.70118 122.663 8.00326 123.614C8.49891 123.025 9.13669 122.34 9.67607 121.735H9.67425Z" fill="#1A1A1A"/>
<path fill-rule="evenodd" clip-rule="evenodd" d="M14.6453 115.439C15.3177 114.698 16.0302 114.04 16.6917 113.451C16.2616 114.007 15.8771 114.535 15.4489 114.991C14.638 115.744 13.8235 116.558 13.1055 117.208C13.685 116.561 14.1169 116.072 14.6471 115.439H14.6453Z" fill="#1A1A1A"/>
<path fill-rule="evenodd" clip-rule="evenodd" d="M12.8941 119.193C13.0071 118.628 13.2622 118.019 13.3752 117.448C12.6973 118.247 11.9703 119.05 11.2906 119.773C11.0355 120.435 10.6783 121.158 10.4141 121.872C11.1958 121.04 12.0705 120.15 12.8941 119.193Z" fill="#1A1A1A"/>
<path fill-rule="evenodd" clip-rule="evenodd" d="M323.396 162.687C308.432 159.537 294.681 156.432 281.73 153.477C276.739 161.527 271.644 169.215 266.874 177.464C279.436 180.961 293.296 185.467 308.643 190.057C313.636 180.557 318.476 171.569 323.398 162.687H323.396Z" fill="#1A1A1A"/>
<path fill-rule="evenodd" clip-rule="evenodd" d="M237.097 153.596C226.65 151.28 217.458 148.996 208.311 147.268C203.824 153.344 198.939 159.638 194.068 166.236C202.993 168.948 212.362 171.859 222.429 175.081C227.12 167.844 232.226 160.412 237.097 153.595V153.596Z" fill="#1A1A1A"/>
<path fill-rule="evenodd" clip-rule="evenodd" d="M224.806 106.305C216.485 105.971 208.701 105.467 201.189 105.069C196.964 109.684 192.827 114.185 188.851 118.861C196.136 119.523 203.874 120.364 212.105 121.568C216.212 116.296 220.312 111.192 224.806 106.305Z" fill="#1A1A1A"/>
<path fill-rule="evenodd" clip-rule="evenodd" d="M269.013 258.001C258.348 252.343 248.367 246.992 238.968 241.835C236.282 247.115 233.591 252.501 230.93 258.001H269.013Z" fill="#1A1A1A"/>
<path fill-rule="evenodd" clip-rule="evenodd" d="M232.583 238.523C220.337 232.01 209.548 225.731 198.992 220.112C193.454 229.694 187.781 239.999 182.136 250.284C185.591 252.84 189.108 255.403 192.714 258.001H223.078C226.294 251.345 229.456 244.875 232.583 238.523Z" fill="#1A1A1A"/>
<path fill-rule="evenodd" clip-rule="evenodd" d="M194.108 217.59C184.551 212.899 175.727 208.541 167.622 204.222C162.399 212.152 156.836 220.665 151.812 229.447C159.708 234.918 168.201 240.532 177.54 246.579C182.936 236.45 188.569 227.04 194.108 217.59Z" fill="#1A1A1A"/>
<path fill-rule="evenodd" clip-rule="evenodd" d="M163.185 203.018C155.289 198.979 148.093 195.448 141.271 192.075C136.567 198.76 131.606 205.677 126.618 212.712C133.169 217.175 140.341 222.095 147.894 227.27C153.077 218.54 158.075 210.818 163.185 203.016V203.018Z" fill="#1A1A1A"/>
<path fill-rule="evenodd" clip-rule="evenodd" d="M137.063 189.615C130.758 186.707 124.805 183.872 119.167 181.052C114.668 186.818 110.149 192.903 105.624 199.155C110.961 202.851 116.547 206.382 122.644 209.908C127.369 203.223 132.254 196.382 137.063 189.617V189.615Z" fill="#1A1A1A"/>
<path fill-rule="evenodd" clip-rule="evenodd" d="M115.907 179.4C110.783 176.504 105.877 174.366 101.01 172.249C96.7753 177.64 92.4293 183.149 87.963 188.716C92.566 191.299 97.3785 194.297 102.229 197.627C106.723 191.466 111.417 185.29 115.907 179.4Z" fill="#1A1A1A"/>
<path fill-rule="evenodd" clip-rule="evenodd" d="M98.88 171.656C94.5558 169.563 90.2863 167.594 86.1298 165.852C82.4489 170.496 78.5548 175.124 74.7117 179.754C78.4855 182.09 82.4817 184.606 86.5343 187.304C90.7036 182.003 94.913 176.699 98.8782 171.656H98.88Z" fill="#1A1A1A"/>
<path fill-rule="evenodd" clip-rule="evenodd" d="M71.4098 158.919C67.9749 157.671 64.9755 156.274 61.9961 154.898C58.7908 158.509 55.4579 162.301 52.3875 165.874C55.0935 167.62 57.7248 169.499 60.9538 171.154C64.3395 167.081 67.8382 162.966 71.4098 158.917V158.919Z" fill="#1A1A1A"/>
<path fill-rule="evenodd" clip-rule="evenodd" d="M60.4126 154.253C57.5189 152.882 54.9058 151.517 52.3346 150.508C49.3498 153.747 46.5873 156.901 43.4986 160.403C45.8529 161.935 48.2765 163.414 50.7821 165.109C54.0639 161.431 57.1471 157.811 60.4126 154.253Z" fill="#1A1A1A"/>
<path fill-rule="evenodd" clip-rule="evenodd" d="M51.0536 150.004C48.7084 148.9 46.58 147.754 44.3714 146.797C41.567 149.799 38.7808 152.744 36.2862 155.717C38.1066 157.059 40.2477 158.344 42.3579 159.723C45.3536 156.408 48.22 153.196 51.0518 150.004H51.0536Z" fill="#1A1A1A"/>
<path fill-rule="evenodd" clip-rule="evenodd" d="M42.7624 146.378C40.6231 145.418 38.7043 144.513 36.8456 143.476C34.6225 145.878 31.9839 148.7 29.7261 151.283C31.337 152.449 33.1665 153.609 35.0161 154.923C37.5162 152.021 40.2022 149.163 42.7624 146.378Z" fill="#1A1A1A"/>
<path fill-rule="evenodd" clip-rule="evenodd" d="M35.8179 142.952C34.0321 142.158 32.2518 141.373 30.6846 140.574C28.5052 142.887 26.4097 145.175 24.243 147.435C25.6152 148.472 27.1987 149.429 28.6929 150.709C31.0527 148.044 33.3433 145.499 35.8179 142.954V142.952Z" fill="#1A1A1A"/>
<path fill-rule="evenodd" clip-rule="evenodd" d="M30.2272 140.132C28.6692 139.39 27.3208 138.562 25.832 137.891C23.946 139.824 21.9488 141.95 19.9371 144.038C21.1798 144.97 22.3807 146.021 23.7383 147.092C25.8521 144.767 28.0479 142.492 30.2272 140.132Z" fill="#1A1A1A"/>
<path fill-rule="evenodd" clip-rule="evenodd" d="M25.1888 137.239C24.0043 136.363 22.829 135.54 21.6573 134.922C19.7257 136.949 17.9782 138.79 16.2179 140.668C17.1381 141.658 18.164 142.577 19.2465 143.556C21.2582 141.395 23.2536 139.336 25.1888 137.237V137.239Z" fill="#1A1A1A"/>
<path fill-rule="evenodd" clip-rule="evenodd" d="M20.9758 134.48C19.9097 133.9 18.8984 133.291 18.0365 132.529C16.4001 134.26 14.9059 135.827 13.1493 137.701C13.9073 138.544 14.6708 139.367 15.5364 140.217C17.2948 138.39 19.0405 136.591 20.9758 134.48Z" fill="#1A1A1A"/>
<path fill-rule="evenodd" clip-rule="evenodd" d="M184.166 128.113C177.202 127.156 170.565 126.339 164.123 125.331C160.105 130.151 156.058 134.799 151.798 139.637C157.937 140.931 164.471 142.153 171.432 143.871C175.707 138.48 179.993 133.291 184.168 128.113H184.166Z" fill="#1A1A1A"/>
<path fill-rule="evenodd" clip-rule="evenodd" d="M54.9222 103.298C53.0271 103.312 51.2303 103.316 49.532 103.345C47.5421 105.339 45.4903 107.284 43.5715 109.22C45.2297 109.191 46.6675 109.468 48.4824 109.533C50.578 107.44 52.7082 105.351 54.924 103.296L54.9222 103.298Z" fill="#1A1A1A"/>
<path fill-rule="evenodd" clip-rule="evenodd" d="M54.6233 97.1036C52.905 97.3121 51.2759 97.4698 49.6978 97.5985C47.7663 99.4112 45.9203 101.153 44.1127 102.864C45.565 102.873 47.0647 102.855 48.6118 102.794C50.5506 100.948 52.6116 99.0015 54.6233 97.1036Z" fill="#1A1A1A"/>
<path fill-rule="evenodd" clip-rule="evenodd" d="M384.672 258.001C379.594 255.86 374.632 253.752 369.792 251.669C368.979 253.748 368.181 255.86 367.394 258.001H384.674H384.672Z" fill="#1A1A1A"/>
<path fill-rule="evenodd" clip-rule="evenodd" d="M180.429 82.6255C174.423 82.9391 168.719 83.2147 163.287 83.4721C159.938 86.793 156.623 90.161 153.204 93.3767C158.638 93.4093 164.076 93.3332 169.925 93.2534C173.318 89.657 176.91 86.1404 180.427 82.6255H180.429Z" fill="#1A1A1A"/>
<path fill-rule="evenodd" clip-rule="evenodd" d="M297.054 221.081C281.769 214.835 267.752 209.312 254.413 204.205C249.216 213.805 243.653 224.121 238.58 235.173C251.674 242.015 265.39 248.961 280.725 256.393C285.909 244.384 291.509 232.485 297.052 221.081H297.054Z" fill="#1A1A1A"/>
<path fill-rule="evenodd" clip-rule="evenodd" d="M210.514 187.046C200.843 183.453 191.637 180.258 183.102 177.113C178.131 184.22 173.065 191.756 168.138 199.374C176.296 203.547 185.281 207.785 194.464 212.072C199.814 203.68 205.153 195.04 210.512 187.048L210.514 187.046Z" fill="#1A1A1A"/>
<path fill-rule="evenodd" clip-rule="evenodd" d="M151.827 166.893C145.145 164.632 139.048 162.568 133.242 160.441C129.033 165.622 124.628 171.25 120.402 177.036C125.931 179.705 131.983 182.536 138.093 185.462C142.51 179.034 147.268 172.735 151.829 166.893H151.827Z" fill="#1A1A1A"/>
<path fill-rule="evenodd" clip-rule="evenodd" d="M129.925 159.413C124.391 157.557 119.207 155.917 114.238 154.418C110.076 159.328 106.036 164.313 101.874 169.271C106.601 171.288 111.417 173.315 116.627 175.836C121.14 170.047 125.465 164.471 129.925 159.413Z" fill="#1A1A1A"/>
<path fill-rule="evenodd" clip-rule="evenodd" d="M112.097 153.872C107.49 152.387 103.02 150.926 98.634 149.442C94.9804 153.77 91.325 158.025 87.5894 162.439C91.6293 164.246 95.8952 166.274 100.236 168.229C104.299 163.332 108.312 158.494 112.095 153.87L112.097 153.872Z" fill="#1A1A1A"/>
<path fill-rule="evenodd" clip-rule="evenodd" d="M95.7366 148.563C91.8061 147.379 87.9557 146.241 84.4388 145.108C80.7651 149.199 77.2774 153.006 73.837 157.097C77.1352 158.396 80.685 159.87 84.5718 161.726C88.2381 157.07 92.1013 152.706 95.7366 148.563Z" fill="#1A1A1A"/>
<path fill-rule="evenodd" clip-rule="evenodd" d="M82.7149 144.741C79.1415 143.757 75.9399 142.63 72.7218 141.705C69.5693 145.108 66.3549 148.766 63.3591 152.309C66.2656 153.58 69.2541 154.992 72.7236 156.169C75.9453 152.491 79.3657 148.508 82.7131 144.741H82.7149Z" fill="#1A1A1A"/>
<path fill-rule="evenodd" clip-rule="evenodd" d="M71.0089 141.154C67.9293 140.326 65.0301 139.608 62.2931 138.808C59.4049 141.957 56.4328 145.055 53.6904 148.138C56.1959 149.09 58.942 150.212 61.6681 151.559C64.7167 147.99 67.8546 144.595 71.0089 141.154Z" fill="#1A1A1A"/>
<path fill-rule="evenodd" clip-rule="evenodd" d="M61.0322 138.413C58.4227 137.695 55.9262 136.934 53.5373 136.1C50.8677 138.973 48.1726 141.837 45.6561 144.631C47.759 145.639 50.0805 146.639 52.464 147.576C55.3158 144.56 58.1348 141.459 61.034 138.413H61.0322Z" fill="#1A1A1A"/>
<path fill-rule="evenodd" clip-rule="evenodd" d="M51.8991 135.812C49.5885 135.112 47.5367 134.324 45.5541 133.7C43.0995 136.16 40.6832 138.682 38.2943 141.127C40.0527 142.216 42.0681 143.201 44.2494 144.082C46.8205 141.265 49.3206 138.549 51.9009 135.812H51.8991Z" fill="#1A1A1A"/>
<path fill-rule="evenodd" clip-rule="evenodd" d="M44.0963 133.581C42.1757 132.919 40.266 132.362 38.4146 131.853C36.3901 133.97 34.156 136.283 32.1023 138.533C33.766 139.218 35.3896 139.998 37.1718 140.759C39.4131 138.408 41.7383 136.044 44.0963 133.579V133.581Z" fill="#1A1A1A"/>
<path fill-rule="evenodd" clip-rule="evenodd" d="M37.9098 131.467C36.3117 130.814 34.7263 130.211 33.0973 129.674C31.1621 131.677 29.0719 133.918 27.1622 135.941C28.6018 136.664 29.9976 137.434 31.501 138.178C33.6039 135.952 35.7924 133.762 37.9116 131.469L37.9098 131.467Z" fill="#1A1A1A"/>
<path fill-rule="evenodd" clip-rule="evenodd" d="M32.3556 129.223C30.8851 128.675 29.5658 128.191 28.2027 127.776C26.3131 129.645 24.4617 131.472 22.6467 133.419C23.864 134.005 25.0393 134.714 26.2694 135.489C28.2793 133.43 30.2746 131.298 32.3538 129.223H32.3556Z" fill="#1A1A1A"/>
<path fill-rule="evenodd" clip-rule="evenodd" d="M139.408 122.795C134.189 122.262 129.166 121.858 124.348 121.33C120.785 125.164 117.152 129.091 113.527 132.962C118.176 133.742 122.817 134.675 128.028 135.73C131.83 131.335 135.591 126.962 139.408 122.795Z" fill="#1A1A1A"/>
<path fill-rule="evenodd" clip-rule="evenodd" d="M122.159 120.982C117.616 120.411 113.177 120.025 109.19 119.494C105.699 123.076 102.246 126.739 99.0039 130.327C102.951 131.092 107.024 131.864 111.422 132.567C114.914 128.81 118.595 124.803 122.159 120.982Z" fill="#1A1A1A"/>
<path fill-rule="evenodd" clip-rule="evenodd" d="M107.211 119.275C103.068 118.876 99.352 118.522 95.7476 118.176C92.6261 121.345 89.3515 124.742 86.2355 127.996C89.7014 128.648 93.2857 129.308 97.0596 130.107C100.343 126.406 103.807 122.752 107.211 119.275Z" fill="#1A1A1A"/>
<path fill-rule="evenodd" clip-rule="evenodd" d="M94.0474 117.98C90.5196 117.643 87.1703 117.438 83.9723 117.143C81.0439 120.098 77.9297 123.366 75.1035 126.274C78.1484 126.787 81.341 127.167 84.6119 127.682C87.5985 124.566 90.9277 121.169 94.0492 117.98H94.0474Z" fill="#1A1A1A"/>
<path fill-rule="evenodd" clip-rule="evenodd" d="M82.407 117.029C79.3201 116.686 76.4355 116.267 73.54 116.153C70.8194 118.86 68.0332 121.677 65.2834 124.588C67.8783 125.036 70.6408 125.549 73.6202 126.101C76.4865 123.042 79.526 119.978 82.407 117.029Z" fill="#1A1A1A"/>
<path fill-rule="evenodd" clip-rule="evenodd" d="M72.1988 116.106C69.5019 115.849 67.0145 115.611 64.4907 115.445C61.8357 118.009 59.168 120.649 56.861 123.1C59.0732 123.542 61.4421 123.999 64.0589 124.327C66.7212 121.486 69.3707 118.803 72.197 116.106H72.1988Z" fill="#1A1A1A"/>
<path fill-rule="evenodd" clip-rule="evenodd" d="M63.3555 115.359C60.9374 115.113 58.5812 114.955 56.4711 114.727C54.0311 117.101 51.6294 119.55 49.255 121.916C51.2431 122.382 53.5227 122.619 55.6638 122.935C58.1676 120.457 60.6477 117.924 63.3555 115.361V115.359Z" fill="#1A1A1A"/>
<path fill-rule="evenodd" clip-rule="evenodd" d="M55.2557 114.765C53.1109 114.574 51.1137 114.384 49.2204 114.208C47.1467 116.354 44.9619 118.513 42.7606 120.616C44.5701 120.921 46.4889 121.383 48.3166 121.791C50.5962 119.422 52.8649 117.172 55.2557 114.765Z" fill="#1A1A1A"/>
<path fill-rule="evenodd" clip-rule="evenodd" d="M48.0597 114.083C46.2265 113.954 44.5883 113.741 42.91 113.659C40.911 115.557 38.9029 117.531 36.8857 119.534C38.4346 119.82 39.8924 120.167 41.5433 120.438C43.6972 118.33 45.9331 116.175 48.0597 114.081V114.083Z" fill="#1A1A1A"/>
<path fill-rule="evenodd" clip-rule="evenodd" d="M41.9479 113.489C40.3698 113.298 38.9849 113.128 37.5125 112.999C35.601 114.864 33.6786 116.672 31.7944 118.613C33.0882 118.927 34.4803 119.155 35.9254 119.521C37.897 117.504 39.9525 115.472 41.9497 113.489H41.9479Z" fill="#1A1A1A"/>
<path fill-rule="evenodd" clip-rule="evenodd" d="M36.893 112.965C35.5628 112.745 34.4257 112.464 33.2449 112.241C31.5174 113.969 29.7352 115.72 28.1299 117.342C29.1722 117.652 30.3603 117.951 31.4573 118.318C33.2467 116.529 35.1218 114.712 36.893 112.965Z" fill="#1A1A1A"/>
<path fill-rule="evenodd" clip-rule="evenodd" d="M32.4923 112.089C31.4573 111.884 30.3311 111.823 29.3945 111.571C27.7581 113.184 26.1108 114.783 24.6002 116.324C25.4439 116.608 26.2912 116.918 27.2825 117.185C28.9335 115.568 30.7193 113.893 32.4941 112.089H32.4923Z" fill="#1A1A1A"/>
<path fill-rule="evenodd" clip-rule="evenodd" d="M20.7243 113.061C20.4054 112.789 20.1375 112.367 19.9097 112.066C18.8219 113.217 17.734 114.23 16.8265 115.249C16.8101 115.749 16.9851 116.191 17.2056 116.619C18.3973 115.439 19.4925 114.312 20.7225 113.061H20.7243Z" fill="#1A1A1A"/>
<path fill-rule="evenodd" clip-rule="evenodd" d="M41.9406 103.664C44.5427 103.113 47.0993 102.56 50.035 101.98C50.7256 101.628 51.3761 101.467 52.2071 101.157C49.091 101.918 46.2556 102.522 43.515 103.169C42.8736 103.602 42.4453 103.403 41.9406 103.664Z" fill="#1A1A1A"/>
<path fill-rule="evenodd" clip-rule="evenodd" d="M59.6564 100.758C63.3409 100.439 67.0692 100.448 71.1273 100.263C71.889 100.192 72.7491 100.129 73.6384 99.8589C69.3999 100.263 65.5167 100.173 61.7702 100.397C60.8882 100.725 60.2158 100.608 59.6564 100.76V100.758Z" fill="#1A1A1A"/>
<path fill-rule="evenodd" clip-rule="evenodd" d="M133.513 108.417C128.814 108.118 124.151 107.951 119.94 107.679C116.565 111.056 113.23 114.491 109.976 117.988C114.139 118.406 118.577 118.811 122.995 119.324C126.48 115.561 130.084 111.826 133.512 108.415L133.513 108.417Z" fill="#1A1A1A"/>
<path fill-rule="evenodd" clip-rule="evenodd" d="M117.891 107.561C113.686 107.494 109.693 107.409 105.945 107.247C102.903 110.369 99.5579 113.637 96.6113 116.753C100.157 117.101 104.01 117.371 107.988 117.696C111.209 114.293 114.604 110.855 117.891 107.563V107.561Z" fill="#1A1A1A"/>
<path fill-rule="evenodd" clip-rule="evenodd" d="M104.139 107.233C100.425 107.142 96.9357 107.148 93.4935 107.066C90.5706 109.849 87.655 112.809 84.8233 115.858C88.0559 116.034 91.3997 116.267 94.8856 116.675C97.7866 113.574 101.087 110.291 104.141 107.231L104.139 107.233Z" fill="#1A1A1A"/>
<path fill-rule="evenodd" clip-rule="evenodd" d="M91.8899 106.967C88.6117 106.899 85.5558 106.957 82.5892 106.861C79.7848 109.55 77.0569 112.229 74.4055 114.888C77.199 115.011 80.1219 115.363 83.2525 115.702C86.1061 112.791 89.0199 109.783 91.8899 106.967Z" fill="#1A1A1A"/>
<path fill-rule="evenodd" clip-rule="evenodd" d="M81.1587 106.794C78.2195 106.85 75.6611 106.713 72.9805 106.738C70.3383 109.289 67.769 111.743 65.2798 114.241C67.7526 114.464 70.3328 114.674 73.0662 114.845C75.7157 112.138 78.4108 109.579 81.1587 106.794Z" fill="#1A1A1A"/>
<path fill-rule="evenodd" clip-rule="evenodd" d="M71.7542 106.647C69.1302 106.618 66.7522 106.609 64.3778 106.524C61.9433 108.873 59.5889 111.196 57.2237 113.565C59.3448 113.974 61.6462 114.078 64.0552 114.244C66.6392 111.68 69.0646 109.202 71.756 106.647H71.7542Z" fill="#1A1A1A"/>
<path fill-rule="evenodd" clip-rule="evenodd" d="M63.2699 106.551C61.054 106.551 58.8017 106.651 56.8811 106.599C54.658 108.678 52.3802 110.904 50.1297 113.035C52.0631 113.15 54.053 113.311 56.154 113.559C58.4264 111.205 60.8809 108.897 63.2699 106.551Z" fill="#1A1A1A"/>
<path fill-rule="evenodd" clip-rule="evenodd" d="M145.289 95.8909C140.345 95.9435 135.574 96.0142 131.117 96.1247C127.864 99.384 124.621 102.518 121.417 105.75C125.802 105.897 130.414 106.116 135.044 106.316C138.515 102.81 141.998 99.2553 145.289 95.8927V95.8909Z" fill="#1A1A1A"/>
<path fill-rule="evenodd" clip-rule="evenodd" d="M129.036 96.2716C124.685 96.2861 120.473 96.4764 116.556 96.6051C113.476 99.5979 110.375 102.591 107.388 105.563C111.198 105.525 115.282 105.587 119.397 105.777C122.542 102.471 125.756 99.3731 129.036 96.2716Z" fill="#1A1A1A"/>
<path fill-rule="evenodd" clip-rule="evenodd" d="M114.575 96.6377C110.717 96.7139 106.982 96.8661 103.454 97.0238C100.642 99.7266 97.7793 102.515 94.913 105.446C98.2932 105.469 101.837 105.536 105.493 105.592C108.472 102.576 111.574 99.5272 114.573 96.6377H114.575Z" fill="#1A1A1A"/>
<path fill-rule="evenodd" clip-rule="evenodd" d="M101.834 97.042C98.3242 97.2414 95.2938 97.303 92.0922 97.4843C89.2495 100.125 86.6692 102.661 83.9377 105.301C86.9881 105.315 90.0913 105.283 93.4151 105.348C96.1011 102.542 98.9693 99.7538 101.834 97.042Z" fill="#1A1A1A"/>
<path fill-rule="evenodd" clip-rule="evenodd" d="M90.4503 97.622C87.5347 97.6782 84.6793 97.7598 81.8384 97.9266C79.2071 100.463 76.6888 102.87 74.247 105.239C76.7927 105.368 79.5315 105.386 82.5127 105.321C85.1494 102.67 87.788 100.187 90.4503 97.622Z" fill="#1A1A1A"/>
<path fill-rule="evenodd" clip-rule="evenodd" d="M80.4426 97.9701C77.6637 98.1604 75.2201 98.2655 72.8749 98.3598C70.3911 100.647 67.851 102.955 65.575 105.192C67.8965 105.23 70.3237 105.306 72.986 105.239C75.4296 102.879 77.9042 100.477 80.4426 97.9701Z" fill="#1A1A1A"/>
<path fill-rule="evenodd" clip-rule="evenodd" d="M71.4134 98.6353C68.9425 98.8402 66.7558 98.9544 64.5272 99.0867C62.2549 101.237 59.8787 103.453 57.6829 105.672C59.7803 105.511 61.987 105.482 64.2903 105.388C66.5736 103.241 68.8441 101.097 71.4134 98.6371V98.6353Z" fill="#1A1A1A"/>
<path fill-rule="evenodd" clip-rule="evenodd" d="M139.514 85.8177C134.989 86.0751 130.707 86.251 126.567 86.5881C123.498 89.5138 120.535 92.3453 117.54 95.3942C121.625 95.1187 125.711 95.0897 130.139 94.961C133.147 91.9066 136.289 88.8576 139.512 85.8177H139.514Z" fill="#1A1A1A"/>
<path fill-rule="evenodd" clip-rule="evenodd" d="M124.495 86.88C120.443 87.0649 116.718 87.4129 112.96 87.8081C110.105 90.4347 107.339 93.112 104.507 95.8383C108.157 95.5338 111.71 95.5247 115.657 95.4015C118.631 92.4939 121.62 89.5356 124.495 86.88Z" fill="#1A1A1A"/>
<path fill-rule="evenodd" clip-rule="evenodd" d="M111.226 87.9549C107.658 88.2304 104.35 88.5821 101.001 88.9446C98.2896 91.399 95.671 93.9549 92.9432 96.5181C96.1722 96.19 99.3428 96.1229 102.889 95.8619C105.548 93.2933 108.374 90.6431 111.226 87.9549Z" fill="#1A1A1A"/>
<path fill-rule="evenodd" clip-rule="evenodd" d="M99.3702 89.0625C96.2141 89.3434 93.242 89.5138 90.2918 89.7948C87.7443 92.173 85.2715 94.5241 82.7441 96.935C85.5831 96.7882 88.3839 96.6631 91.5273 96.5217C94.2132 93.9912 96.7024 91.5314 99.3702 89.0625Z" fill="#1A1A1A"/>
<path fill-rule="evenodd" clip-rule="evenodd" d="M88.8249 89.9724C86.1608 90.1483 83.5076 90.4002 80.7779 90.7863C78.3817 92.9743 75.9818 95.2547 73.6511 97.4371C76.133 97.3175 78.706 97.071 81.3519 97.0039C83.9304 94.5912 86.4104 92.3036 88.8249 89.9724Z" fill="#1A1A1A"/>
<path fill-rule="evenodd" clip-rule="evenodd" d="M72.6234 92.4885C70.28 92.7785 68.035 93.045 65.9741 93.2262C63.8566 95.1713 61.597 97.2323 59.4176 99.2788C61.4895 99.094 63.6234 99.045 65.7517 98.9127C67.9147 96.79 70.2527 94.6456 72.6234 92.4903V92.4885Z" fill="#1A1A1A"/>
<path fill-rule="evenodd" clip-rule="evenodd" d="M64.7094 93.335C62.7013 93.5108 60.7861 93.6395 58.9275 93.8734C56.9813 95.7477 55.0188 97.4988 53.1473 99.3296C54.791 99.306 56.6679 99.1719 58.4591 99.1157C60.46 97.2504 62.6302 95.2184 64.7094 93.335Z" fill="#1A1A1A"/>
<path fill-rule="evenodd" clip-rule="evenodd" d="M134.62 77.521C130.549 78.0013 126.624 78.4636 122.668 78.9349C119.865 81.5415 117.13 84.0685 114.251 86.7186C118.132 86.2147 121.775 85.9954 125.928 85.5476C128.765 82.8032 131.713 80.2183 134.62 77.521Z" fill="#1A1A1A"/>
<path fill-rule="evenodd" clip-rule="evenodd" d="M120.849 79.1252C117.224 79.5204 113.584 80.0334 110.123 80.4666C107.556 82.8884 104.881 85.3337 102.2 87.8407C105.589 87.4655 108.862 87.2026 112.519 86.8981C115.393 84.2062 118.137 81.7029 120.849 79.1234V79.1252Z" fill="#1A1A1A"/>
<path fill-rule="evenodd" clip-rule="evenodd" d="M108.467 80.6606C105.249 81.0267 102.093 81.46 98.8563 81.9458C96.3908 84.2588 94.0347 86.376 91.4598 88.7452C94.4064 88.4643 97.4149 88.2268 100.58 88.0165C103.21 85.495 105.928 82.9917 108.467 80.6606Z" fill="#1A1A1A"/>
<path fill-rule="evenodd" clip-rule="evenodd" d="M97.4477 82.1651C94.5904 82.602 91.735 82.979 89.0235 83.3452C86.6674 85.5059 84.2037 87.6739 81.8621 89.802C84.5517 89.5265 87.1995 89.2365 89.9911 88.9211C92.5732 86.5845 95.0168 84.373 97.4477 82.1651Z" fill="#1A1A1A"/>
<path fill-rule="evenodd" clip-rule="evenodd" d="M80.2841 85.205C77.8259 85.6002 75.5499 85.8721 73.4124 86.1476C71.2039 88.1688 68.9753 90.1591 66.8815 92.1948C68.9844 91.9755 71.1365 91.7579 73.5236 91.4534C75.7449 89.3887 77.9571 87.3621 80.2841 85.2068V85.205Z" fill="#1A1A1A"/>
<path fill-rule="evenodd" clip-rule="evenodd" d="M71.8271 86.7549C69.6513 87.0449 67.7125 87.3495 65.7353 87.7156C63.6799 89.5465 61.6626 91.3591 59.5033 93.3096C61.3583 93.0667 63.3646 92.9144 65.3709 92.7477C67.4719 90.7392 69.6076 88.7507 71.8289 86.7531L71.8271 86.7549Z" fill="#1A1A1A"/>
<path fill-rule="evenodd" clip-rule="evenodd" d="M143.353 67.8901C139.062 68.5626 135.009 69.1626 131.114 69.8351C128.315 72.1626 125.66 74.5554 122.788 77.1766C126.715 76.5766 130.68 76.1488 134.731 75.6249C137.619 72.9566 140.471 70.4243 143.352 67.8883L143.353 67.8901Z" fill="#1A1A1A"/>
<path fill-rule="evenodd" clip-rule="evenodd" d="M129.264 70.0291C125.428 70.6889 121.765 71.2037 118.172 71.8255C115.683 74.133 113.075 76.359 110.433 78.7772C113.919 78.2733 117.518 77.831 121.157 77.2781C123.823 74.8563 126.487 72.4962 129.264 70.0291Z" fill="#1A1A1A"/>
<path fill-rule="evenodd" clip-rule="evenodd" d="M139.199 61.4532C135.297 62.1402 131.558 62.8943 127.903 63.5759C125.273 65.9016 122.702 68.133 120.127 70.3717C123.577 69.7807 127.321 69.2097 131.25 68.5427C133.845 66.2351 136.553 63.8496 139.201 61.4532H139.199Z" fill="#1A1A1A"/>
<path fill-rule="evenodd" clip-rule="evenodd" d="M181.635 63.8949C176.023 64.6689 170.796 65.3886 165.825 65.9052C162.518 68.753 159.489 71.675 156.559 74.4158C161.385 74.0116 166.523 73.4315 171.972 72.846C175.071 69.8895 178.295 66.8931 181.633 63.8967L181.635 63.8949Z" fill="#1A1A1A"/>
<path fill-rule="evenodd" clip-rule="evenodd" d="M30.1781 119.15C28.9863 118.822 27.8948 118.474 26.8525 118.193C25.2343 119.791 23.5615 121.423 21.9762 123.217C22.7816 123.636 23.731 124.14 24.7332 124.597C26.4643 122.851 28.3267 120.942 30.1781 119.15Z" fill="#1A1A1A"/>
<path fill-rule="evenodd" clip-rule="evenodd" d="M34.6425 120.277C33.2449 119.949 31.9493 119.592 30.7047 119.269C28.8041 121.191 26.9891 123.038 25.2598 124.793C26.2657 125.344 27.3736 125.858 28.5836 126.386C30.5516 124.345 32.6034 122.257 34.6425 120.277Z" fill="#1A1A1A"/>
<path fill-rule="evenodd" clip-rule="evenodd" d="M39.8304 121.454C38.2269 121.169 36.7691 120.774 35.3641 120.373C33.2321 122.529 31.1803 124.57 29.2633 126.564C30.5753 126.988 31.8946 127.486 33.4599 127.881C35.5646 125.732 37.7531 123.571 39.8323 121.454H39.8304Z" fill="#1A1A1A"/>
<path fill-rule="evenodd" clip-rule="evenodd" d="M46.4543 122.775C44.5792 122.371 42.7588 121.943 40.9511 121.657C38.8246 123.765 36.596 126.129 34.4439 128.36C36.0712 128.802 37.6583 129.449 39.3002 130.091C41.6363 127.579 44.1036 125.191 46.4543 122.773V122.775Z" fill="#1A1A1A"/>
<path fill-rule="evenodd" clip-rule="evenodd" d="M53.6503 123.964C51.4581 123.636 49.2769 123.308 47.4401 122.889C45.042 125.268 42.5765 127.686 40.1931 130.178C42.0463 130.782 44.0015 131.306 46.0206 131.877C48.4368 129.288 50.9807 126.672 53.6503 123.964Z" fill="#1A1A1A"/>
<path fill-rule="evenodd" clip-rule="evenodd" d="M61.8576 125.53C59.3338 125.141 57.0159 124.702 54.8037 124.236C52.0412 127.039 49.4537 129.73 47.0374 132.281C49.0673 132.861 51.265 133.584 53.5209 134.264C56.3545 131.271 58.9748 128.521 61.8576 125.529V125.53Z" fill="#1A1A1A"/>
<path fill-rule="evenodd" clip-rule="evenodd" d="M71.1237 127.475C68.2537 126.986 65.5877 126.433 62.9874 125.906C60.2067 128.86 57.4405 131.704 54.6561 134.645C57.0396 135.42 59.5853 136.176 62.1929 136.938C65.1413 133.726 68.2117 130.506 71.1237 127.475Z" fill="#1A1A1A"/>
<path fill-rule="evenodd" clip-rule="evenodd" d="M82.8461 129.174C79.5515 128.518 76.3972 128.026 73.4634 127.599C70.4531 130.597 67.399 133.878 64.4069 137.081C67.1822 137.743 70.178 138.455 73.1664 139.441C76.4574 135.83 79.5898 132.477 82.848 129.174H82.8461Z" fill="#1A1A1A"/>
<path fill-rule="evenodd" clip-rule="evenodd" d="M94.9002 131.306C91.1883 130.582 87.5329 129.765 84.3258 129.132C81.0385 132.582 77.7111 135.982 74.5695 139.508C77.7348 140.474 81.084 141.529 84.7394 142.392C88.0887 138.671 91.4653 135.06 94.9002 131.307V131.306Z" fill="#1A1A1A"/>
<path fill-rule="evenodd" clip-rule="evenodd" d="M109.228 133.862C104.93 133.115 100.666 132.468 96.983 131.407C93.5153 135.228 89.9711 139.082 86.6819 142.834C90.3373 143.891 94.1768 144.966 98.2422 145.989C101.96 141.821 105.518 137.877 109.23 133.862H109.228Z" fill="#1A1A1A"/>
<path fill-rule="evenodd" clip-rule="evenodd" d="M125.463 137.291C120.412 136.249 115.767 135.317 111.401 134.327C107.652 138.442 103.866 142.553 100.166 146.841C104.722 148.1 108.924 149.672 113.746 150.903C117.729 146.326 121.667 141.769 125.463 137.291Z" fill="#1A1A1A"/>
<path fill-rule="evenodd" clip-rule="evenodd" d="M144.226 141.582C138.319 140.425 133.083 139.332 127.804 138.185C123.865 142.704 119.934 147.305 115.998 151.802C120.927 153.43 126.148 155.023 131.626 156.654C135.959 151.378 140.077 146.416 144.226 141.582Z" fill="#1A1A1A"/>
<path fill-rule="evenodd" clip-rule="evenodd" d="M339.526 115.459C335.807 112.49 332.166 109.493 328.839 106.758C323.463 109.798 318.111 112.629 312.707 115.84C315.722 118.985 318.709 122.282 322.319 125.655C328.146 122.215 333.97 118.794 339.524 115.459H339.526Z" fill="#1A1A1A"/>
<path fill-rule="evenodd" clip-rule="evenodd" d="M157.091 109.365C155.612 107.876 154.167 106.492 152.663 105.306C150.57 106.771 148.388 108.331 146.234 109.816C147.572 111.225 148.835 112.738 150.192 114.44C152.51 112.709 154.823 110.991 157.093 109.365H157.091Z" fill="#1A1A1A"/>
<path fill-rule="evenodd" clip-rule="evenodd" d="M98.5356 54.3837C97.9597 53.5063 97.4313 52.5927 96.9448 51.6773C95.0606 53.2344 93.0488 54.9202 91.0735 56.5625C91.3815 57.6157 91.817 58.5783 92.309 59.6097C94.3754 57.8749 96.4764 56.1112 98.5338 54.3837H98.5356Z" fill="#1A1A1A"/>
<path fill-rule="evenodd" clip-rule="evenodd" d="M404.42 206.585C399.771 202.951 395.387 199.469 391.128 196.403C385.583 198.107 380.142 200.125 374.433 202.05C378.573 205.4 382.648 209.02 386.835 212.921C392.79 210.684 398.882 208.668 404.422 206.584L404.42 206.585Z" fill="#1A1A1A"/>
<path fill-rule="evenodd" clip-rule="evenodd" d="M111.805 66.1735C111.348 65.6714 110.987 65.1819 110.628 64.7106C109.403 65.5988 108.172 66.4707 106.982 67.3408C107.257 67.8792 107.541 68.5119 107.86 69.0412C109.177 68.0895 110.446 67.1451 111.805 66.1717V66.1735Z" fill="#1A1A1A"/>
<path fill-rule="evenodd" clip-rule="evenodd" d="M154.001 43.2011C152.897 42.7316 151.851 42.3165 150.816 41.934C149.254 42.9945 147.694 44.0911 146.098 45.2476C146.969 45.7715 147.925 46.2374 149.013 46.8392C150.639 45.5721 152.321 44.3884 154.001 43.2029V43.2011Z" fill="#1A1A1A"/>
<path fill-rule="evenodd" clip-rule="evenodd" d="M388.862 86.2183C384.485 84.4201 380.415 82.8503 376.549 81.3712C371.548 83.4413 366.814 85.4244 362.284 87.5271C365.777 89.2691 369.457 91.0528 373.573 93.2462C378.857 90.7863 383.992 88.3464 388.862 86.2183Z" fill="#1A1A1A"/>
<path fill-rule="evenodd" clip-rule="evenodd" d="M136.101 40.3987C135.434 40.0851 134.935 39.6736 134.406 39.3636C133.134 40.1938 131.923 41.131 130.698 42.0355C131.146 42.4325 131.56 42.902 132.101 43.2646C133.32 42.3346 134.709 41.3503 136.101 40.3987Z" fill="#1A1A1A"/>
<path fill-rule="evenodd" clip-rule="evenodd" d="M108.275 33.5503C107.922 33.2929 107.536 33.0953 107.188 32.8578C106.271 33.5666 105.267 34.2989 104.387 34.9751C104.691 35.2506 104.955 35.5297 105.227 35.8488C106.231 35.0929 107.273 34.3225 108.275 33.5503Z" fill="#1A1A1A"/>
<path fill-rule="evenodd" clip-rule="evenodd" d="M41.0912 103.35C40.9418 102.969 40.745 102.589 40.6429 102.223C39.9104 102.723 39.2271 103.294 38.4945 103.816C38.551 104.258 38.6531 104.677 38.7551 105.096C39.5806 104.51 40.3149 103.93 41.0912 103.35Z" fill="#1A1A1A"/>
<path fill-rule="evenodd" clip-rule="evenodd" d="M407.782 145.227C404.666 143.739 402.144 142.334 399.483 140.989C395.576 142.093 391.835 143.092 388.107 144.172C390.394 145.552 392.983 147.16 395.724 148.682C399.808 147.573 403.807 146.366 407.782 145.227Z" fill="#1A1A1A"/>
<path fill-rule="evenodd" clip-rule="evenodd" d="M178.473 36.0011C177.38 35.6784 176.263 35.4573 175.317 35.1273C173.796 36.1189 172.189 37.1485 170.749 38.1038C171.666 38.5062 172.524 38.8488 173.537 39.2259C175.051 38.1872 176.822 37.0416 178.473 36.0011Z" fill="#1A1A1A"/>
<path fill-rule="evenodd" clip-rule="evenodd" d="M138.184 11.4897C137.49 11.361 136.795 11.2504 136.114 11.216C134.969 11.9411 133.88 12.7695 132.785 13.5634C133.433 13.6758 134.086 13.7991 134.74 13.9423C135.91 13.0867 137.047 12.2728 138.184 11.4897Z" fill="#1A1A1A"/>
<path fill-rule="evenodd" clip-rule="evenodd" d="M120.898 41.5171C120.268 41.3177 119.646 41.1763 119.065 40.9987C118.086 41.702 116.978 42.4742 115.951 43.1703C116.536 43.3769 117.075 43.5691 117.664 43.7794C118.772 43.0108 119.794 42.2875 120.9 41.5171H120.898Z" fill="#1A1A1A"/>
<path fill-rule="evenodd" clip-rule="evenodd" d="M14.5524 122.757C14.3738 122.467 14.2408 122.239 14.0604 121.948C13.4827 122.344 12.9069 122.742 12.3766 123.114C12.506 123.413 12.5898 123.694 12.7702 123.937C13.3497 123.562 13.9765 123.158 14.5524 122.757Z" fill="#1A1A1A"/>
<path fill-rule="evenodd" clip-rule="evenodd" d="M106.041 57.69C105.411 57.4834 104.82 57.2459 104.241 57.0936C103.319 57.719 102.306 58.3897 101.333 59.0133C101.918 59.2199 102.503 59.4375 103.047 59.684C104.015 59.026 105.03 58.3644 106.041 57.69Z" fill="#1A1A1A"/>
<path fill-rule="evenodd" clip-rule="evenodd" d="M204.132 66.3402C202.764 65.9831 201.452 65.6188 200.191 65.2816C198.531 66.1753 196.914 67.0254 195.163 67.9608C196.459 68.2563 197.731 68.6605 199.001 69.0357C200.652 68.1149 202.46 67.2013 204.132 66.3402Z" fill="#1A1A1A"/>
<path fill-rule="evenodd" clip-rule="evenodd" d="M10.1335 116.49C9.96399 116.195 9.7435 115.939 9.57221 115.711C9.00549 116.072 8.48251 116.449 7.9577 116.871C8.12717 117.123 8.30029 117.386 8.46975 117.68C9.04194 117.275 9.61229 116.871 10.1335 116.49Z" fill="#1A1A1A"/>
<path fill-rule="evenodd" clip-rule="evenodd" d="M90.7747 71.8454C90.1897 71.6406 89.5993 71.3705 89.0618 71.1548C88.1561 71.7584 87.3398 72.3113 86.476 72.9004C86.968 73.1288 87.4637 73.3862 88.0067 73.6617C88.9142 73.0345 89.8253 72.4871 90.7747 71.8436V71.8454Z" fill="#1A1A1A"/>
<path fill-rule="evenodd" clip-rule="evenodd" d="M98.1985 47.8507C97.6864 47.7184 97.1853 47.6676 96.6769 47.5733C95.9316 48.0809 95.1499 48.6483 94.3991 49.125C94.8182 49.2157 95.3284 49.3462 95.7548 49.4912C96.5821 48.9202 97.3675 48.3691 98.1985 47.8525V47.8507Z" fill="#1A1A1A"/>
<path fill-rule="evenodd" clip-rule="evenodd" d="M474.002 178.626C469.844 177.375 465.446 175.891 461.002 174.602C456.886 175.483 452.439 176.11 448.259 176.881C452.255 178.102 456.583 179.534 460.581 180.954C465.251 180.169 469.572 179.446 474.002 178.628V178.626Z" fill="#1A1A1A"/>
<path fill-rule="evenodd" clip-rule="evenodd" d="M154.429 18.9635C153.512 18.9997 152.687 19.0088 151.861 19.016C150.894 19.6306 149.884 20.2722 148.842 20.9593C149.664 20.9212 150.416 20.9901 151.246 20.9828C152.288 20.2976 153.332 19.6052 154.427 18.9635H154.429Z" fill="#1A1A1A"/>
<path fill-rule="evenodd" clip-rule="evenodd" d="M21.5425 120.112C21.2618 119.904 20.9812 119.688 20.7972 119.489C20.2742 119.822 19.702 120.203 19.2246 120.507C19.4086 120.73 19.6401 120.921 19.8715 121.16C20.4437 120.774 20.9703 120.451 21.5425 120.114V120.112Z" fill="#1A1A1A"/>
<path fill-rule="evenodd" clip-rule="evenodd" d="M268.63 97.8939C266.56 97.39 264.343 97.0891 262.231 96.6323C260.15 97.3556 258.256 97.9882 256.396 98.7314C258.313 99.0831 260.388 99.5779 262.555 100.073C264.58 99.326 266.659 98.6081 268.629 97.8939H268.63Z" fill="#1A1A1A"/>
<path fill-rule="evenodd" clip-rule="evenodd" d="M261.564 135.449C259.696 134.284 257.848 133.124 255.99 132.114C253.387 133.113 250.734 134.288 248.063 135.42C249.792 136.572 251.51 137.694 253.247 139.002C256.143 137.69 258.885 136.59 261.564 135.448V135.449Z" fill="#1A1A1A"/>
<path fill-rule="evenodd" clip-rule="evenodd" d="M15.6421 129.616C15.4635 129.103 15.3341 128.579 15.2029 128.132C14.4722 128.655 13.6905 129.236 12.9069 129.839C12.9853 130.363 13.0654 130.958 13.1893 131.494C13.9765 130.876 14.8093 130.247 15.6421 129.614V129.616Z" fill="#1A1A1A"/>
<path fill-rule="evenodd" clip-rule="evenodd" d="M216.338 89.0733C214.654 88.1126 213.101 87.2552 211.66 86.4195C209.444 87.6467 207.135 88.9501 204.828 90.277C206.279 91.167 207.575 92.2365 209.191 93.1555C211.644 91.7797 213.985 90.4111 216.338 89.0733Z" fill="#1A1A1A"/>
</svg>
