<svg width="342" height="162" viewBox="0 0 342 162" fill="none" xmlns="http://www.w3.org/2000/svg">
<g clip-path="url(#clip0_393_704)">
<path fill-rule="evenodd" clip-rule="evenodd" d="M258.293 2.45172C258.042 2.13871 257.679 2.25253 257.905 0.898063C258.75 -1.3203 257.674 1.31465 257.774 0.9379C257.898 1.59237 258.36 1.27367 258.643 1.23839C258.556 1.53204 258.439 2.00554 258.293 2.45172Z" fill="#1A1A1A"/>
<path fill-rule="evenodd" clip-rule="evenodd" d="M311.979 138.191C313.934 135.362 315.529 132.252 317.093 129.477C317.926 130.595 320.311 142.825 323.605 162H316.477C314.318 147.924 312.713 139.195 311.979 138.191Z" fill="#1A1A1A"/>
<path fill-rule="evenodd" clip-rule="evenodd" d="M318.084 130.078C319.664 127.452 321.133 124.951 322.619 123.052C323.427 124.07 326.313 139.061 330.281 162H323.838C320.954 143.171 318.858 131.156 318.084 130.078Z" fill="#1A1A1A"/>
<path fill-rule="evenodd" clip-rule="evenodd" d="M323.331 122.289C324.662 120.638 325.934 119.069 327.189 117.578C328.676 125.062 330.182 132.447 331.627 139.786C333.097 147.239 334.547 154.654 335.959 161.984L335.864 161.999H330.071C327.913 148.956 325.62 135.674 323.331 122.288V122.289Z" fill="#1A1A1A"/>
<path fill-rule="evenodd" clip-rule="evenodd" d="M327.711 116.802C328.823 115.257 329.884 113.883 330.894 112.589C332.808 120.805 334.72 128.931 336.561 136.9C338.419 144.951 340.242 152.909 342 160.713V161.033C340.33 161.307 338.614 161.579 336.853 161.827C335.416 154.439 333.896 146.935 332.363 139.366C330.856 131.924 329.252 124.411 327.711 116.802Z" fill="#1A1A1A"/>
<path fill-rule="evenodd" clip-rule="evenodd" d="M331.396 112.016C332.348 110.778 333.098 109.53 333.76 108.204C336.09 117.037 338.447 125.794 340.629 134.412L342 139.831V157.292C340.443 150.476 338.827 143.56 337.194 136.573C335.312 128.507 333.365 120.288 331.395 112.017L331.396 112.016Z" fill="#1A1A1A"/>
<path fill-rule="evenodd" clip-rule="evenodd" d="M334.245 107.703C335.053 106.592 335.777 105.537 336.416 104.375C338.292 110.995 340.163 117.557 342 124.056V137.164L341.211 134.121C338.972 125.475 336.63 116.636 334.245 107.704V107.703Z" fill="#1A1A1A"/>
<path fill-rule="evenodd" clip-rule="evenodd" d="M336.774 103.891C337.413 102.974 337.849 101.896 338.283 100.823C339.536 104.907 340.775 108.967 342 113V122.172C340.27 116.144 338.513 110.046 336.774 103.892V103.891Z" fill="#1A1A1A"/>
<path fill-rule="evenodd" clip-rule="evenodd" d="M338.75 100.536C339.182 99.6035 339.573 98.6475 339.85 97.7244L342 104.381V111.159C340.927 107.637 339.844 104.094 338.75 100.536Z" fill="#1A1A1A"/>
<path fill-rule="evenodd" clip-rule="evenodd" d="M340.027 96.9924C340.374 96.0932 340.648 95.2327 340.888 94.4622L342 97.7687V103.086L340.027 96.9924Z" fill="#1A1A1A"/>
<path fill-rule="evenodd" clip-rule="evenodd" d="M340.964 93.9819C341.164 93.167 341.253 92.3475 341.379 91.5564L342 93.3491V97.0414L340.964 93.9819Z" fill="#1A1A1A"/>
<path fill-rule="evenodd" clip-rule="evenodd" d="M341.431 91.2571C341.519 90.4774 341.46 89.6021 341.368 88.7712L342 90.5457V92.8938L341.431 91.2571Z" fill="#1A1A1A"/>
<path fill-rule="evenodd" clip-rule="evenodd" d="M341.331 88.2009C341.322 87.5408 341.162 86.7702 341.003 85.9541L342 88.7382V90.071L341.331 88.2009Z" fill="#1A1A1A"/>
<path fill-rule="evenodd" clip-rule="evenodd" d="M340.987 85.7457C340.837 85.0503 340.585 84.381 340.294 83.6218L341.998 88.3955V88.5537L340.986 85.7457H340.987Z" fill="#1A1A1A"/>
<path fill-rule="evenodd" clip-rule="evenodd" d="M340.129 83.1733C339.777 82.5131 339.388 81.7904 339.115 81.2258C340.074 83.9291 341.038 86.6323 342 89.3299V88.4102C341.372 86.6653 340.746 84.9216 340.129 83.1733Z" fill="#1A1A1A"/>
<path fill-rule="evenodd" clip-rule="evenodd" d="M338.816 80.7956C338.403 80.1684 337.854 79.4627 337.307 78.7969C338.874 83.2598 340.445 87.7204 342.002 92.1685V89.7783C340.937 86.7848 339.871 83.7856 338.818 80.7956H338.816Z" fill="#1A1A1A"/>
<path fill-rule="evenodd" clip-rule="evenodd" d="M257.105 162C260.896 158.795 264.498 155.813 267.916 152.769C270.02 155.778 272.22 158.881 274.414 162H257.105Z" fill="#1A1A1A"/>
<path fill-rule="evenodd" clip-rule="evenodd" d="M269.868 151.232C273.781 147.653 277.411 144.687 280.827 141.947C284.686 146.575 288.262 151.068 292.035 156.047C290.348 157.846 288.626 159.865 286.823 162.001H277.604C275.006 158.306 272.429 154.733 269.868 151.232Z" fill="#1A1A1A"/>
<path fill-rule="evenodd" clip-rule="evenodd" d="M282.427 140.48C285.811 137.851 288.792 135.351 291.686 132.946C295.069 136.892 298.54 141.101 301.924 145.253C299.34 148.127 296.489 151.066 293.555 154.314C289.827 149.621 286.256 145.071 282.427 140.48Z" fill="#1A1A1A"/>
<path fill-rule="evenodd" clip-rule="evenodd" d="M293.086 131.84C295.755 129.806 298.314 127.741 300.709 125.823C303.708 129.28 306.819 132.638 309.971 136.22C307.776 138.577 305.539 141.065 303.154 143.864C299.794 139.833 296.398 135.676 293.085 131.84H293.086Z" fill="#1A1A1A"/>
<path fill-rule="evenodd" clip-rule="evenodd" d="M309.024 118.767C310.861 117.184 312.668 115.772 314.414 114.406C316.89 116.956 319.595 119.762 322.062 122.475C320.664 124.111 319.04 125.86 317.421 127.851C314.61 124.648 311.865 121.855 309.024 118.767Z" fill="#1A1A1A"/>
<path fill-rule="evenodd" clip-rule="evenodd" d="M315.429 113.937C316.99 112.607 318.569 111.401 319.941 110.053C322.155 112.326 324.477 114.669 326.635 116.942C325.458 118.477 324.146 120.016 322.776 121.656C320.382 119.102 317.83 116.437 315.429 113.937Z" fill="#1A1A1A"/>
<path fill-rule="evenodd" clip-rule="evenodd" d="M320.935 109.277C322.204 108.056 323.42 106.944 324.585 105.839C326.608 107.843 328.695 109.961 330.613 111.936C329.684 113.203 328.586 114.487 327.435 115.9C325.279 113.651 322.998 111.399 320.934 109.277H320.935Z" fill="#1A1A1A"/>
<path fill-rule="evenodd" clip-rule="evenodd" d="M325.318 105.223C326.427 104.276 327.413 103.29 328.466 102.376C330.218 104.094 332.067 105.853 333.822 107.571C333.083 108.808 332.22 110.024 331.425 111.332C329.39 109.342 327.267 107.233 325.318 105.223Z" fill="#1A1A1A"/>
<path fill-rule="evenodd" clip-rule="evenodd" d="M328.874 101.898C329.801 101.028 330.645 100.019 331.372 99.1196C333.004 100.652 334.538 102.161 336.281 103.792C335.565 104.891 334.84 105.931 334.074 107.06C332.361 105.396 330.59 103.669 328.872 101.898H328.874Z" fill="#1A1A1A"/>
<path fill-rule="evenodd" clip-rule="evenodd" d="M331.841 98.4118C332.63 97.6116 333.307 96.8524 334.014 96.0693C335.528 97.4978 337.021 98.9672 338.328 100.219C337.893 101.208 337.301 102.137 336.821 103.2C335.195 101.604 333.508 99.962 331.84 98.4118H331.841Z" fill="#1A1A1A"/>
<path fill-rule="evenodd" clip-rule="evenodd" d="M334.297 95.8224C334.924 95.0427 335.435 94.197 335.983 93.5129C337.188 94.6033 338.404 95.8098 339.59 96.9754C339.237 97.8802 338.922 98.842 338.491 99.7742C337.108 98.4482 335.731 97.1211 334.297 95.8224Z" fill="#1A1A1A"/>
<path fill-rule="evenodd" clip-rule="evenodd" d="M336.217 93.0495C336.76 92.3951 337.083 91.6393 337.404 90.937C338.449 91.8874 339.539 92.8822 340.561 93.8531C340.361 94.684 340.049 95.5024 339.852 96.4824C338.669 95.3681 337.377 94.1137 336.215 93.0495H336.217Z" fill="#1A1A1A"/>
<path fill-rule="evenodd" clip-rule="evenodd" d="M337.639 90.6331C337.884 89.9012 338.168 89.2855 338.412 88.5957C339.341 89.438 340.166 90.2632 341.141 91.1533C341.012 91.909 340.886 92.724 340.686 93.5105C339.626 92.4952 338.61 91.5334 337.639 90.6342V90.6331Z" fill="#1A1A1A"/>
<path fill-rule="evenodd" clip-rule="evenodd" d="M338.527 88.1029C338.664 87.4279 338.837 86.8304 338.865 86.1167C339.714 86.9169 340.456 87.6169 341.162 88.2679C341.254 89.1102 341.231 89.8477 341.18 90.6729C340.354 89.8899 339.383 88.9406 338.527 88.104V88.1029Z" fill="#1A1A1A"/>
<path fill-rule="evenodd" clip-rule="evenodd" d="M326.017 69.5536C324.944 69.0517 323.937 68.5793 322.832 68.1946C322.834 68.3323 322.801 68.4154 322.701 68.4063C323.874 68.8843 325.116 69.5172 326.092 69.9713C326.088 69.7858 326.088 69.7323 326.017 69.5536Z" fill="#1A1A1A"/>
<path fill-rule="evenodd" clip-rule="evenodd" d="M338.995 83.6936C338.851 83.0517 338.745 82.4359 338.575 81.8953C339.008 82.2686 339.59 82.8149 340.066 83.2839C340.321 84.0101 340.573 84.7203 340.832 85.4556C340.133 84.8102 339.616 84.2935 338.997 83.6936H338.995Z" fill="#1A1A1A"/>
<path fill-rule="evenodd" clip-rule="evenodd" d="M338.377 81.408C338.135 80.8139 337.863 80.2106 337.591 79.6301C338.023 80.0638 338.349 80.4394 338.783 80.8583C339.235 81.5548 339.586 82.2173 339.941 82.9469C339.391 82.3823 338.954 81.943 338.376 81.408H338.377Z" fill="#1A1A1A"/>
<path fill-rule="evenodd" clip-rule="evenodd" d="M333.25 74.3819C332.624 73.8139 331.968 73.2915 331.28 72.8225C331.455 73.0342 331.631 73.2562 331.772 73.4349C332.532 74.0233 333.258 74.5697 333.953 75.1319C333.707 74.8963 333.565 74.7199 333.25 74.3819Z" fill="#1A1A1A"/>
<path fill-rule="evenodd" clip-rule="evenodd" d="M218.137 156.698C224.76 152.818 230.493 149.143 236.477 145.765C240.045 151.035 243.754 156.244 247.5 162.001H221.396C220.32 160.214 219.234 158.447 218.137 156.698Z" fill="#1A1A1A"/>
<path fill-rule="evenodd" clip-rule="evenodd" d="M239.159 144.268C244.422 141.039 249.345 137.946 253.901 135.112C257.721 140.062 261.505 144.994 265.273 150.231C260.851 153.795 256.324 157.762 251.15 161.615C247.183 155.547 243.06 149.884 239.159 144.268Z" fill="#1A1A1A"/>
<path fill-rule="evenodd" clip-rule="evenodd" d="M256.08 133.791C260.445 131.592 264.308 129.166 268.064 126.908C271.53 130.946 275.11 135.18 278.57 139.598C275.047 142.472 271.432 145.405 267.382 148.77C263.521 143.5 259.914 138.535 256.08 133.791Z" fill="#1A1A1A"/>
<path fill-rule="evenodd" clip-rule="evenodd" d="M269.776 125.707C273.394 123.679 276.693 121.623 279.871 119.896C283.051 123.353 286.436 127.272 289.666 131.269C286.708 133.531 283.555 135.738 280.152 138.272C276.822 134.051 273.265 129.857 269.776 125.707Z" fill="#1A1A1A"/>
<path fill-rule="evenodd" clip-rule="evenodd" d="M281.384 119.054C284.411 117.492 287.145 115.828 289.858 114.469C292.874 117.554 295.765 120.763 298.846 124.21C296.424 126.047 293.759 127.921 291.085 130.003C287.887 126.353 284.572 122.486 281.384 119.054Z" fill="#1A1A1A"/>
<path fill-rule="evenodd" clip-rule="evenodd" d="M317.457 66.4349C318.161 66.3723 318.797 66.3063 319.365 66.2107C320.53 67.2089 321.599 68.14 322.74 69.0869C322.171 69.1552 321.635 69.3169 321.03 69.4398C319.854 68.4746 318.72 67.4707 317.457 66.4349Z" fill="#1A1A1A"/>
<path fill-rule="evenodd" clip-rule="evenodd" d="M299.344 108.9C301.486 107.786 303.425 106.606 305.418 105.522C307.888 108.076 310.43 110.643 312.926 113.253C311.147 114.499 309.302 115.879 307.317 117.265C304.689 114.451 302.053 111.699 299.344 108.9Z" fill="#1A1A1A"/>
<path fill-rule="evenodd" clip-rule="evenodd" d="M306.53 105.175C308.306 104.09 310.098 103.114 311.802 102.115C313.923 104.243 316.141 106.468 318.27 108.715C316.821 109.973 315.281 111.164 313.68 112.461C311.328 110.094 308.932 107.63 306.53 105.175Z" fill="#1A1A1A"/>
<path fill-rule="evenodd" clip-rule="evenodd" d="M312.864 101.525C314.464 100.679 315.752 99.6899 317.175 98.884C319.196 100.846 321.235 102.788 323.146 104.724C321.982 105.785 320.689 106.821 319.303 107.983C317.101 105.647 314.951 103.546 312.865 101.525H312.864Z" fill="#1A1A1A"/>
<path fill-rule="evenodd" clip-rule="evenodd" d="M317.979 98.3458C319.312 97.5331 320.523 96.709 321.796 96.0728C323.562 97.7368 325.417 99.4692 327.293 101.417C326.278 102.334 325.214 103.23 324.027 104.272C322.077 102.351 320 100.264 317.979 98.3458Z" fill="#1A1A1A"/>
<path fill-rule="evenodd" clip-rule="evenodd" d="M322.245 95.7234C323.36 94.9528 324.43 94.304 325.348 93.5574C326.965 95.0814 328.634 96.6613 330.244 98.1455C329.404 99.0083 328.557 99.9621 327.553 100.897C325.792 99.1039 324.012 97.4136 322.245 95.7222V95.7234Z" fill="#1A1A1A"/>
<path fill-rule="evenodd" clip-rule="evenodd" d="M326.004 93.0462C326.983 92.4908 327.773 91.7498 328.559 91.1135C330.102 92.5112 331.658 93.9818 333.191 95.4785C332.37 96.1273 331.731 96.9935 330.975 97.7823C329.363 96.2264 327.619 94.5828 326.004 93.0473V93.0462Z" fill="#1A1A1A"/>
<path fill-rule="evenodd" clip-rule="evenodd" d="M328.992 90.9131C329.845 90.3725 330.402 89.652 331.102 89.0339C332.422 90.2291 333.788 91.5016 335.053 92.7149C334.43 93.3933 333.879 94.1513 333.25 94.9344C331.832 93.5902 330.423 92.2425 328.992 90.9131Z" fill="#1A1A1A"/>
<path fill-rule="evenodd" clip-rule="evenodd" d="M334.976 84.9387C335.261 84.3469 335.514 83.821 335.731 83.2781C336.637 84.1112 337.437 84.8488 338.277 85.6296C338.141 86.2625 337.929 86.8452 337.865 87.5862C336.836 86.6631 335.919 85.7935 334.975 84.9399L334.976 84.9387Z" fill="#1A1A1A"/>
<path fill-rule="evenodd" clip-rule="evenodd" d="M335.965 83.087C336.037 82.4541 336.255 82.0205 336.295 81.4912C336.98 82.1127 337.704 82.7842 338.394 83.4387C338.43 84.0419 338.363 84.6725 338.293 85.2735C337.525 84.5416 336.762 83.7972 335.965 83.087Z" fill="#1A1A1A"/>
<path fill-rule="evenodd" clip-rule="evenodd" d="M336.189 79.4127C336.132 79.0189 335.966 78.4384 335.843 78.0024C336.306 78.4475 336.808 78.9494 337.237 79.3592C337.577 79.975 337.815 80.56 338.021 81.1519C337.411 80.6112 336.833 80.0171 336.19 79.4138L336.189 79.4127Z" fill="#1A1A1A"/>
<path fill-rule="evenodd" clip-rule="evenodd" d="M335.021 76.4375C334.766 76.055 334.371 75.4814 333.84 74.9111C334.123 75.2332 334.477 75.5804 334.621 75.8285C335.258 76.4921 335.723 77.0202 336.227 77.6178C335.869 77.2479 335.409 76.8176 335.02 76.4375H335.021Z" fill="#1A1A1A"/>
<path fill-rule="evenodd" clip-rule="evenodd" d="M331.434 72.4845C330.949 72.0189 330.435 71.6058 329.957 71.2358C330.268 71.5853 330.545 71.9165 330.854 72.2033C331.439 72.6757 332.027 73.1867 332.545 73.5953C332.127 73.189 331.815 72.8817 331.433 72.4845H331.434Z" fill="#1A1A1A"/>
<path fill-rule="evenodd" clip-rule="evenodd" d="M332.699 74.8417C332.617 74.4866 332.433 74.1041 332.352 73.7456C332.841 74.2476 333.365 74.7518 333.856 75.2059C334.04 75.6214 334.298 76.0755 334.488 76.524C333.924 76.0015 333.293 75.4427 332.699 74.8417Z" fill="#1A1A1A"/>
<path fill-rule="evenodd" clip-rule="evenodd" d="M108.665 102.152C119.462 100.174 129.384 98.2239 138.728 96.3687C142.329 101.423 146.005 106.251 149.447 111.431C140.383 113.626 130.383 116.456 119.31 119.338C115.707 113.372 112.215 107.729 108.664 102.152H108.665Z" fill="#1A1A1A"/>
<path fill-rule="evenodd" clip-rule="evenodd" d="M170.931 96.4437C178.468 94.9891 185.1 93.5549 191.7 92.4702C194.937 96.2855 198.462 100.237 201.977 104.38C195.537 106.083 188.778 107.911 181.513 109.934C178.129 105.39 174.445 100.723 170.931 96.4426V96.4437Z" fill="#1A1A1A"/>
<path fill-rule="evenodd" clip-rule="evenodd" d="M179.8 66.7492C185.804 66.5397 191.42 66.2233 196.84 65.9729C199.889 68.8708 202.873 71.697 205.742 74.6335C200.486 75.049 194.903 75.5771 188.964 76.3329C186.001 73.023 183.043 69.8178 179.8 66.7492Z" fill="#1A1A1A"/>
<path fill-rule="evenodd" clip-rule="evenodd" d="M147.903 162C155.599 158.448 162.8 155.088 169.581 151.85C171.519 155.165 173.461 158.547 175.381 162H147.905H147.903Z" fill="#1A1A1A"/>
<path fill-rule="evenodd" clip-rule="evenodd" d="M174.188 149.77C183.023 145.68 190.808 141.738 198.424 138.209C202.42 144.226 206.513 150.697 210.586 157.155C208.093 158.76 205.556 160.369 202.954 162H181.046C178.725 157.821 176.444 153.758 174.188 149.77Z" fill="#1A1A1A"/>
<path fill-rule="evenodd" clip-rule="evenodd" d="M201.949 136.626C208.845 133.68 215.212 130.944 221.06 128.232C224.828 133.211 228.842 138.556 232.467 144.071C226.77 147.506 220.642 151.031 213.903 154.828C210.01 148.468 205.946 142.559 201.949 136.626Z" fill="#1A1A1A"/>
<path fill-rule="evenodd" clip-rule="evenodd" d="M224.261 127.476C229.958 124.94 235.15 122.723 240.072 120.604C243.466 124.802 247.046 129.146 250.645 133.563C245.918 136.365 240.743 139.454 235.293 142.704C231.554 137.222 227.948 132.374 224.261 127.475V127.476Z" fill="#1A1A1A"/>
<path fill-rule="evenodd" clip-rule="evenodd" d="M243.107 119.06C247.656 117.234 251.952 115.454 256.02 113.683C259.266 117.304 262.526 121.125 265.791 125.05C261.94 127.371 257.91 129.588 253.511 131.802C250.102 127.605 246.577 123.309 243.107 119.061V119.06Z" fill="#1A1A1A"/>
<path fill-rule="evenodd" clip-rule="evenodd" d="M258.373 112.646C262.07 110.827 265.61 109.485 269.121 108.156C272.177 111.541 275.313 115 278.535 118.495C275.214 120.117 271.742 122 268.242 124.091C265 120.222 261.613 116.344 258.373 112.646Z" fill="#1A1A1A"/>
<path fill-rule="evenodd" clip-rule="evenodd" d="M270.658 107.784C273.778 106.469 276.858 105.233 279.857 104.139C282.513 107.055 285.323 109.961 288.096 112.868C285.373 114.335 282.489 115.915 279.565 117.609C276.557 114.281 273.52 110.95 270.659 107.784H270.658Z" fill="#1A1A1A"/>
<path fill-rule="evenodd" clip-rule="evenodd" d="M290.478 99.7855C292.957 99.0024 295.121 98.1249 297.27 97.261C299.583 99.5283 301.988 101.909 304.203 104.153C302.251 105.249 300.352 106.429 298.022 107.468C295.579 104.911 293.055 102.327 290.478 99.7844V99.7855Z" fill="#1A1A1A"/>
<path fill-rule="evenodd" clip-rule="evenodd" d="M298.413 96.8557C300.501 95.9952 302.387 95.1381 304.242 94.5042C306.395 96.5381 308.389 98.5186 310.617 100.718C308.918 101.679 307.17 102.608 305.362 103.672C302.994 101.363 300.77 99.09 298.413 96.8557Z" fill="#1A1A1A"/>
<path fill-rule="evenodd" clip-rule="evenodd" d="M305.165 94.1878C306.857 93.4946 308.393 92.7753 309.987 92.1743C312.01 94.0592 314.02 95.9088 315.82 97.7754C314.507 98.6177 312.962 99.4247 311.439 100.291C309.278 98.2091 307.21 96.1922 305.167 94.1878H305.165Z" fill="#1A1A1A"/>
<path fill-rule="evenodd" clip-rule="evenodd" d="M311.147 91.9114C312.69 91.3081 314.075 90.7402 315.416 90.0891C317.02 91.5972 318.924 93.3694 320.553 94.9914C319.39 95.7232 318.07 96.4517 316.736 97.2769C314.932 95.4546 312.994 93.6597 311.147 91.9114Z" fill="#1A1A1A"/>
<path fill-rule="evenodd" clip-rule="evenodd" d="M316.158 89.7602C317.447 89.2616 318.731 88.7688 319.862 88.2668C321.434 89.7192 322.946 91.1556 324.51 92.575C323.52 93.226 322.377 93.827 321.299 94.6306C319.596 92.9574 317.944 91.3594 316.158 89.7613V89.7602Z" fill="#1A1A1A"/>
<path fill-rule="evenodd" clip-rule="evenodd" d="M320.193 87.9891C321.317 87.5236 322.29 87.0034 323.364 86.5823C324.725 87.7956 326.166 89.1307 327.617 90.4419C326.721 91.027 325.854 91.6871 324.875 92.3598C323.349 90.8995 321.765 89.471 320.193 87.9891Z" fill="#1A1A1A"/>
<path fill-rule="evenodd" clip-rule="evenodd" d="M323.826 86.1727C324.681 85.6229 325.529 85.1061 326.374 84.718C327.768 85.9905 329.029 87.147 330.299 88.3261C329.635 88.9476 328.895 89.5247 328.114 90.1393C326.662 88.7826 325.222 87.4896 323.826 86.1715V86.1727Z" fill="#1A1A1A"/>
<path fill-rule="evenodd" clip-rule="evenodd" d="M326.867 84.4403C327.636 84.0761 328.366 83.6936 328.987 83.2156C330.168 84.3026 331.246 85.286 332.514 86.4629C331.967 86.9922 331.416 87.5089 330.791 88.0427C329.523 86.8954 328.263 85.7663 326.867 84.4403Z" fill="#1A1A1A"/>
<path fill-rule="evenodd" clip-rule="evenodd" d="M209.122 80.4429C214.147 79.842 218.936 79.3286 223.583 78.6958C226.482 81.7223 229.403 84.6407 232.477 87.6785C228.047 88.4912 223.332 89.2584 218.31 90.3374C215.225 86.9524 212.133 83.6937 209.121 80.4429H209.122Z" fill="#1A1A1A"/>
<path fill-rule="evenodd" clip-rule="evenodd" d="M302.375 64.8608C303.742 64.8699 305.038 64.8721 306.264 64.8903C307.7 66.1424 309.18 67.3637 310.564 68.5793C309.368 68.5611 308.331 68.7352 307.021 68.7762C305.509 67.4616 303.972 66.1503 302.373 64.8596L302.375 64.8608Z" fill="#1A1A1A"/>
<path fill-rule="evenodd" clip-rule="evenodd" d="M302.59 60.9714C303.83 61.1023 305.005 61.2014 306.144 61.2822C307.538 62.4204 308.87 63.5142 310.174 64.5887C309.126 64.5944 308.044 64.583 306.928 64.5443C305.529 63.3856 304.042 62.1631 302.59 60.9714Z" fill="#1A1A1A"/>
<path fill-rule="evenodd" clip-rule="evenodd" d="M64.4532 162C68.1175 160.656 71.6976 159.332 75.1897 158.024C75.7761 159.33 76.3519 160.656 76.9199 162H64.4519H64.4532Z" fill="#1A1A1A"/>
<path fill-rule="evenodd" clip-rule="evenodd" d="M211.818 51.8806C216.152 52.0775 220.267 52.2505 224.186 52.4122C226.603 54.4974 228.994 56.6121 231.461 58.6313C227.54 58.6518 223.617 58.604 219.397 58.5539C216.948 56.2957 214.357 54.0876 211.819 51.8806H211.818Z" fill="#1A1A1A"/>
<path fill-rule="evenodd" clip-rule="evenodd" d="M127.671 138.818C138.7 134.896 148.813 131.428 158.437 128.221C162.187 134.249 166.201 140.727 169.861 147.667C160.413 151.962 150.517 156.324 139.453 160.99C135.713 153.45 131.672 145.979 127.673 138.818H127.671Z" fill="#1A1A1A"/>
<path fill-rule="evenodd" clip-rule="evenodd" d="M190.112 117.447C197.09 115.191 203.732 113.185 209.891 111.21C213.477 115.673 217.132 120.404 220.688 125.188C214.801 127.808 208.318 130.469 201.693 133.161C197.833 127.891 193.98 122.467 190.114 117.448L190.112 117.447Z" fill="#1A1A1A"/>
<path fill-rule="evenodd" clip-rule="evenodd" d="M232.456 104.793C237.277 103.373 241.676 102.077 245.865 100.742C248.902 103.995 252.08 107.529 255.129 111.162C251.14 112.837 246.773 114.615 242.365 116.452C239.178 112.416 235.745 108.461 232.454 104.793H232.456Z" fill="#1A1A1A"/>
<path fill-rule="evenodd" clip-rule="evenodd" d="M248.258 100.096C252.251 98.9308 255.992 97.9008 259.577 96.9595C262.58 100.043 265.495 103.173 268.498 106.286C265.088 107.553 261.613 108.825 257.854 110.409C254.597 106.773 251.477 103.272 248.258 100.096Z" fill="#1A1A1A"/>
<path fill-rule="evenodd" clip-rule="evenodd" d="M261.122 96.6167C264.446 95.6845 267.671 94.7672 270.836 93.835C273.472 96.553 276.109 99.2244 278.805 101.996C275.89 103.131 272.812 104.404 269.68 105.631C266.748 102.557 263.853 99.5192 261.124 96.6156L261.122 96.6167Z" fill="#1A1A1A"/>
<path fill-rule="evenodd" clip-rule="evenodd" d="M272.926 93.2829C275.762 92.5397 278.54 91.8249 281.077 91.1135C283.728 93.6825 286.244 96.0727 288.727 98.6416C286.347 99.4577 283.786 100.383 280.981 101.549C278.336 98.6246 275.549 95.8849 272.926 93.2829Z" fill="#1A1A1A"/>
<path fill-rule="evenodd" clip-rule="evenodd" d="M282.322 90.8835C284.9 90.2655 287.21 89.5575 289.532 88.9771C291.806 91.1135 294.126 93.4104 296.287 95.6356C294.19 96.4335 292.034 97.3201 289.53 98.0588C287.206 95.7494 284.738 93.2487 282.323 90.8835H282.322Z" fill="#1A1A1A"/>
<path fill-rule="evenodd" clip-rule="evenodd" d="M290.768 88.631C292.99 88.1109 295.082 87.6602 297.057 87.1582C299.141 89.1353 301.285 91.0805 303.264 93.0166C301.456 93.6141 299.474 94.3187 297.508 95.1644C295.308 92.9232 293.044 90.7914 290.768 88.631Z" fill="#1A1A1A"/>
<path fill-rule="evenodd" clip-rule="evenodd" d="M297.964 86.9101C299.847 86.4594 301.649 85.9813 303.372 85.4578C305.298 87.2618 307.243 89.0602 309.059 90.8142C307.541 91.447 305.866 92.0753 304.147 92.6638C302.089 90.7698 300.055 88.8223 297.963 86.9101H297.964Z" fill="#1A1A1A"/>
<path fill-rule="evenodd" clip-rule="evenodd" d="M304.555 85.2767C306.222 84.8373 307.703 84.3422 309.133 83.9507C310.904 85.4952 312.647 87.0785 314.371 88.6139C313.102 89.298 311.648 89.916 310.074 90.4692C308.219 88.7004 306.415 86.9954 304.554 85.2767H304.555Z" fill="#1A1A1A"/>
<path fill-rule="evenodd" clip-rule="evenodd" d="M310.186 83.8757C311.572 83.4603 312.95 83.1109 314.285 82.791C315.746 84.1204 317.358 85.5728 318.84 86.9853C317.639 87.4156 316.468 87.905 315.182 88.383C313.565 86.9068 311.887 85.4226 310.186 83.8746V83.8757Z" fill="#1A1A1A"/>
<path fill-rule="evenodd" clip-rule="evenodd" d="M314.648 82.5485C315.801 82.1388 316.945 81.7598 318.12 81.4229C319.516 82.6806 321.024 84.0874 322.402 85.3576C321.364 85.8118 320.357 86.2955 319.272 86.7622C317.755 85.3645 316.176 83.9895 314.646 82.5497L314.648 82.5485Z" fill="#1A1A1A"/>
<path fill-rule="evenodd" clip-rule="evenodd" d="M318.657 81.1395C319.718 80.7958 320.67 80.4919 321.653 80.2312C323.017 81.4047 324.353 82.552 325.662 83.7744C324.784 84.1421 323.936 84.5871 323.048 85.0743C321.598 83.7813 320.158 82.4427 318.658 81.1395H318.657Z" fill="#1A1A1A"/>
<path fill-rule="evenodd" clip-rule="evenodd" d="M241.416 77.1033C245.182 76.7686 248.806 76.5148 252.283 76.1836C254.853 78.5909 257.475 81.0563 260.09 83.4875C256.736 83.9769 253.387 84.5631 249.627 85.2255C246.884 82.4654 244.171 79.72 241.416 77.1033Z" fill="#1A1A1A"/>
<path fill-rule="evenodd" clip-rule="evenodd" d="M253.861 75.9652C257.139 75.6067 260.342 75.3643 263.219 75.0308C265.738 77.2799 268.229 79.5802 270.568 81.8327C267.721 82.313 264.782 82.7979 261.608 83.2395C259.089 80.88 256.433 78.3646 253.861 75.9652Z" fill="#1A1A1A"/>
<path fill-rule="evenodd" clip-rule="evenodd" d="M264.647 74.8929C267.637 74.6425 270.317 74.4205 272.918 74.2031C275.17 76.1927 277.533 78.3257 279.781 80.3688C277.281 80.7785 274.694 81.1929 271.971 81.6948C269.602 79.3706 267.103 77.076 264.647 74.8929Z" fill="#1A1A1A"/>
<path fill-rule="evenodd" clip-rule="evenodd" d="M274.144 74.0803C276.689 73.8686 279.106 73.74 281.413 73.5544C283.526 75.4097 285.773 77.4619 287.812 79.2876C285.616 79.6097 283.312 79.8487 280.952 80.172C278.797 78.2154 276.395 76.0824 274.143 74.0803H274.144Z" fill="#1A1A1A"/>
<path fill-rule="evenodd" clip-rule="evenodd" d="M282.543 73.4826C284.771 73.2675 286.852 73.0046 288.941 72.9329C290.904 74.6322 292.914 76.401 294.898 78.2289C293.026 78.5101 291.033 78.8322 288.883 79.1793C286.815 77.2581 284.622 75.3345 282.543 73.4826Z" fill="#1A1A1A"/>
<path fill-rule="evenodd" clip-rule="evenodd" d="M289.908 72.9032C291.854 72.7416 293.649 72.5925 295.47 72.4878C297.385 74.0984 299.31 75.7556 300.975 77.2944C299.378 77.5722 297.669 77.859 295.781 78.065C293.86 76.2814 291.949 74.5969 289.909 72.9032H289.908Z" fill="#1A1A1A"/>
<path fill-rule="evenodd" clip-rule="evenodd" d="M296.289 72.4343C298.034 72.2795 299.734 72.1805 301.256 72.0371C303.017 73.5282 304.75 75.0659 306.463 76.5512C305.028 76.8438 303.384 76.9929 301.839 77.1909C300.032 75.635 298.243 74.0449 296.289 72.4355V72.4343Z" fill="#1A1A1A"/>
<path fill-rule="evenodd" clip-rule="evenodd" d="M302.133 72.0611C303.68 71.9416 305.121 71.8221 306.488 71.7117C307.984 73.0593 309.56 74.4149 311.148 75.7352C309.843 75.9265 308.458 76.2167 307.14 76.4728C305.495 74.9852 303.858 73.5726 302.133 72.0611Z" fill="#1A1A1A"/>
<path fill-rule="evenodd" clip-rule="evenodd" d="M307.324 71.633C308.647 71.5522 309.829 71.4179 311.04 71.3667C312.482 72.5584 313.931 73.7979 315.387 75.0556C314.269 75.2355 313.217 75.4529 312.026 75.6236C310.472 74.2999 308.859 72.9465 307.324 71.6319V71.633Z" fill="#1A1A1A"/>
<path fill-rule="evenodd" clip-rule="evenodd" d="M311.735 71.2597C312.873 71.1402 313.872 71.0332 314.935 70.9524C316.314 72.1236 317.701 73.2584 319.061 74.4774C318.127 74.6743 317.123 74.8177 316.08 75.0477C314.657 73.7808 313.174 72.5049 311.733 71.2597H311.735Z" fill="#1A1A1A"/>
<path fill-rule="evenodd" clip-rule="evenodd" d="M315.382 70.931C316.342 70.7932 317.163 70.6168 318.014 70.4768C319.261 71.5615 320.547 72.661 321.705 73.6797C320.953 73.8744 320.096 74.0622 319.304 74.2921C318.013 73.1687 316.66 72.0282 315.382 70.931Z" fill="#1A1A1A"/>
<path fill-rule="evenodd" clip-rule="evenodd" d="M318.558 70.3812C319.304 70.2526 320.117 70.2139 320.793 70.0557C321.973 71.0687 323.162 72.0726 324.252 73.04C323.643 73.2187 323.032 73.4134 322.317 73.5807C321.125 72.5654 319.837 71.5137 318.556 70.3812H318.558Z" fill="#1A1A1A"/>
<path fill-rule="evenodd" clip-rule="evenodd" d="M327.048 70.9911C327.278 70.8204 327.472 70.5552 327.636 70.3662C328.421 71.089 329.206 71.7252 329.861 72.3649C329.872 72.6791 329.746 72.9568 329.587 73.2254C328.727 72.4844 327.937 71.7765 327.05 70.9911H327.048Z" fill="#1A1A1A"/>
<path fill-rule="evenodd" clip-rule="evenodd" d="M311.74 65.0907C309.863 64.7447 308.018 64.3976 305.9 64.0334C305.402 63.8125 304.932 63.7112 304.333 63.5166C306.581 63.9946 308.627 64.3737 310.604 64.78C311.067 65.052 311.376 64.9268 311.74 65.0907Z" fill="#1A1A1A"/>
<path fill-rule="evenodd" clip-rule="evenodd" d="M298.959 63.2662C296.301 63.0659 293.61 63.0716 290.682 62.9555C290.133 62.9111 289.512 62.8713 288.871 62.7017C291.929 62.9555 294.731 62.8986 297.434 63.0397C298.07 63.2457 298.555 63.1717 298.959 63.2673V63.2662Z" fill="#1A1A1A"/>
<path fill-rule="evenodd" clip-rule="evenodd" d="M245.669 68.0751C249.06 67.8873 252.425 67.7825 255.463 67.6118C257.898 69.7323 260.304 71.8892 262.652 74.0848C259.648 74.3477 256.447 74.6016 253.258 74.9237C250.744 72.5607 248.144 70.216 245.671 68.0739L245.669 68.0751Z" fill="#1A1A1A"/>
<path fill-rule="evenodd" clip-rule="evenodd" d="M256.941 67.5377C259.975 67.4956 262.856 67.4421 265.561 67.3408C267.755 69.3008 270.169 71.353 272.295 73.3096C269.736 73.5281 266.957 73.6977 264.087 73.9015C261.762 71.765 259.313 69.6059 256.941 67.5389V67.5377Z" fill="#1A1A1A"/>
<path fill-rule="evenodd" clip-rule="evenodd" d="M266.862 67.3318C269.542 67.2749 272.06 67.2783 274.543 67.2271C276.652 68.9742 278.756 70.8329 280.799 72.7474C278.466 72.8578 276.054 73.0046 273.539 73.2607C271.445 71.3132 269.064 69.2519 266.861 67.3306L266.862 67.3318Z" fill="#1A1A1A"/>
<path fill-rule="evenodd" clip-rule="evenodd" d="M275.701 67.1644C278.066 67.1223 280.271 67.1587 282.412 67.0984C284.435 68.7864 286.403 70.4686 288.316 72.1384C286.301 72.2158 284.192 72.4366 281.933 72.6494C279.874 70.8215 277.772 68.9332 275.701 67.1644Z" fill="#1A1A1A"/>
<path fill-rule="evenodd" clip-rule="evenodd" d="M283.443 67.0563C285.564 67.0916 287.41 67.0051 289.344 67.021C291.251 68.6225 293.104 70.1636 294.9 71.7321C293.116 71.8721 291.255 72.0041 289.282 72.1111C287.371 70.4117 285.426 68.8046 283.443 67.0563Z" fill="#1A1A1A"/>
<path fill-rule="evenodd" clip-rule="evenodd" d="M290.229 66.9641C292.122 66.9459 293.838 66.9402 295.551 66.8867C297.308 68.3618 299.006 69.8199 300.713 71.3075C299.182 71.5647 297.522 71.6296 295.784 71.7343C293.919 70.1238 292.169 68.5679 290.228 66.9641H290.229Z" fill="#1A1A1A"/>
<path fill-rule="evenodd" clip-rule="evenodd" d="M296.351 66.9038C297.95 66.9038 299.575 66.9664 300.961 66.9334C302.565 68.2389 304.208 69.6366 305.832 70.9752C304.437 71.0469 303.001 71.1482 301.485 71.3041C299.846 69.8256 298.075 68.3766 296.351 66.9038Z" fill="#1A1A1A"/>
<path fill-rule="evenodd" clip-rule="evenodd" d="M237.173 60.21C240.74 60.243 244.182 60.2874 247.398 60.3568C249.745 62.4033 252.085 64.3713 254.396 66.4007C251.233 66.4929 247.905 66.6306 244.565 66.7558C242.06 64.5545 239.547 62.3225 237.173 60.2111V60.21Z" fill="#1A1A1A"/>
<path fill-rule="evenodd" clip-rule="evenodd" d="M248.9 60.449C252.04 60.4581 255.078 60.5776 257.905 60.6584C260.127 62.5376 262.365 64.4168 264.52 66.2834C261.77 66.2595 258.824 66.2982 255.855 66.4177C253.586 64.3416 251.267 62.3964 248.9 60.449Z" fill="#1A1A1A"/>
<path fill-rule="evenodd" clip-rule="evenodd" d="M259.333 60.679C262.116 60.7268 264.812 60.8224 267.357 60.9214C269.386 62.6185 271.451 64.369 273.52 66.2095C271.081 66.2243 268.523 66.2664 265.886 66.3017C263.736 64.4077 261.499 62.4933 259.334 60.679H259.333Z" fill="#1A1A1A"/>
<path fill-rule="evenodd" clip-rule="evenodd" d="M268.527 60.9329C271.059 61.0581 273.246 61.0968 275.556 61.2106C277.607 62.869 279.469 64.4613 281.439 66.1185C279.239 66.1276 276.999 66.1071 274.601 66.1481C272.663 64.3862 270.594 62.6356 268.527 60.9329Z" fill="#1A1A1A"/>
<path fill-rule="evenodd" clip-rule="evenodd" d="M276.741 61.2971C278.844 61.3324 280.905 61.3836 282.954 61.4883C284.853 63.0807 286.67 64.5922 288.432 66.0799C286.595 66.1607 284.619 66.1721 282.468 66.1311C280.565 64.467 278.662 62.9077 276.741 61.2971Z" fill="#1A1A1A"/>
<path fill-rule="evenodd" clip-rule="evenodd" d="M283.96 61.5156C285.965 61.6351 287.728 61.7011 289.421 61.7603C291.213 63.1968 293.045 64.6457 294.688 66.0502C293.012 66.0741 291.261 66.1219 289.34 66.0798C287.577 64.5979 285.792 63.0898 283.96 61.5156Z" fill="#1A1A1A"/>
<path fill-rule="evenodd" clip-rule="evenodd" d="M290.476 61.9333C292.259 62.062 293.837 62.1337 295.445 62.2168C297.084 63.5667 298.799 64.9587 300.383 66.3519C298.87 66.2506 297.277 66.2324 295.615 66.1732C293.968 64.8255 292.33 63.479 290.476 61.9345V61.9333Z" fill="#1A1A1A"/>
<path fill-rule="evenodd" clip-rule="evenodd" d="M241.338 53.885C244.603 54.0466 247.693 54.157 250.68 54.3687C252.894 56.2058 255.032 57.9837 257.193 59.8982C254.246 59.7252 251.298 59.7069 248.103 59.6261C245.932 57.7082 243.666 55.7938 241.34 53.885H241.338Z" fill="#1A1A1A"/>
<path fill-rule="evenodd" clip-rule="evenodd" d="M252.176 54.552C255.1 54.6681 257.787 54.8866 260.498 55.1348C262.559 56.784 264.554 58.4652 266.598 60.177C263.964 59.9858 261.4 59.9801 258.553 59.9027C256.407 58.077 254.251 56.2195 252.176 54.552Z" fill="#1A1A1A"/>
<path fill-rule="evenodd" clip-rule="evenodd" d="M261.75 55.2271C264.325 55.4001 266.711 55.6209 269.127 55.8485C271.084 57.3896 272.973 58.9945 274.941 60.6039C272.612 60.3979 270.324 60.3558 267.765 60.1919C265.847 58.5791 263.808 56.915 261.75 55.2271Z" fill="#1A1A1A"/>
<path fill-rule="evenodd" clip-rule="evenodd" d="M270.305 55.9224C272.582 56.0988 274.726 56.2058 276.855 56.3822C278.693 57.8755 280.477 59.3518 282.301 60.8656C280.252 60.7734 278.232 60.6949 275.964 60.6061C274.026 59.0171 272.23 57.4726 270.305 55.9224Z" fill="#1A1A1A"/>
<path fill-rule="evenodd" clip-rule="evenodd" d="M277.913 56.4939C279.835 56.6043 281.75 56.7625 283.719 57.005C285.448 58.3788 287.18 59.8106 288.861 61.181C287.071 61.1059 285.214 60.9511 283.305 60.909C281.445 59.3941 279.655 57.9576 277.913 56.4939Z" fill="#1A1A1A"/>
<path fill-rule="evenodd" clip-rule="evenodd" d="M289.603 58.0737C291.293 58.2558 292.913 58.4232 294.4 58.537C295.928 59.7583 297.558 61.0524 299.131 62.3375C297.636 62.2214 296.096 62.1906 294.561 62.1075C293 60.7747 291.313 59.4282 289.603 58.0749V58.0737Z" fill="#1A1A1A"/>
<path fill-rule="evenodd" clip-rule="evenodd" d="M295.312 58.6052C296.761 58.7156 298.143 58.7964 299.484 58.9433C300.888 60.1202 302.304 61.2197 303.654 62.3693C302.468 62.3545 301.114 62.2703 299.822 62.235C298.378 61.0638 296.812 59.7878 295.312 58.6052Z" fill="#1A1A1A"/>
<path fill-rule="evenodd" clip-rule="evenodd" d="M244.87 48.6755C247.807 48.9772 250.639 49.2674 253.493 49.5633C255.516 51.2001 257.489 52.7867 259.566 54.4508C256.766 54.1344 254.138 53.9967 251.141 53.7155C249.094 51.9923 246.967 50.3692 244.87 48.6755Z" fill="#1A1A1A"/>
<path fill-rule="evenodd" clip-rule="evenodd" d="M254.806 49.6828C257.421 49.9309 260.048 50.253 262.545 50.5251C264.398 52.0457 266.328 53.5811 268.262 55.1553C265.816 54.9197 263.455 54.7546 260.816 54.5634C258.743 52.8732 256.763 51.3013 254.806 49.6816V49.6828Z" fill="#1A1A1A"/>
<path fill-rule="evenodd" clip-rule="evenodd" d="M263.741 50.6467C266.063 50.8766 268.34 51.1487 270.675 51.4537C272.454 52.9061 274.154 54.2355 276.012 55.7231C273.886 55.5467 271.715 55.3976 269.431 55.2656C267.534 53.6823 265.572 52.1105 263.741 50.6467Z" fill="#1A1A1A"/>
<path fill-rule="evenodd" clip-rule="evenodd" d="M271.69 51.5916C273.752 51.8659 275.812 52.1026 277.768 52.3325C279.468 53.6893 281.246 55.0506 282.936 56.3868C280.995 56.2138 279.085 56.0317 277.07 55.8337C275.207 54.3665 273.444 52.9779 271.69 51.5916Z" fill="#1A1A1A"/>
<path fill-rule="evenodd" clip-rule="evenodd" d="M284.074 53.5002C285.848 53.7484 287.49 53.9191 289.032 54.0921C290.625 55.3612 292.233 56.611 293.744 57.8892C292.227 57.7515 290.674 57.6149 288.952 57.4236C287.349 56.1272 285.753 54.8547 284.074 53.5014V53.5002Z" fill="#1A1A1A"/>
<path fill-rule="evenodd" clip-rule="evenodd" d="M290.177 54.4736C291.746 54.6557 293.145 54.8469 294.572 55.0768C296.055 56.2264 297.51 57.3646 299.068 58.5893C297.73 58.4368 296.282 58.3412 294.835 58.2365C293.319 56.9753 291.778 55.7267 290.175 54.4724L290.177 54.4736Z" fill="#1A1A1A"/>
<path fill-rule="evenodd" clip-rule="evenodd" d="M238.57 42.6281C241.666 43.0504 244.59 43.4271 247.401 43.8494C249.42 45.3108 251.336 46.8133 253.408 48.4591C250.575 48.0824 247.714 47.8138 244.791 47.4848C242.707 45.8094 240.65 44.2193 238.571 42.627L238.57 42.6281Z" fill="#1A1A1A"/>
<path fill-rule="evenodd" clip-rule="evenodd" d="M248.735 43.9712C251.503 44.3855 254.146 44.7088 256.738 45.0992C258.534 46.5481 260.416 47.9458 262.322 49.4642C259.807 49.1478 257.21 48.87 254.585 48.5229C252.661 47.0022 250.739 45.5203 248.735 43.9712Z" fill="#1A1A1A"/>
<path fill-rule="evenodd" clip-rule="evenodd" d="M241.568 38.5864C244.383 39.0178 247.081 39.4913 249.718 39.9193C251.615 41.3796 253.47 42.7807 255.328 44.1864C252.839 43.8154 250.137 43.4568 247.303 43.038C245.43 41.589 243.477 40.0911 241.566 38.5864H241.568Z" fill="#1A1A1A"/>
<path fill-rule="evenodd" clip-rule="evenodd" d="M210.948 40.1196C214.998 40.6056 218.769 41.0575 222.355 41.3819C224.742 43.17 226.927 45.0048 229.041 46.7258C225.559 46.472 221.852 46.1077 217.921 45.7401C215.684 43.8837 213.358 42.0022 210.95 40.1208L210.948 40.1196Z" fill="#1A1A1A"/>
<path fill-rule="evenodd" clip-rule="evenodd" d="M320.227 74.8143C321.087 74.6083 321.874 74.3898 322.626 74.2134C323.794 75.2173 325.001 76.2417 326.145 77.3685C325.563 77.6314 324.878 77.9478 324.155 78.2347C322.906 77.1386 321.563 75.94 320.227 74.8143Z" fill="#1A1A1A"/>
<path fill-rule="evenodd" clip-rule="evenodd" d="M317.006 75.5225C318.014 75.3165 318.949 75.0922 319.847 74.8896C321.218 76.0961 322.528 77.256 323.775 78.3578C323.05 78.7038 322.25 79.027 321.377 79.3582C319.957 78.0766 318.477 76.7654 317.006 75.5225Z" fill="#1A1A1A"/>
<path fill-rule="evenodd" clip-rule="evenodd" d="M313.262 76.2611C314.419 76.0824 315.471 75.8343 316.485 75.5828C318.023 76.9361 319.504 78.2177 320.887 79.4697C319.94 79.7361 318.988 80.0491 317.859 80.2972C316.34 78.9473 314.761 77.5906 313.261 76.2611H313.262Z" fill="#1A1A1A"/>
<path fill-rule="evenodd" clip-rule="evenodd" d="M308.483 77.0909C309.836 76.8371 311.149 76.5685 312.453 76.3887C313.988 77.7124 315.596 79.1966 317.148 80.5978C315.974 80.8755 314.829 81.2818 313.645 81.6847C311.959 80.1072 310.179 78.6082 308.483 77.0898V77.0909Z" fill="#1A1A1A"/>
<path fill-rule="evenodd" clip-rule="evenodd" d="M303.292 77.8376C304.874 77.6315 306.448 77.4255 307.773 77.1626C309.503 78.6559 311.282 80.1743 313.002 81.7393C311.665 82.1184 310.254 82.4473 308.797 82.8058C307.054 81.1805 305.218 79.538 303.292 77.8376Z" fill="#1A1A1A"/>
<path fill-rule="evenodd" clip-rule="evenodd" d="M297.369 78.821C299.19 78.5763 300.863 78.3008 302.459 78.0083C304.452 79.768 306.319 81.4582 308.062 83.0597C306.598 83.4239 305.012 83.878 303.385 84.3049C301.34 82.4257 299.449 80.699 297.369 78.8198V78.821Z" fill="#1A1A1A"/>
<path fill-rule="evenodd" clip-rule="evenodd" d="M290.685 80.0421C292.756 79.7348 294.679 79.3876 296.555 79.0564C298.562 80.9117 300.557 82.6975 302.566 84.5437C300.847 85.0309 299.01 85.5055 297.128 85.9835C295.001 83.9666 292.786 81.9452 290.685 80.0421Z" fill="#1A1A1A"/>
<path fill-rule="evenodd" clip-rule="evenodd" d="M282.227 81.1087C284.604 80.6967 286.88 80.3882 288.997 80.1196C291.169 82.0022 293.372 84.0624 295.531 86.0736C293.529 86.489 291.367 86.9364 289.211 87.5555C286.837 85.2882 284.577 83.1825 282.226 81.1087H282.227Z" fill="#1A1A1A"/>
<path fill-rule="evenodd" clip-rule="evenodd" d="M273.528 82.4472C276.206 81.9931 278.844 81.4798 281.158 81.0825C283.53 83.2485 285.931 85.3838 288.197 87.5976C285.913 88.2043 283.497 88.8667 280.859 89.4085C278.443 87.0718 276.007 84.8045 273.528 82.4484V82.4472Z" fill="#1A1A1A"/>
<path fill-rule="evenodd" clip-rule="evenodd" d="M263.191 84.0521C266.293 83.5832 269.369 83.1768 272.027 82.511C274.529 84.9103 277.086 87.3302 279.459 89.6863C276.822 90.3498 274.051 91.0248 271.118 91.6667C268.436 89.05 265.868 86.5733 263.19 84.0521H263.191Z" fill="#1A1A1A"/>
<path fill-rule="evenodd" clip-rule="evenodd" d="M251.477 86.2057C255.121 85.5512 258.473 84.9662 261.623 84.3447C264.327 86.9285 267.06 89.5099 269.729 92.2018C266.442 92.9928 263.41 93.9797 259.931 94.7525C257.057 91.8785 254.215 89.0171 251.477 86.2057Z" fill="#1A1A1A"/>
<path fill-rule="evenodd" clip-rule="evenodd" d="M237.939 88.8996C242.202 88.1734 245.979 87.4871 249.788 86.7666C252.631 89.6042 255.467 92.4929 258.307 95.3168C254.75 96.3389 250.983 97.3394 247.031 98.3638C243.905 95.0505 240.933 91.9352 237.939 88.8996Z" fill="#1A1A1A"/>
<path fill-rule="evenodd" clip-rule="evenodd" d="M97.0261 72.4971C99.7095 70.6327 102.336 68.7512 104.737 67.0337C108.616 68.9425 112.477 70.7203 116.377 72.7361C114.201 74.7109 112.046 76.7813 109.441 78.8995C105.237 76.7392 101.035 74.5914 97.0274 72.4971H97.0261Z" fill="#1A1A1A"/>
<path fill-rule="evenodd" clip-rule="evenodd" d="M228.657 68.6703C229.724 67.7358 230.767 66.8662 231.852 66.1218C233.362 67.0415 234.936 68.0215 236.49 68.9537C235.525 69.8381 234.614 70.7885 233.635 71.8573C231.962 70.7703 230.294 69.6912 228.655 68.6703H228.657Z" fill="#1A1A1A"/>
<path fill-rule="evenodd" clip-rule="evenodd" d="M270.905 34.1473C271.321 33.5965 271.702 33.0228 272.053 32.448C273.412 33.4257 274.864 34.4843 276.289 35.5155C276.067 36.1768 275.753 36.7812 275.398 37.4288C273.907 36.3395 272.391 35.2321 270.906 34.1473H270.905Z" fill="#1A1A1A"/>
<path fill-rule="evenodd" clip-rule="evenodd" d="M50.2038 129.716C53.5578 127.434 56.7212 125.247 59.7939 123.323C63.7947 124.392 67.7206 125.659 71.8398 126.868C68.8527 128.971 65.9128 131.244 62.8915 133.694C58.5948 132.289 54.1995 131.024 50.2025 129.715L50.2038 129.716Z" fill="#1A1A1A"/>
<path fill-rule="evenodd" clip-rule="evenodd" d="M261.332 41.5504C261.662 41.2351 261.923 40.9278 262.182 40.6318C263.065 41.1896 263.954 41.737 264.812 42.2834C264.614 42.6214 264.409 43.0187 264.179 43.351C263.228 42.7535 262.313 42.1604 261.332 41.5492V41.5504Z" fill="#1A1A1A"/>
<path fill-rule="evenodd" clip-rule="evenodd" d="M230.888 27.1257C231.684 26.8309 232.439 26.5702 233.186 26.3301C234.313 26.9959 235.438 27.6845 236.59 28.4107C235.961 28.7397 235.271 29.0322 234.486 29.4101C233.313 28.6145 232.1 27.8712 230.888 27.1268V27.1257Z" fill="#1A1A1A"/>
<path fill-rule="evenodd" clip-rule="evenodd" d="M61.4294 54.1366C64.5875 53.0075 67.5234 52.0218 70.3134 51.093C73.9212 52.3929 77.3369 53.638 80.6055 54.9584C78.085 56.0522 75.4305 57.1722 72.4604 58.5494C68.6476 57.0049 64.9425 55.4728 61.4294 54.1366Z" fill="#1A1A1A"/>
<path fill-rule="evenodd" clip-rule="evenodd" d="M243.801 25.366C244.282 25.1691 244.642 24.9107 245.024 24.7161C245.941 25.2374 246.816 25.8258 247.699 26.3938C247.376 26.6431 247.077 26.9378 246.687 27.1655C245.807 26.5816 244.805 25.9635 243.801 25.366Z" fill="#1A1A1A"/>
<path fill-rule="evenodd" clip-rule="evenodd" d="M263.878 21.0659C264.133 20.9043 264.412 20.7802 264.663 20.6311C265.324 21.0761 266.049 21.536 266.684 21.9605C266.464 22.1335 266.273 22.3088 266.077 22.5091C265.353 22.0345 264.601 21.5508 263.878 21.0659Z" fill="#1A1A1A"/>
<path fill-rule="evenodd" clip-rule="evenodd" d="M312.353 64.8938C312.461 64.6547 312.603 64.4157 312.676 64.1858C313.205 64.4999 313.698 64.8585 314.227 65.1863C314.186 65.464 314.112 65.7269 314.039 65.9899C313.443 65.6222 312.913 65.258 312.353 64.8938Z" fill="#1A1A1A"/>
<path fill-rule="evenodd" clip-rule="evenodd" d="M47.779 91.1887C50.0272 90.2542 51.8469 89.3721 53.7665 88.5276C56.5853 89.2208 59.2846 89.8479 61.9746 90.5263C60.3246 91.3925 58.4563 92.402 56.4789 93.3581C53.5324 92.6616 50.6465 91.9035 47.779 91.1887Z" fill="#1A1A1A"/>
<path fill-rule="evenodd" clip-rule="evenodd" d="M213.229 22.6048C214.018 22.4022 214.824 22.2633 215.507 22.0562C216.604 22.6788 217.764 23.3253 218.803 23.9251C218.141 24.1778 217.522 24.3929 216.791 24.6296C215.699 23.9774 214.421 23.2581 213.229 22.6048Z" fill="#1A1A1A"/>
<path fill-rule="evenodd" clip-rule="evenodd" d="M242.3 7.21386C242.801 7.13305 243.301 7.06362 243.793 7.04199C244.619 7.49728 245.405 8.01744 246.195 8.51597C245.727 8.58654 245.257 8.66394 244.785 8.75386C243.94 8.21662 243.12 7.70557 242.3 7.21386Z" fill="#1A1A1A"/>
<path fill-rule="evenodd" clip-rule="evenodd" d="M254.77 26.0684C255.225 25.9432 255.673 25.8545 256.093 25.7429C256.799 26.1845 257.598 26.6694 258.34 27.1065C257.918 27.2362 257.529 27.3569 257.104 27.4889C256.305 27.0063 255.567 26.5522 254.769 26.0684H254.77Z" fill="#1A1A1A"/>
<path fill-rule="evenodd" clip-rule="evenodd" d="M331.502 77.0794C331.631 76.8973 331.727 76.7539 331.857 76.5718C332.274 76.8199 332.69 77.0703 333.072 77.3036C332.979 77.4914 332.918 77.6679 332.788 77.8204C332.37 77.5848 331.918 77.331 331.502 77.0794Z" fill="#1A1A1A"/>
<path fill-rule="evenodd" clip-rule="evenodd" d="M265.491 36.2233C265.946 36.0936 266.372 35.9445 266.79 35.8489C267.456 36.2416 268.187 36.6627 268.889 37.0542C268.467 37.184 268.045 37.3206 267.651 37.4754C266.953 37.0622 266.221 36.6468 265.491 36.2233Z" fill="#1A1A1A"/>
<path fill-rule="evenodd" clip-rule="evenodd" d="M194.716 41.6549C195.704 41.4307 196.65 41.2019 197.56 40.9902C198.758 41.5514 199.924 42.0852 201.188 42.6725C200.253 42.858 199.335 43.1119 198.419 43.3475C197.227 42.7693 195.923 42.1956 194.716 41.6549Z" fill="#1A1A1A"/>
<path fill-rule="evenodd" clip-rule="evenodd" d="M334.69 73.1447C334.812 72.9592 334.971 72.7987 335.095 72.6553C335.504 72.8818 335.881 73.1185 336.26 73.3837C336.137 73.5419 336.013 73.707 335.89 73.8914C335.477 73.6375 335.066 73.3837 334.69 73.1447Z" fill="#1A1A1A"/>
<path fill-rule="evenodd" clip-rule="evenodd" d="M276.506 45.1116C276.928 44.983 277.354 44.8134 277.742 44.678C278.395 45.057 278.984 45.4042 279.607 45.7741C279.252 45.9175 278.895 46.0791 278.503 46.2521C277.848 45.8583 277.191 45.5146 276.506 45.1105V45.1116Z" fill="#1A1A1A"/>
<path fill-rule="evenodd" clip-rule="evenodd" d="M271.149 30.0452C271.519 29.9622 271.88 29.9303 272.247 29.8711C272.785 30.1898 273.349 30.5461 273.891 30.8454C273.588 30.9023 273.22 30.9843 272.912 31.0753C272.316 30.7168 271.749 30.3708 271.149 30.0464V30.0452Z" fill="#1A1A1A"/>
<path fill-rule="evenodd" clip-rule="evenodd" d="M0.000349059 112.16C3.00067 111.375 6.17321 110.443 9.37995 109.633C12.35 110.186 15.5581 110.58 18.5742 111.064C15.6909 111.831 12.5683 112.73 9.68368 113.622C6.3139 113.129 3.19657 112.675 0.000349059 112.161V112.16Z" fill="#1A1A1A"/>
<path fill-rule="evenodd" clip-rule="evenodd" d="M230.578 11.9067C231.24 11.9295 231.835 11.9352 232.431 11.9397C233.129 12.3256 233.857 12.7285 234.609 13.1599C234.016 13.136 233.473 13.1793 232.875 13.1747C232.123 12.7445 231.37 12.3097 230.58 11.9067H230.578Z" fill="#1A1A1A"/>
<path fill-rule="evenodd" clip-rule="evenodd" d="M326.458 75.4189C326.661 75.288 326.863 75.1525 326.996 75.0273C327.374 75.2368 327.786 75.4758 328.131 75.667C327.998 75.807 327.831 75.9265 327.664 76.0768C327.251 75.8343 326.871 75.6317 326.458 75.42V75.4189Z" fill="#1A1A1A"/>
<path fill-rule="evenodd" clip-rule="evenodd" d="M148.18 61.4677C149.674 61.1513 151.274 60.9624 152.798 60.6755C154.299 61.1297 155.665 61.5269 157.008 61.9936C155.625 62.2144 154.127 62.5251 152.564 62.8359C151.103 62.3669 149.603 61.9162 148.182 61.4677H148.18Z" fill="#1A1A1A"/>
<path fill-rule="evenodd" clip-rule="evenodd" d="M153.278 85.0491C154.626 84.3173 155.959 83.5888 157.3 82.9548C159.178 83.582 161.092 84.3195 163.02 85.0309C161.772 85.7537 160.532 86.4582 159.279 87.28C157.19 86.456 155.211 85.7651 153.278 85.048V85.0491Z" fill="#1A1A1A"/>
<path fill-rule="evenodd" clip-rule="evenodd" d="M330.716 81.3863C330.845 81.0642 330.938 80.7352 331.033 80.4541C331.56 80.783 332.124 81.1473 332.689 81.5263C332.633 81.8552 332.575 82.2286 332.486 82.5655C331.918 82.1774 331.317 81.7824 330.716 81.3852V81.3863Z" fill="#1A1A1A"/>
<path fill-rule="evenodd" clip-rule="evenodd" d="M185.909 55.9293C187.124 55.326 188.244 54.7877 189.284 54.2629C190.883 55.0335 192.548 55.8519 194.213 56.685C193.166 57.2439 192.232 57.9155 191.065 58.4925C189.296 57.6286 187.606 56.7693 185.909 55.9293Z" fill="#1A1A1A"/>
</g>
<defs>
<clipPath id="clip0_393_704">
<rect width="342" height="162" fill="white" transform="matrix(-1 0 0 1 342 0)"/>
</clipPath>
</defs>
</svg>
